# 3ds Max Wavefront OBJ Exporter v0.97b - (c)2007 guruware
# File Created: 10.06.2017 08:36:43

#
# object chair
#

v  -117.5595 0.0000 -154.9962
v  -142.0001 0.0000 -154.9962
v  -142.0001 0.0000 -179.7215
v  -117.5595 0.0000 -179.7215
v  -117.5595 710.5443 -179.7215
v  -117.5595 710.5443 -154.9962
v  -142.0001 710.5443 -179.7215
v  -142.0001 710.5443 -154.9962
v  121.3600 194.6682 141.7603
v  121.3600 179.1194 141.7603
v  -121.3600 179.1194 141.7603
v  -121.3600 194.6682 141.7603
v  121.3600 194.6682 157.1301
v  -121.3600 194.6682 157.1301
v  121.3600 179.1194 157.1301
v  -121.3600 179.1194 157.1301
v  -117.5595 0.0000 161.4607
v  -142.0001 0.0000 161.4607
v  -142.0001 0.0000 136.7354
v  -117.5595 0.0000 136.7354
v  -117.5595 334.9341 136.7354
v  -117.5595 334.9341 161.4607
v  -142.0001 334.9341 136.7354
v  -142.0001 334.9341 161.4607
v  -122.0949 140.5663 139.6733
v  -122.0949 125.0176 139.6733
v  -122.0949 125.0176 -157.1873
v  -122.0949 140.5663 -157.1873
v  -137.4646 140.5663 139.6733
v  -137.4647 140.5663 -157.1873
v  -137.4646 125.0176 139.6733
v  -137.4647 125.0176 -157.1873
v  124.9377 551.2444 -159.6969
v  -124.9377 551.2444 -159.6969
v  -124.9377 551.2444 -175.0208
v  124.9377 551.2444 -175.0208
v  -124.9377 705.7552 -175.0208
v  124.9377 705.7552 -175.0208
v  124.9377 705.7552 -159.6969
v  -124.9377 705.7552 -159.6969
v  121.3600 194.6682 -175.3427
v  121.3600 179.1194 -175.3427
v  -121.3600 179.1194 -175.3427
v  -121.3600 194.6682 -175.3427
v  121.3600 194.6682 -159.9730
v  -121.3600 194.6682 -159.9730
v  121.3600 179.1194 -159.9730
v  -121.3600 179.1194 -159.9730
v  -122.0949 249.4157 139.6733
v  -122.0949 233.8669 139.6733
v  -122.0949 233.8669 -157.1873
v  -122.0949 249.4157 -157.1873
v  -137.4646 249.4157 139.6733
v  -137.4647 249.4157 -157.1873
v  -137.4646 233.8669 139.6733
v  -137.4647 233.8669 -157.1873
v  -148.9032 333.7805 177.6998
v  -148.9032 362.5905 177.6998
v  -148.9032 362.5905 -155.9642
v  -148.9032 333.7805 -155.9642
v  -115.9990 333.7805 -155.7529
v  -115.9989 333.7805 177.6998
v  -115.9990 362.5905 -155.7529
v  -115.9989 362.5905 177.6998
v  -115.9990 362.5905 -179.7437
v  -115.9990 333.7805 -179.7437
v  -7.8884 317.2233 141.7603
v  -121.3600 317.2233 141.7603
v  -121.3600 332.7721 141.7603
v  -7.8884 332.7721 141.7603
v  -121.3600 332.7721 157.1301
v  -7.8884 332.7721 157.1301
v  -121.3600 317.2233 157.1301
v  -7.8884 317.2233 157.1301
v  -7.8884 317.2233 -175.3428
v  -121.3600 317.2233 -175.3427
v  -121.3600 332.7721 -175.3427
v  -7.8884 332.7721 -175.3428
v  -121.3600 332.7721 -159.9730
v  -7.8884 332.7721 -159.9730
v  -121.3600 317.2233 -159.9730
v  -7.8884 317.2233 -159.9730
v  7.8884 332.7721 157.1301
v  7.8884 332.7721 141.7603
v  7.8884 317.2233 157.1301
v  7.8884 317.2233 141.7603
v  7.8884 332.7721 -175.3428
v  7.8884 317.2233 -175.3428
v  7.8884 332.7721 -159.9730
v  7.8884 317.2233 -159.9730
v  117.5595 0.0000 -154.9962
v  117.5595 0.0000 -179.7215
v  142.0001 0.0000 -179.7215
v  142.0001 0.0000 -154.9962
v  117.5595 710.5443 -179.7215
v  117.5595 710.5443 -154.9962
v  142.0001 710.5443 -179.7215
v  142.0001 710.5443 -154.9962
v  117.5595 0.0000 161.4607
v  117.5595 0.0000 136.7354
v  142.0001 0.0000 136.7354
v  142.0001 0.0000 161.4607
v  117.5595 334.9341 136.7354
v  117.5595 334.9341 161.4607
v  142.0001 334.9341 136.7354
v  142.0001 334.9341 161.4607
v  122.0949 140.5663 139.6733
v  122.0949 140.5663 -157.1873
v  122.0949 125.0176 -157.1873
v  122.0949 125.0176 139.6733
v  137.4646 140.5663 139.6733
v  137.4647 140.5663 -157.1873
v  137.4646 125.0176 139.6733
v  137.4647 125.0176 -157.1873
v  122.0949 249.4157 139.6733
v  122.0949 249.4157 -157.1873
v  122.0949 233.8669 -157.1873
v  122.0949 233.8669 139.6733
v  137.4646 249.4157 139.6733
v  137.4647 249.4157 -157.1873
v  137.4646 233.8669 139.6733
v  137.4647 233.8669 -157.1873
v  115.9989 333.7805 -179.7437
v  115.9990 362.5905 -179.7437
v  115.9990 362.5905 -155.7529
v  115.9989 362.5905 177.6998
v  148.9032 333.7805 177.6998
v  148.9032 333.7805 -155.9642
v  148.9032 362.5905 -155.7529
v  148.9032 362.5905 177.9112
v  115.9989 333.7805 177.6998
v  115.9989 333.7805 -155.7529
v  121.3600 332.7721 141.7603
v  121.3600 317.2233 141.7603
v  121.3600 332.7721 157.1301
v  121.3600 317.2233 157.1301
v  121.3600 332.7721 -175.3427
v  121.3600 317.2233 -175.3427
v  121.3600 332.7721 -159.9730
v  121.3600 317.2233 -159.9730
# 140 vertices

vn 0.0000 -1.0000 -0.0000
vn 1.0000 0.0000 -0.0000
vn 0.0000 0.0000 -1.0000
vn -1.0000 0.0000 -0.0000
vn 0.0000 0.0000 1.0000
vn 0.0000 1.0000 -0.0000
vn -1.0000 0.0000 0.0000
vn 0.0064 0.0000 -1.0000
vn -0.0000 0.0000 -1.0000
vn 1.0000 0.0000 0.0000
vn -0.0032 0.0000 1.0000
vn -0.0017 -0.0017 1.0000
vn -0.0035 0.0034 -1.0000
vn 0.0000 0.0073 -1.0000
vn -0.0029 0.0040 -1.0000
vn -0.0064 0.0000 -1.0000
vn 0.0000 -0.0073 1.0000
vn -0.0029 -0.0040 1.0000
vn 1.0000 -0.0000 -0.0000
# 19 vertex normals

vt 0.8598 0.7453 0.0000
vt 0.8598 0.7632 0.0000
vt 0.8417 0.7632 0.0000
vt 0.8417 0.7453 0.0000
vt 0.8180 0.4773 0.0000
vt 0.8180 0.4954 0.0000
vt 0.2982 0.4954 0.0000
vt 0.2982 0.4773 0.0000
vt 0.8180 0.5669 0.0000
vt 0.8180 0.5848 0.0000
vt 0.2982 0.5848 0.0000
vt 0.2982 0.5669 0.0000
vt 0.8180 0.4325 0.0000
vt 0.8180 0.4506 0.0000
vt 0.2982 0.4506 0.0000
vt 0.2982 0.4325 0.0000
vt 0.8180 0.7007 0.0000
vt 0.8180 0.7186 0.0000
vt 0.2982 0.7186 0.0000
vt 0.2982 0.7007 0.0000
vt 0.8448 0.7007 0.0000
vt 0.8629 0.7007 0.0000
vt 0.8629 0.7186 0.0000
vt 0.8448 0.7186 0.0000
vt 0.0300 0.6410 0.0000
vt 0.0300 0.6296 0.0000
vt 0.2076 0.6296 0.0000
vt 0.2076 0.6410 0.0000
vt 0.4959 0.0569 0.0000
vt 0.4959 0.0682 0.0000
vt 0.3184 0.0682 0.0000
vt 0.3184 0.0569 0.0000
vt 0.4959 0.0749 0.0000
vt 0.4959 0.0862 0.0000
vt 0.3184 0.0862 0.0000
vt 0.3184 0.0749 0.0000
vt 0.4959 0.1583 0.0000
vt 0.4959 0.1695 0.0000
vt 0.3184 0.1695 0.0000
vt 0.3184 0.1583 0.0000
vt 0.8629 0.6561 0.0000
vt 0.8629 0.6740 0.0000
vt 0.8448 0.6740 0.0000
vt 0.8448 0.6561 0.0000
vt 0.5433 0.7901 0.0000
vt 0.5433 0.8082 0.0000
vt 0.2982 0.8082 0.0000
vt 0.2982 0.7901 0.0000
vt 0.8150 0.7453 0.0000
vt 0.8150 0.7632 0.0000
vt 0.5700 0.7632 0.0000
vt 0.5700 0.7453 0.0000
vt 0.5433 0.7453 0.0000
vt 0.5433 0.7634 0.0000
vt 0.2982 0.7634 0.0000
vt 0.2982 0.7453 0.0000
vt 0.5433 0.8349 0.0000
vt 0.5433 0.8528 0.0000
vt 0.2982 0.8528 0.0000
vt 0.2982 0.8349 0.0000
vt 0.9884 0.0825 0.0000
vt 0.9884 0.0939 0.0000
vt 0.7712 0.0939 0.0000
vt 0.7712 0.0825 0.0000
vt 0.0100 0.9526 0.0000
vt 0.0100 0.9413 0.0000
vt 0.2272 0.9413 0.0000
vt 0.2272 0.9526 0.0000
vt 0.7728 0.3519 0.0000
vt 0.7728 0.3405 0.0000
vt 0.9900 0.3405 0.0000
vt 0.9900 0.3519 0.0000
vt 0.5154 0.9489 0.0000
vt 0.5154 0.9601 0.0000
vt 0.2982 0.9601 0.0000
vt 0.2982 0.9489 0.0000
vt 0.2128 0.6589 0.0000
vt 0.0300 0.6589 0.0000
vt 0.0300 0.6477 0.0000
vt 0.2128 0.6477 0.0000
vt 0.7511 0.1230 0.0000
vt 0.5683 0.1230 0.0000
vt 0.5683 0.0100 0.0000
vt 0.7511 0.0100 0.0000
vt 0.2982 0.2546 0.0000
vt 0.4810 0.2546 0.0000
vt 0.4810 0.3676 0.0000
vt 0.2982 0.3676 0.0000
vt 0.2128 0.6655 0.0000
vt 0.2128 0.6768 0.0000
vt 0.0300 0.6768 0.0000
vt 0.0300 0.6655 0.0000
vt 0.3184 0.1876 0.0000
vt 0.3184 0.1762 0.0000
vt 0.4959 0.1762 0.0000
vt 0.4959 0.1876 0.0000
vt 0.4959 0.0390 0.0000
vt 0.4959 0.0503 0.0000
vt 0.3184 0.0503 0.0000
vt 0.3184 0.0390 0.0000
vt 0.2076 0.5182 0.0000
vt 0.2076 0.5296 0.0000
vt 0.0300 0.5296 0.0000
vt 0.0300 0.5182 0.0000
vt 0.4959 0.1403 0.0000
vt 0.4959 0.1516 0.0000
vt 0.3184 0.1516 0.0000
vt 0.3184 0.1403 0.0000
vt 0.7872 0.7901 0.0000
vt 0.7872 0.8015 0.0000
vt 0.5700 0.8015 0.0000
vt 0.5700 0.7901 0.0000
vt 0.0100 0.9146 0.0000
vt 0.0100 0.9034 0.0000
vt 0.2272 0.9034 0.0000
vt 0.2272 0.9146 0.0000
vt 0.7728 0.3071 0.0000
vt 0.7728 0.2957 0.0000
vt 0.9900 0.2957 0.0000
vt 0.9900 0.3071 0.0000
vt 0.7593 0.9109 0.0000
vt 0.7593 0.9222 0.0000
vt 0.5421 0.9222 0.0000
vt 0.5421 0.9109 0.0000
vt 0.5011 0.2757 0.0000
vt 0.5011 0.2546 0.0000
vt 0.7452 0.2546 0.0000
vt 0.7452 0.2757 0.0000
vt 0.2715 0.4725 0.0000
vt 0.0274 0.4725 0.0000
vt 0.0276 0.4484 0.0000
vt 0.2715 0.4484 0.0000
vt 0.8688 0.4773 0.0000
vt 0.8688 0.4984 0.0000
vt 0.8448 0.4984 0.0000
vt 0.8448 0.4773 0.0000
vt 0.0102 0.2038 0.0000
vt 0.2541 0.2038 0.0000
vt 0.2543 0.2279 0.0000
vt 0.0102 0.2279 0.0000
vt 0.9650 0.0311 0.0000
vt 0.9650 0.0100 0.0000
vt 0.9890 0.0100 0.0000
vt 0.9890 0.0311 0.0000
vt 0.2275 0.5754 0.0000
vt 0.2064 0.5754 0.0000
vt 0.2064 0.5579 0.0000
vt 0.2275 0.5579 0.0000
vt 0.9278 0.3990 0.0000
vt 0.8448 0.3990 0.0000
vt 0.8448 0.3877 0.0000
vt 0.9278 0.3877 0.0000
vt 0.3096 0.1046 0.0000
vt 0.3096 0.1876 0.0000
vt 0.2984 0.1876 0.0000
vt 0.2984 0.1046 0.0000
vt 0.1130 0.5477 0.0000
vt 0.0300 0.5477 0.0000
vt 0.0300 0.5363 0.0000
vt 0.1130 0.5363 0.0000
vt 0.2532 0.5937 0.0000
vt 0.2532 0.6768 0.0000
vt 0.2420 0.6768 0.0000
vt 0.2420 0.5937 0.0000
vt 0.1245 0.6115 0.0000
vt 0.2076 0.6115 0.0000
vt 0.2076 0.6229 0.0000
vt 0.1245 0.6229 0.0000
vt 0.5416 0.1046 0.0000
vt 0.5416 0.1876 0.0000
vt 0.5304 0.1876 0.0000
vt 0.5304 0.1046 0.0000
vt 0.5683 0.1431 0.0000
vt 0.6513 0.1431 0.0000
vt 0.6513 0.1545 0.0000
vt 0.5683 0.1545 0.0000
vt 0.0212 0.5937 0.0000
vt 0.0212 0.6768 0.0000
vt 0.0100 0.6768 0.0000
vt 0.0100 0.5937 0.0000
vt 0.2984 0.0930 0.0000
vt 0.3096 0.0930 0.0000
vt 0.1245 0.5363 0.0000
vt 0.1245 0.5477 0.0000
vt 0.2420 0.5822 0.0000
vt 0.2532 0.5822 0.0000
vt 0.1130 0.6229 0.0000
vt 0.1130 0.6115 0.0000
vt 0.5304 0.0930 0.0000
vt 0.5416 0.0930 0.0000
vt 0.0100 0.5822 0.0000
vt 0.0212 0.5822 0.0000
vt 0.9860 0.2546 0.0000
vt 0.9860 0.2660 0.0000
vt 0.7652 0.2660 0.0000
vt 0.7652 0.2546 0.0000
vt 0.8629 0.5848 0.0000
vt 0.8448 0.5848 0.0000
vt 0.8448 0.5669 0.0000
vt 0.8629 0.5669 0.0000
vt 0.8180 0.5402 0.0000
vt 0.2982 0.5402 0.0000
vt 0.2982 0.5221 0.0000
vt 0.8180 0.5221 0.0000
vt 0.8180 0.6740 0.0000
vt 0.2982 0.6740 0.0000
vt 0.2982 0.6561 0.0000
vt 0.8180 0.6561 0.0000
vt 0.8180 0.4058 0.0000
vt 0.2982 0.4058 0.0000
vt 0.2982 0.3877 0.0000
vt 0.8180 0.3877 0.0000
vt 0.8180 0.6294 0.0000
vt 0.2982 0.6294 0.0000
vt 0.2982 0.6115 0.0000
vt 0.8180 0.6115 0.0000
vt 0.8448 0.6294 0.0000
vt 0.8448 0.6115 0.0000
vt 0.8629 0.6115 0.0000
vt 0.8629 0.6294 0.0000
vt 0.8253 0.8080 0.0000
vt 0.8072 0.8080 0.0000
vt 0.8072 0.7901 0.0000
vt 0.8253 0.7901 0.0000
vt 0.2550 0.7627 0.0000
vt 0.0100 0.7627 0.0000
vt 0.0100 0.7446 0.0000
vt 0.2550 0.7446 0.0000
vt 0.7461 0.3584 0.0000
vt 0.5011 0.3584 0.0000
vt 0.5011 0.3405 0.0000
vt 0.7461 0.3405 0.0000
vt 0.7461 0.3138 0.0000
vt 0.5011 0.3138 0.0000
vt 0.5011 0.2957 0.0000
vt 0.7461 0.2957 0.0000
vt 0.2550 0.8073 0.0000
vt 0.0100 0.8073 0.0000
vt 0.0100 0.7894 0.0000
vt 0.2550 0.7894 0.0000
vt 0.2982 0.8795 0.0000
vt 0.5154 0.8795 0.0000
vt 0.5154 0.8909 0.0000
vt 0.2982 0.8909 0.0000
vt 0.2982 0.9109 0.0000
vt 0.5154 0.9109 0.0000
vt 0.5154 0.9222 0.0000
vt 0.2982 0.9222 0.0000
vt 0.7872 0.8463 0.0000
vt 0.5700 0.8463 0.0000
vt 0.5700 0.8349 0.0000
vt 0.7872 0.8349 0.0000
vt 0.2272 0.8767 0.0000
vt 0.0100 0.8767 0.0000
vt 0.0100 0.8654 0.0000
vt 0.2272 0.8654 0.0000
vt 0.0100 0.8340 0.0000
vt 0.2272 0.8340 0.0000
vt 0.2272 0.8454 0.0000
vt 0.0100 0.8454 0.0000
vt 0.7712 0.1139 0.0000
vt 0.9884 0.1139 0.0000
vt 0.9884 0.1252 0.0000
vt 0.7712 0.1252 0.0000
vt 0.9884 0.0625 0.0000
vt 0.7712 0.0625 0.0000
vt 0.7712 0.0511 0.0000
vt 0.9884 0.0511 0.0000
vt 0.9884 0.1632 0.0000
vt 0.7712 0.1632 0.0000
vt 0.7712 0.1519 0.0000
vt 0.9884 0.1519 0.0000
vt 0.0300 0.5543 0.0000
vt 0.1997 0.5543 0.0000
vt 0.1997 0.5754 0.0000
vt 0.0300 0.5754 0.0000
vt 0.2541 0.0341 0.0000
vt 0.0102 0.0341 0.0000
vt 0.2541 0.7246 0.0000
vt 0.0100 0.7246 0.0000
vt 0.0102 0.7035 0.0000
vt 0.2543 0.7035 0.0000
vt 0.2715 0.2546 0.0000
vt 0.2715 0.2787 0.0000
vt 0.0276 0.2787 0.0000
vt 0.0274 0.2546 0.0000
vt 0.7952 0.0100 0.0000
vt 0.7952 0.0311 0.0000
vt 0.8448 0.4325 0.0000
vt 0.8688 0.4325 0.0000
vt 0.8688 0.4536 0.0000
vt 0.8448 0.4536 0.0000
vt 0.0100 0.0100 0.0000
vt 0.2541 0.0100 0.0000
vt 0.7712 0.0311 0.0000
vt 0.7712 0.0100 0.0000
vt 0.0100 0.2787 0.0000
vt 0.0100 0.4484 0.0000
vt 0.8658 0.5221 0.0000
vt 0.8658 0.5396 0.0000
vt 0.8448 0.5396 0.0000
vt 0.8448 0.5221 0.0000
vt 0.2717 0.2038 0.0000
vt 0.2717 0.0341 0.0000
vt 0.4014 0.1223 0.0000
vt 0.4014 0.1337 0.0000
vt 0.3184 0.1337 0.0000
vt 0.3184 0.1223 0.0000
vt 0.2984 0.0100 0.0000
vt 0.3096 0.0100 0.0000
vt 0.2076 0.5363 0.0000
vt 0.2076 0.5477 0.0000
vt 0.2420 0.4992 0.0000
vt 0.2532 0.4992 0.0000
vt 0.0300 0.6229 0.0000
vt 0.0300 0.6115 0.0000
vt 0.5304 0.0100 0.0000
vt 0.5416 0.0100 0.0000
vt 0.3184 0.0323 0.0000
vt 0.3184 0.0210 0.0000
vt 0.4014 0.0210 0.0000
vt 0.4014 0.0323 0.0000
vt 0.0100 0.4992 0.0000
vt 0.0212 0.4992 0.0000
vt 0.2984 0.2143 0.0000
vt 0.5191 0.2143 0.0000
vt 0.5191 0.2257 0.0000
vt 0.2984 0.2257 0.0000
# 328 texture coords

g chair
s 1
f 1/1/1 2/2/1 3/3/1 4/4/1 
s 2
f 5/5/2 6/6/2 1/7/2 4/8/2 
s 4
f 7/9/3 5/10/3 4/11/3 3/12/3 
s 2
f 8/13/4 7/14/4 3/15/4 2/16/4 
s 4
f 6/17/5 8/18/5 2/19/5 1/20/5 
s 1
f 6/21/6 5/22/6 7/23/6 8/24/6 
f 9/25/3 10/26/3 11/27/3 12/28/3 
s 2
f 13/29/6 9/30/6 12/31/6 14/32/6 
s 1
f 15/33/5 13/34/5 14/35/5 16/36/5 
s 2
f 10/37/1 15/38/1 16/39/1 11/40/1 
s 1
f 17/41/1 18/42/1 19/43/1 20/44/1 
s 2
f 21/45/2 22/46/2 17/47/2 20/48/2 
s 4
f 23/49/3 21/50/3 20/51/3 19/52/3 
s 2
f 24/53/4 23/54/4 19/55/4 18/56/4 
s 4
f 22/57/5 24/58/5 18/59/5 17/60/5 
s 1
f 25/61/2 26/62/2 27/63/2 28/64/2 
s 2
f 29/65/6 25/66/6 28/67/6 30/68/6 
s 1
f 31/69/7 29/70/7 30/71/7 32/72/7 
s 2
f 26/73/1 31/74/1 32/75/1 27/76/1 
s 1
f 33/77/1 34/78/1 35/79/1 36/80/1 
s 2
f 36/81/3 35/82/3 37/83/3 38/84/3 
f 39/85/5 40/86/5 34/87/5 33/88/5 
s 1
f 39/89/6 38/90/6 37/91/6 40/92/6 
f 41/93/3 42/94/3 43/95/3 44/96/3 
s 2
f 45/97/6 41/98/6 44/99/6 46/100/6 
s 1
f 47/101/5 45/102/5 46/103/5 48/104/5 
s 2
f 42/105/1 47/106/1 48/107/1 43/108/1 
s 1
f 49/109/2 50/110/2 51/111/2 52/112/2 
s 2
f 53/113/6 49/114/6 52/115/6 54/116/6 
s 1
f 55/117/7 53/118/7 54/119/7 56/120/7 
s 2
f 50/121/1 55/122/1 56/123/1 51/124/1 
s 1
f 57/125/4 58/126/4 59/127/4 60/128/4 
s 2
f 57/129/1 60/130/1 61/131/1 62/132/1 
s 4
f 63/133/8 61/134/8 60/135/8 59/136/8 
s 2
f 64/137/6 63/138/6 59/139/6 58/140/6 
s 4
f 62/141/5 64/142/5 58/143/5 57/144/5 
s 1
f 65/145/4 66/146/4 61/147/4 63/148/4 
f 67/149/3 68/150/3 69/151/3 70/152/3 
s 2
f 70/153/6 69/154/6 71/155/6 72/156/6 
s 1
f 72/157/5 71/158/5 73/159/5 74/160/5 
s 2
f 74/161/1 73/162/1 68/163/1 67/164/1 
s 1
f 75/165/9 76/166/9 77/167/9 78/168/9 
s 2
f 78/169/6 77/170/6 79/171/6 80/172/6 
s 1
f 80/173/5 79/174/5 81/175/5 82/176/5 
s 2
f 82/177/1 81/178/1 76/179/1 75/180/1 
f 70/153/6 72/156/6 83/181/6 84/182/6 
s 1
f 72/157/5 74/160/5 85/183/5 83/184/5 
s 2
f 74/161/1 67/164/1 86/185/1 85/186/1 
s 1
f 75/165/9 78/168/9 87/187/3 88/188/3 
s 2
f 78/169/6 80/172/6 89/189/6 87/190/6 
f 82/177/1 75/180/1 88/191/1 90/192/1 
f 86/185/1 67/164/1 82/177/1 90/192/1 
s 4
f 80/193/4 82/194/4 67/195/4 70/196/4 
s 2
f 89/189/6 80/172/6 70/153/6 84/182/6 
s 1
f 91/197/1 92/198/1 93/199/1 94/200/1 
s 2
f 95/201/4 92/202/4 91/203/4 96/204/4 
s 4
f 97/205/3 93/206/3 92/207/3 95/208/3 
s 2
f 98/209/2 94/210/2 93/211/2 97/212/2 
s 4
f 96/213/5 91/214/5 94/215/5 98/216/5 
s 1
f 96/217/6 98/218/6 97/219/6 95/220/6 
f 99/221/1 100/222/1 101/223/1 102/224/1 
s 2
f 103/225/4 100/226/4 99/227/4 104/228/4 
s 4
f 105/229/3 101/230/3 100/231/3 103/232/3 
s 2
f 106/233/2 102/234/2 101/235/2 105/236/2 
s 4
f 104/237/5 99/238/5 102/239/5 106/240/5 
s 1
f 107/241/4 108/242/4 109/243/4 110/244/4 
s 2
f 111/245/6 112/246/6 108/247/6 107/248/6 
s 1
f 113/249/10 114/250/10 112/251/10 111/252/10 
s 2
f 110/253/1 109/254/1 114/255/1 113/256/1 
s 1
f 115/257/4 116/258/4 117/259/4 118/260/4 
s 2
f 119/261/6 120/262/6 116/263/6 115/264/6 
s 1
f 121/265/10 122/266/10 120/267/10 119/268/10 
s 2
f 118/269/1 117/270/1 122/271/1 121/272/1 
s 4
f 123/273/3 66/274/3 65/275/3 124/276/3 
s 2
f 125/277/6 63/138/6 64/137/6 126/278/6 
s 1
f 127/279/2 128/280/2 129/281/2 130/282/2 
s 2
f 127/283/1 131/284/1 132/285/1 128/286/1 
s 4
f 126/287/11 64/142/5 62/141/5 131/288/12 
f 125/289/13 129/290/14 128/291/15 132/292/16 
s 2
f 126/278/6 130/293/6 129/294/6 125/277/6 
f 61/131/1 132/285/1 131/284/1 62/132/1 
s 4
f 131/288/12 127/295/17 130/296/18 126/287/11 
s 2
f 123/297/1 132/285/1 61/131/1 66/298/1 
s 1
f 124/299/19 125/300/19 132/301/19 123/302/19 
s 2
f 65/303/6 63/138/6 125/277/6 124/304/6 
s 1
f 86/305/3 84/306/3 133/307/3 134/308/3 
s 2
f 84/182/6 83/181/6 135/309/6 133/310/6 
s 1
f 83/184/5 85/183/5 136/311/5 135/312/5 
s 2
f 85/186/1 86/185/1 134/313/1 136/314/1 
s 1
f 88/188/3 87/187/3 137/315/3 138/316/3 
s 2
f 87/190/6 89/189/6 139/317/6 137/318/6 
s 1
f 89/319/5 90/320/5 140/321/5 139/322/5 
s 2
f 90/192/1 88/191/1 138/323/1 140/324/1 
s 4
f 89/325/2 84/326/2 86/327/2 90/328/2 
# 94 polygons

