<svg id="Layer_1" data-name="Layer 1" xmlns="http://www.w3.org/2000/svg" viewBox="0 0 32 32"><title>Artboard 1</title><path d="M11.478,26.18a3.232,3.232,0,0,1-3.229-3.229V13.26a3.233,3.233,0,0,1,3.229-3.229h1.065l-1.4-2.243A1.275,1.275,0,0,1,12.217,5.82h7.566a1.276,1.276,0,0,1,1.1,1.918l-.024.038-1.449,2.255h1.11a3.233,3.233,0,0,1,3.229,3.229v9.691a3.232,3.232,0,0,1-3.229,3.229Z" style="fill:#ff8d8d"/><path d="M19.783,6.875a.22.22,0,0,1,.19.33l-2.495,3.882h3.044A2.18,2.18,0,0,1,22.7,13.26v9.691a2.181,2.181,0,0,1-2.174,2.174H11.478A2.181,2.181,0,0,1,9.3,22.951V13.26a2.18,2.18,0,0,1,2.174-2.173h2.966L12.035,7.218a.22.22,0,0,1,.182-.343h7.566m0-2.111H12.217a2.331,2.331,0,0,0-1.963,3.589l.433.7A4.293,4.293,0,0,0,7.193,13.26v9.691a4.29,4.29,0,0,0,4.285,4.285h9.044a4.29,4.29,0,0,0,4.285-4.285V13.26A4.292,4.292,0,0,0,21.3,9.046l.449-.7.025-.038L21.8,8.27a2.33,2.33,0,0,0-2.013-3.506Z"/></svg>