<?xml version="1.0" encoding="UTF-8" standalone="no"?>
<!-- Created with Inkscape (http://www.inkscape.org/) -->

<svg
   xmlns:dc="http://purl.org/dc/elements/1.1/"
   xmlns:cc="http://creativecommons.org/ns#"
   xmlns:rdf="http://www.w3.org/1999/02/22-rdf-syntax-ns#"
   xmlns:svg="http://www.w3.org/2000/svg"
   xmlns="http://www.w3.org/2000/svg"
   xmlns:sodipodi="http://sodipodi.sourceforge.net/DTD/sodipodi-0.dtd"
   xmlns:inkscape="http://www.inkscape.org/namespaces/inkscape"
   width="102.02981mm"
   height="94.672279mm"
   viewBox="0 0 361.52294 335.45296"
   id="svg5529"
   version="1.1"
   inkscape:version="0.91 r13725"
   sodipodi:docname="character-icon-2.2.svg">
  <defs
     id="defs5531" />
  <sodipodi:namedview
     id="base"
     pagecolor="#ffffff"
     bordercolor="#666666"
     borderopacity="1.0"
     inkscape:pageopacity="0.0"
     inkscape:pageshadow="2"
     inkscape:zoom="1.4"
     inkscape:cx="84.430478"
     inkscape:cy="130.72442"
     inkscape:document-units="px"
     inkscape:current-layer="g6776"
     showgrid="false"
     fit-margin-top="0"
     fit-margin-left="0"
     fit-margin-right="0"
     fit-margin-bottom="0"
     inkscape:window-width="1366"
     inkscape:window-height="704"
     inkscape:window-x="0"
     inkscape:window-y="27"
     inkscape:window-maximized="1" />
  <metadata
     id="metadata5534">
    <rdf:RDF>
      <cc:Work
         rdf:about="">
        <dc:format>image/svg+xml</dc:format>
        <dc:type
           rdf:resource="http://purl.org/dc/dcmitype/StillImage" />
        <dc:title />
      </cc:Work>
    </rdf:RDF>
  </metadata>
  <g
     inkscape:label="Capa 1"
     inkscape:groupmode="layer"
     id="layer1"
     transform="translate(-187.43913,-255.31069)">
    <g
       id="g6776"
       transform="matrix(1.3859641,0,0,1.3859641,-137.98948,-191.3349)">
      <path
         sodipodi:nodetypes="sssssss"
         inkscape:connector-curvature="0"
         id="circle4376"
         d="m 449.43526,481.78673 c 0,16.1267 -9.4254,41.3332 -24.6643,51.9015 -15.2389,10.5683 -36.2912,6.4984 -59.545,6.4984 -23.2537,0 -44.3061,4.0699 -59.5449,-6.4984 -15.23893,-10.5683 -24.66437,-35.7748 -24.66437,-51.9015 0,-32.2534 37.70177,-42.8436 84.20927,-42.8436 46.5075,0 84.2093,10.5902 84.2093,42.8436 z"
         style="opacity:1;fill:#1a1a1a;fill-opacity:1;stroke:#ffffff;stroke-width:3.5559516;stroke-miterlimit:4;stroke-dasharray:none;stroke-dashoffset:0;stroke-opacity:1" />
      <circle
         r="60.069107"
         cy="405.41913"
         cx="365.22598"
         id="path4374"
         style="opacity:1;fill:#1a1a1a;fill-opacity:1;stroke:#ffffff;stroke-width:3.04593778;stroke-miterlimit:4;stroke-dasharray:none;stroke-dashoffset:0;stroke-opacity:1" />
      <g
         style="font-style:normal;font-weight:normal;font-size:110.50226593px;line-height:125%;font-family:sans-serif;letter-spacing:0px;word-spacing:0px;fill:#ffffff;fill-opacity:1;stroke:none;stroke-width:1px;stroke-linecap:butt;stroke-linejoin:miter;stroke-opacity:1"
         id="text4379">
        <path
           d="m 362.57398,376.69891 q -7.29315,0 -14.25479,3.75708 l -2.87306,-7.95616 q 3.75708,-1.98904 8.39817,-3.20457 4.7516,-1.21552 10.05571,-1.21552 6.29863,0 10.27671,1.76803 4.08858,1.65754 6.51963,4.30959 2.43105,2.65205 3.31507,5.96712 0.99452,3.20457 0.99452,6.18813 0,3.75708 -1.43653,6.74064 -1.43653,2.87306 -3.53607,5.41461 -2.09954,2.54155 -4.64109,4.8621 -2.54156,2.32055 -4.6411,4.8621 -2.09954,2.43105 -3.53607,5.41461 -1.43653,2.87306 -1.43653,6.51963 0,0.55251 0,1.21553 0,0.66301 0.1105,1.21552 l -8.61918,0 q -0.44201,-2.21004 -0.44201,-4.64109 0,-3.53607 1.21553,-6.40913 1.32603,-2.87306 3.31507,-5.30411 1.98904,-2.54155 4.19908,-4.6411 2.21005,-2.21004 4.19909,-4.42009 1.98904,-2.21004 3.20457,-4.64109 1.32602,-2.43105 1.32602,-5.30411 0,-4.6411 -2.98356,-7.51416 -2.98356,-2.98356 -8.72968,-2.98356 z m 6.96165,63.75981 q 0,2.98356 -1.98905,5.19361 -1.98904,2.21004 -5.41461,2.21004 -3.42557,0 -5.41461,-2.21004 -1.98904,-2.21005 -1.98904,-5.19361 0,-2.98356 1.98904,-5.19361 1.98904,-2.21004 5.41461,-2.21004 3.42557,0 5.41461,2.21004 1.98905,2.21005 1.98905,5.19361 z"
           style="font-style:normal;font-variant:normal;font-weight:normal;font-stretch:normal;font-family:Ubuntu;-inkscape-font-specification:Ubuntu"
           id="path7467" />
      </g>
    </g>
  </g>
</svg>
