<svg id="Layer_4" data-name="Layer 4" xmlns="http://www.w3.org/2000/svg" viewBox="0 0 32 32"><title>Artboard 1</title><path d="M16,9.562a1.326,1.326,0,0,1,.878.332l3.015,2.667a5.5,5.5,0,0,1,1.874,3.894c0,.07,0,.141,0,.212a5.771,5.771,0,1,1-11.542-.078c0-.073,0-.146.007-.219a5.513,5.513,0,0,1,1.869-3.808l3.018-2.668A1.322,1.322,0,0,1,16,9.562Z" style="fill:#adadad"/><path d="M16,21.382H16a4.74,4.74,0,0,1-4.71-4.779q0-.09.006-.18a4.427,4.427,0,0,1,1.513-3.07l3.018-2.668a.27.27,0,0,1,.356,0l3.016,2.667a4.427,4.427,0,0,1,1.518,3.142c0,.057,0,.115,0,.173A4.715,4.715,0,0,1,16,21.382m-.008,2.112H16a6.835,6.835,0,0,0,6.827-6.827c0-.084,0-.167,0-.25a6.571,6.571,0,0,0-2.23-4.647L17.577,9.1a2.381,2.381,0,0,0-3.154,0l-3.017,2.668a6.567,6.567,0,0,0-2.224,4.545c0,.086-.007.172-.008.259a6.853,6.853,0,0,0,6.818,6.919Z"/><path d="M16,12.129,13.485,14.4a.691.691,0,0,0,.462,1.2h4.106a.691.691,0,0,0,.462-1.2Z"/></svg>