<svg id="Layer_2" data-name="Layer 2" xmlns="http://www.w3.org/2000/svg" viewBox="0 0 32 32"><title>Artboard 1</title><path d="M16,5.82A1.513,1.513,0,0,1,17,6.2l5.113,4.521A8.6,8.6,0,0,1,25.043,16.8c0,.109.006.22.006.331a9.049,9.049,0,1,1-18.1-.121c0-.116,0-.231.011-.345a8.6,8.6,0,0,1,2.921-5.942L15,6.2A1.511,1.511,0,0,1,16,5.82Z" style="fill:#7580af"/><path d="M16,25.124h-.009a8.037,8.037,0,0,1-7.984-8.1c0-.1.005-.2.01-.3a7.5,7.5,0,0,1,2.566-5.2L15.7,6.99a.457.457,0,0,1,.6,0l5.113,4.521a7.515,7.515,0,0,1,2.573,5.326c0,.1,0,.2,0,.293A7.993,7.993,0,0,1,16,25.124m0,2.111a10.116,10.116,0,0,0,10.105-10.1c0-.123,0-.247-.007-.37a9.65,9.65,0,0,0-3.285-6.83L17.7,5.409a2.566,2.566,0,0,0-3.4,0L9.184,9.932A9.66,9.66,0,0,0,5.908,16.61c-.006.127-.01.257-.012.385a10.147,10.147,0,0,0,10.093,10.24Z"/><path d="M16,9.438l-4.264,3.841a1.171,1.171,0,0,0,.784,2.041h6.96a1.171,1.171,0,0,0,.784-2.041Z"/></svg>