<?xml version="1.0" encoding="utf-8"?>
<!-- Generator: Adobe Illustrator 23.1.1, SVG Export Plug-In . SVG Version: 6.00 Build 0)  -->
<svg version="1.1" id="Layer_2" xmlns="http://www.w3.org/2000/svg" xmlns:xlink="http://www.w3.org/1999/xlink" x="0px" y="0px"
	 viewBox="0 0 32 32" style="enable-background:new 0 0 32 32;" xml:space="preserve">
<style type="text/css">
	.st0{fill:#919191;}
</style>
<g>
	<path class="st0" d="M1.9,17C1.4,17,1,16.6,1,16.1v-0.9c0-0.5,0.4-0.9,0.9-0.9h3.4c0.5,0,0.9,0.4,0.9,0.9v0.9
		c0,0.5-0.4,0.9-0.9,0.9H1.9z"/>
	<path d="M5.3,15.2v0.9H1.9v-0.9H5.3 M5.3,13.3H1.9c-1,0-1.8,0.8-1.8,1.8v0.9c0,1,0.8,1.8,1.8,1.8h3.4c1,0,1.8-0.8,1.8-1.8v-0.9
		C7.1,14.1,6.3,13.3,5.3,13.3L5.3,13.3z"/>
</g>
<g>
	<path class="st0" d="M26.4,17c-0.5,0-0.9-0.4-0.9-0.9v-0.9c0-0.5,0.4-0.9,0.9-0.9h3.7c0.5,0,0.9,0.4,0.9,0.9v0.9
		c0,0.5-0.4,0.9-0.9,0.9H26.4z"/>
	<path d="M30.1,15.2v0.9h-3.7v-0.9H30.1 M30.1,13.3h-3.7c-1,0-1.8,0.8-1.8,1.8v0.9c0,1,0.8,1.8,1.8,1.8h3.7c1,0,1.8-0.8,1.8-1.8
		v-0.9C31.9,14.1,31.1,13.3,30.1,13.3L30.1,13.3z"/>
</g>
<path d="M12.1,11.3c1,0,1.8,0.8,1.8,1.8s-0.8,1.8-1.8,1.8s-1.8-0.8-1.8-1.8S11.1,11.3,12.1,11.3 M12.1,9.3c-2.1,0-3.8,1.7-3.8,3.8
	c0,2.1,1.7,3.8,3.8,3.8c2.1,0,3.8-1.7,3.8-3.8C16,11,14.2,9.3,12.1,9.3L12.1,9.3z"/>
<path class="st0" d="M8.4,23.3c-1.2,0-2.2-1-2.2-2.2v-11c0-1.2,1-2.2,2.2-2.2h14.8c1.2,0,2.2,1,2.2,2.2v11c0,1.2-1,2.2-2.2,2.2H8.4z
	 M9.6,19.2l2.2-3c0.2-0.3,0.6-0.5,0.9-0.5c0.3,0,0.6,0.1,0.8,0.3l2,1.9l3.9-5.1c0.2-0.3,0.6-0.5,0.9-0.5c0.3,0,0.7,0.1,0.9,0.4
	l0.9,1v-2.6H9.6V19.2z"/>
<path d="M23.2,8.9c0.7,0,1.2,0.6,1.2,1.2v11c0,0.7-0.6,1.2-1.2,1.2H8.4c-0.7,0-1.2-0.6-1.2-1.2v-11c0-0.7,0.6-1.2,1.2-1.2H23.2
	 M8.7,20.8h0.9l2.9-4c0-0.1,0.1-0.1,0.2-0.1c0.1,0,0.1,0,0.2,0.1l2.8,2.6l4.5-5.9c0-0.1,0.1-0.1,0.2-0.1c0.1,0,0.1,0,0.2,0.1
	l2.5,2.9v-6H8.7V20.8 M23.2,7H8.4c-1.7,0-3.1,1.4-3.1,3.1v11c0,1.7,1.4,3.1,3.1,3.1h14.8c1.7,0,3.1-1.4,3.1-3.1v-11
	C26.3,8.4,24.9,7,23.2,7L23.2,7z M10.5,12.2h8.3c-0.1,0.1-0.1,0.1-0.2,0.2l-3.3,4.3l-1.3-1.2c-0.4-0.4-0.9-0.6-1.4-0.6
	c-0.7,0-1.3,0.3-1.7,0.9l-0.5,0.7V12.2L10.5,12.2z"/>
<path class="st0" d="M12.1,15c-1.1,0-1.9-0.9-1.9-1.9s0.9-1.9,1.9-1.9s1.9,0.9,1.9,1.9S13.2,15,12.1,15z"/>
</svg>
