<svg id="Layer_3" data-name="Layer 3" xmlns="http://www.w3.org/2000/svg" viewBox="0 0 32 32"><title>Artboard 1</title><path d="M27.789,9.449,24.08,15.235v4.5a2.818,2.818,0,0,1-2.815,2.814H10.735A2.818,2.818,0,0,1,7.92,19.737v-4.5L4.211,9.449Z" style="fill:#fff78f"/><path d="M10.735,21.523a1.786,1.786,0,0,1-1.786-1.786v-4.8L6.091,10.477H25.909l-2.858,4.457v4.8a1.786,1.786,0,0,1-1.786,1.786H10.735m0,2.057h10.53a3.847,3.847,0,0,0,3.843-3.843v-4.2l2.532-3.95L29.67,8.42H2.33l2.03,3.167,2.532,3.95v4.2a3.847,3.847,0,0,0,3.843,3.843Z"/></svg>