<?xml version="1.0"?>
<svg xmlns="http://www.w3.org/2000/svg" viewBox="0 0 24 24">
    <path style="text-indent:0;text-align:start;line-height:normal;text-transform:none;block-progression:tb;-inkscape-font-specification:Sans" d="M 7 1 C 5.3550302 1 4 2.3550302 4 4 L 4 5 L 4 7 L 4 9.1875 L 6 8.75 L 6 7 L 6 5 L 6 4 C 6 3.4349698 6.4349698 3 7 3 L 17 3 C 17.56503 3 18 3.4349698 18 4 L 18 7 L 18 8.75 L 20 9.1875 L 20 5 L 20 4 C 20 2.3550302 18.64497 1 17 1 L 7 1 z M 8.9375 5 L 8 9 L 7 10 L 2 11 L 2 19 L 7 17 L 8 18 L 8.9375 22 L 15.0625 22 L 16 18 L 17 17 L 22 19 L 22 11 L 17 10 L 16 9 L 15.0625 5 L 8.9375 5 z M 12 11 C 14.034 11 15.6875 12.442 15.6875 14.375 C 15.6875 16.308 14.033 18 12 18 C 9.967 18 8.3125 16.433 8.3125 14.5 C 8.3125 12.567 9.966 11 12 11 z" overflow="visible" font-family="Sans"/>
</svg>
