<?xml version="1.0"?>
<svg xmlns="http://www.w3.org/2000/svg" viewBox="0 0 24 24">
    <path d="M 7 2 C 5.3550302 2 4 3.3550302 4 5 L 4 11 L 4 12 L 6 12 L 6.6875 10 L 6 10 L 6 5 C 6 4.4349698 6.4349698 4 7 4 L 17 4 C 17.56503 4 18 4.4349698 18 5 L 18 10 L 17.3125 10 L 18 12 L 20 12 L 20 11 L 20 10 L 20 5 C 20 3.3550302 18.64497 2 17 2 L 7 2 z M 12 5 C 10.916 5 10.0215 5.60325 9.8125 6.40625 C 9.7985 6.46025 9.61425 7.0305 9.40625 7.6875 C 10.13525 7.2635 11.024 7 12 7 C 12.977 7 13.86475 7.2635 14.59375 7.6875 C 14.38575 7.0305 14.2015 6.45925 14.1875 6.40625 C 13.9785 5.60325 13.084 5 12 5 z M 12 8 C 9.881 8 8.12775 9.18 7.71875 10.75 C 7.672124 10.930676 6.8682432 12.980119 6.28125 14.84375 C 6.2674065 14.884038 6.2628531 14.928046 6.25 14.96875 C 6.2459914 14.981629 6.2227365 14.987144 6.21875 15 C 6.0731134 15.473707 6 15.979768 6 16.5 C 6 19.58577 8.7521801 22 12 22 C 15.24782 22 18 19.58577 18 16.5 C 18 15.979768 17.926887 15.473707 17.78125 15 C 17.78125 15 17.751389 14.97061 17.75 14.96875 C 17.737147 14.928046 17.732593 14.884038 17.71875 14.84375 C 17.131919 12.980119 16.327876 10.930676 16.28125 10.75 C 15.87225 9.18 14.119 8 12 8 z M 12 13 C 14.275028 13 16 14.615208 16 16.5 C 16 18.384792 14.275028 20 12 20 C 9.7249725 20 8 18.384792 8 16.5 C 8 14.615208 9.7249725 13 12 13 z M 12 14.34375 C 11.447715 14.34375 11 14.696197 11 15.15625 C 11 15.616303 11.447715 16 12 16 C 12.552285 16 13 15.616303 13 15.15625 C 13 14.696197 12.552285 14.34375 12 14.34375 z"/>
</svg>
