<svg id="Layer_1" data-name="Layer 1" xmlns="http://www.w3.org/2000/svg" viewBox="0 0 32 32"><title>Artboard 1</title><path d="M19.694,24.317a5.638,5.638,0,0,1-3.375-1.455c-.118-.088-.4-.3-.619-.444-.212.141-.48.341-.591.425a5.713,5.713,0,0,1-3.424,1.474c-1.347,0-2.745-.75-4.823-2.588a2.345,2.345,0,0,1,3.105-3.514,11.6,11.6,0,0,0,1.71,1.321c.149-.1.357-.248.621-.446a5.65,5.65,0,0,1,3.391-1.462,5.724,5.724,0,0,1,3.438,1.479c.134.1.428.32.639.457.244-.147.648-.466.911-.674.332-.263.689-.545,1.085-.827a2.345,2.345,0,1,1,2.721,3.819c-.323.23-.614.461-.886.677A6.2,6.2,0,0,1,19.694,24.317Z"/><path d="M19.694,14.317a5.638,5.638,0,0,1-3.375-1.455c-.118-.088-.4-.3-.619-.444-.212.141-.48.341-.591.425a5.713,5.713,0,0,1-3.424,1.474c-1.347,0-2.745-.75-4.823-2.588A2.345,2.345,0,0,1,9.967,8.215a11.6,11.6,0,0,0,1.71,1.321c.149-.1.357-.248.621-.446a5.65,5.65,0,0,1,3.391-1.462,5.724,5.724,0,0,1,3.438,1.479c.134.1.428.32.639.457.244-.147.648-.466.911-.674.332-.263.689-.545,1.085-.827a2.345,2.345,0,1,1,2.721,3.819c-.323.23-.614.461-.886.677A6.2,6.2,0,0,1,19.694,14.317Z"/><path d="M23.122,8.627a1.345,1.345,0,0,1,.781,2.441c-.343.244-.65.488-.937.715a5.24,5.24,0,0,1-3.272,1.534,4.779,4.779,0,0,1-2.777-1.256,4.032,4.032,0,0,0-1.228-.744,4.188,4.188,0,0,0-1.179.726,4.852,4.852,0,0,1-2.825,1.274c-1.078,0-2.284-.677-4.161-2.337A1.345,1.345,0,0,1,9.305,8.965c1.719,1.52,2.3,1.652,2.4,1.663a4.361,4.361,0,0,0,1.2-.738,4.8,4.8,0,0,1,2.792-1.262,4.872,4.872,0,0,1,2.84,1.28,4.3,4.3,0,0,0,1.166.72c.377,0,.855-.363,1.6-.954.32-.253.664-.525,1.046-.8a1.334,1.334,0,0,1,.779-.25m0-2h0a3.321,3.321,0,0,0-1.941.622c-.435.31-.819.614-1.127.858-.075.06-.179.142-.289.227l-.038-.028a6.645,6.645,0,0,0-4.038-1.678A6.565,6.565,0,0,0,11.7,8.289l-.037.028c-.253-.189-.591-.461-1.031-.85A3.345,3.345,0,1,0,6.2,12.479c1.926,1.7,3.6,2.838,5.485,2.838A6.607,6.607,0,0,0,15.7,13.649l.016.012a6.552,6.552,0,0,0,3.977,1.656,7.079,7.079,0,0,0,4.511-1.964c.272-.216.549-.436.858-.656a3.345,3.345,0,0,0-1.941-6.07Z"/><path d="M19.694,19.317a5.638,5.638,0,0,1-3.375-1.455c-.118-.088-.4-.3-.619-.444-.212.141-.48.341-.591.425a5.713,5.713,0,0,1-3.424,1.474c-1.347,0-2.745-.75-4.823-2.588a2.345,2.345,0,0,1,3.105-3.514,11.6,11.6,0,0,0,1.71,1.321c.149-.1.357-.248.621-.446a5.65,5.65,0,0,1,3.391-1.462,5.724,5.724,0,0,1,3.438,1.479c.134.1.428.32.639.457.244-.147.648-.466.911-.674.332-.263.689-.545,1.085-.827a2.327,2.327,0,0,1,1.359-.435,2.344,2.344,0,0,1,1.362,4.254c-.323.23-.614.461-.886.677A6.2,6.2,0,0,1,19.694,19.317Z"/><path d="M23.121,13.628a1.344,1.344,0,0,1,.782,2.44c-.343.244-.65.488-.937.715a5.24,5.24,0,0,1-3.272,1.534,4.779,4.779,0,0,1-2.777-1.256,4.032,4.032,0,0,0-1.228-.744,4.188,4.188,0,0,0-1.179.726,4.852,4.852,0,0,1-2.825,1.274c-1.078,0-2.284-.677-4.161-2.337a1.345,1.345,0,0,1,1.781-2.015c1.719,1.52,2.3,1.652,2.4,1.663a4.361,4.361,0,0,0,1.2-.738,4.8,4.8,0,0,1,2.792-1.262,4.872,4.872,0,0,1,2.84,1.28,4.3,4.3,0,0,0,1.166.72c.377,0,.855-.363,1.6-.954.32-.253.664-.525,1.046-.8a1.337,1.337,0,0,1,.778-.249m0-2h0a3.319,3.319,0,0,0-1.94.621c-.435.31-.819.614-1.127.858-.075.06-.179.142-.289.227l-.038-.028a6.645,6.645,0,0,0-4.038-1.678A6.565,6.565,0,0,0,11.7,13.289l-.037.028c-.253-.189-.591-.461-1.031-.85A3.345,3.345,0,1,0,6.2,17.479c1.926,1.7,3.6,2.838,5.485,2.838A6.607,6.607,0,0,0,15.7,18.649l.016.012a6.552,6.552,0,0,0,3.977,1.656,7.079,7.079,0,0,0,4.511-1.964c.272-.216.549-.436.858-.656a3.344,3.344,0,0,0-1.942-6.069Z"/><path d="M23.121,18.627a1.345,1.345,0,0,1,.782,2.441c-.343.244-.65.488-.937.715a5.24,5.24,0,0,1-3.272,1.534,4.779,4.779,0,0,1-2.777-1.256,4.032,4.032,0,0,0-1.228-.744,4.188,4.188,0,0,0-1.179.726,4.852,4.852,0,0,1-2.825,1.274c-1.078,0-2.284-.677-4.161-2.337a1.345,1.345,0,0,1,1.781-2.015c1.719,1.52,2.3,1.652,2.4,1.663a4.361,4.361,0,0,0,1.2-.738,4.8,4.8,0,0,1,2.792-1.262,4.872,4.872,0,0,1,2.84,1.28,4.3,4.3,0,0,0,1.166.72c.377,0,.855-.363,1.6-.954.32-.253.664-.525,1.046-.8a1.331,1.331,0,0,1,.778-.25m0-2h0a3.317,3.317,0,0,0-1.941.623c-.434.309-.817.613-1.126.857-.075.06-.179.142-.289.227l-.038-.028a6.645,6.645,0,0,0-4.038-1.678A6.565,6.565,0,0,0,11.7,18.289l-.037.028c-.253-.189-.591-.461-1.031-.85A3.345,3.345,0,1,0,6.2,22.479c1.926,1.7,3.6,2.838,5.485,2.838A6.607,6.607,0,0,0,15.7,23.649l.016.012a6.552,6.552,0,0,0,3.977,1.656,7.079,7.079,0,0,0,4.511-1.964c.272-.216.549-.436.858-.656a3.345,3.345,0,0,0-1.942-6.07Z"/><path d="M19.694,13.317a4.782,4.782,0,0,1-2.776-1.256,4.044,4.044,0,0,0-1.228-.744,4.191,4.191,0,0,0-1.18.726,4.849,4.849,0,0,1-2.824,1.274c-1.077,0-2.283-.677-4.162-2.337A1.345,1.345,0,0,1,9.306,8.964c1.72,1.521,2.3,1.653,2.4,1.664a4.411,4.411,0,0,0,1.2-.738A4.805,4.805,0,0,1,15.69,8.627a4.87,4.87,0,0,1,2.84,1.281,4.277,4.277,0,0,0,1.166.719c.376,0,.854-.362,1.6-.953.32-.254.664-.525,1.046-.8a1.344,1.344,0,1,1,1.56,2.19c-.342.245-.65.489-.937.716A5.24,5.24,0,0,1,19.694,13.317Z" style="fill:#919191"/><path d="M19.694,18.317a4.782,4.782,0,0,1-2.776-1.256,4.044,4.044,0,0,0-1.228-.744,4.191,4.191,0,0,0-1.18.726,4.849,4.849,0,0,1-2.824,1.274c-1.077,0-2.283-.677-4.162-2.337a1.345,1.345,0,0,1,1.782-2.016c1.72,1.521,2.3,1.653,2.4,1.664a4.411,4.411,0,0,0,1.2-.738,4.805,4.805,0,0,1,2.793-1.263,4.87,4.87,0,0,1,2.84,1.281,4.277,4.277,0,0,0,1.166.719c.376,0,.854-.362,1.6-.953.32-.254.664-.525,1.046-.8a1.344,1.344,0,1,1,1.56,2.19c-.342.245-.65.489-.937.716A5.24,5.24,0,0,1,19.694,18.317Z" style="fill:#919191"/><path d="M19.694,23.317a4.782,4.782,0,0,1-2.776-1.256,4.044,4.044,0,0,0-1.228-.744,4.191,4.191,0,0,0-1.18.726,4.849,4.849,0,0,1-2.824,1.274c-1.077,0-2.283-.677-4.162-2.337a1.345,1.345,0,0,1,1.782-2.016c1.72,1.521,2.3,1.653,2.4,1.664a4.411,4.411,0,0,0,1.2-.738,4.805,4.805,0,0,1,2.793-1.263,4.87,4.87,0,0,1,2.84,1.281,4.277,4.277,0,0,0,1.166.719c.376,0,.854-.362,1.6-.953.32-.254.664-.525,1.046-.8a1.344,1.344,0,1,1,1.56,2.19c-.342.245-.65.489-.937.716A5.24,5.24,0,0,1,19.694,23.317Z" style="fill:#919191"/></svg>