<svg id="Layer_15" data-name="Layer 15" xmlns="http://www.w3.org/2000/svg" viewBox="0 0 32 32"><title>Artboard 1</title><path d="M26.213,12.787A13.051,13.051,0,0,1,18.6,18.122a8.946,8.946,0,0,1-5.4,0,13.053,13.053,0,0,1-7.6-5.326.9.9,0,0,0-.394.73c0,1.873,4.861,6.838,10.7,6.838S26.6,15.4,26.6,13.525A.922.922,0,0,0,26.213,12.787Z" style="fill:#fff;opacity:0.39"/><g style="opacity:0.39"><path d="M27.76,21.036a.852.852,0,0,1-.563-.212l-1.814-1.6a.852.852,0,1,1,1.125-1.279l1.814,1.6a.852.852,0,0,1-.562,1.491Z" style="fill:#fff"/></g><g style="opacity:0.39"><path d="M22.636,24.46a.85.85,0,0,1-.78-.513l-.912-2.1a.851.851,0,0,1,1.562-.677l.911,2.1a.852.852,0,0,1-.781,1.19Z" style="fill:#fff"/></g><g style="opacity:0.39"><path d="M16.36,25.772l-.057,0a.851.851,0,0,1-.793-.905l.148-2.245a.851.851,0,1,1,1.7.113l-.147,2.244A.851.851,0,0,1,16.36,25.772Z" style="fill:#fff"/></g><g style="opacity:0.39"><path d="M10.011,24.745a.852.852,0,0,1-.732-1.285l1.183-2a.851.851,0,0,1,1.465.867l-1.182,2A.851.851,0,0,1,10.011,24.745Z" style="fill:#fff"/></g><g style="opacity:0.39"><path d="M4.7,21.556a.851.851,0,0,1-.489-1.549L6.218,18.6A.851.851,0,0,1,7.193,20L5.181,21.4A.849.849,0,0,1,4.7,21.556Z" style="fill:#fff"/></g></svg>