<?xml version="1.0" encoding="utf-8"?>
<!-- Generator: Adobe Illustrator 23.1.1, SVG Export Plug-In . SVG Version: 6.00 Build 0)  -->
<svg version="1.1" id="Layer_3" xmlns="http://www.w3.org/2000/svg" xmlns:xlink="http://www.w3.org/1999/xlink" x="0px" y="0px"
	 viewBox="0 0 32 32" style="enable-background:new 0 0 32 32;" xml:space="preserve">
<style type="text/css">
	.st0{opacity:0.39;fill:#FFFFFF;}
</style>
<polygon class="st0" points="32,15 29.7,15 29.7,12.8 27.7,12.8 27.7,15 25.4,15 25.4,17.1 27.7,17.1 27.7,19.4 29.7,19.4 
	29.7,17.1 32,17.1 "/>
<path class="st0" d="M21.5,7.3H1.7C0.8,7.3,0.1,8,0.1,8.9v14.7c0,0.9,0.7,1.7,1.7,1.7h19.8c0.9,0,1.7-0.7,1.7-1.7V8.9
	C23.2,8,22.4,7.3,21.5,7.3z M2.1,9.3h19.1v8.1l-3.3-3.9c-0.1-0.2-0.4-0.1-0.5,0l-6,7.9l-3.7-3.5c-0.1-0.1-0.4-0.1-0.5,0l-3.9,5.4
	H2.1V9.3z"/>
<circle class="st0" cx="6.7" cy="12.9" r="2.2"/>
</svg>
