<svg id="Layer_7" data-name="Layer 7" xmlns="http://www.w3.org/2000/svg" viewBox="0 0 32 32"><title>Artboard 1</title><polygon points="31.027 20.931 28.76 20.931 28.76 18.664 26.713 18.664 26.713 20.931 24.446 20.931 24.446 22.978 26.713 22.978 26.713 25.245 28.76 25.245 28.76 22.978 31.027 22.978 31.027 20.931" style="fill:#fff;opacity:0.39"/><path d="M20.145,13.155H7.855A1.761,1.761,0,0,0,6.1,14.911v9.13A1.761,1.761,0,0,0,7.855,25.8h12.29A1.761,1.761,0,0,0,21.9,24.041v-9.13A1.761,1.761,0,0,0,20.145,13.155Zm.7,9.13H7.153V14.56H20.847Z" style="fill:#fff;opacity:0.39"/><path d="M27.59,16.544l3.738-4.74H28.869c-.015-2.251-.3-6.672-5.793-6.672H19.741c-1.733,0-2.107-.467-2.107-2.633H15.175c0,1.392,0,5.091,4.566,5.091h3.335c2.5,0,3.28.962,3.331,4.214H23.851Z" style="fill:#fff;opacity:0.39"/><rect x="7.153" y="14.56" width="13.695" height="7.725" style="fill:#fff;opacity:0.14"/></svg>