<svg id="Layer_1" data-name="Layer 1" xmlns="http://www.w3.org/2000/svg" viewBox="0 0 32 32"><title>Artboard 1</title><g style="opacity:0.38999998569488525;isolation:isolate"><path d="M20.571,13.845a4.783,4.783,0,0,1-2.777-1.257,4.046,4.046,0,0,0-1.228-.743,4.2,4.2,0,0,0-1.179.725,4.85,4.85,0,0,1-2.825,1.275c-1.078,0-2.284-.678-4.161-2.338a1.345,1.345,0,1,1,1.782-2.014c1.718,1.52,2.3,1.652,2.4,1.663a4.379,4.379,0,0,0,1.195-.739,4.8,4.8,0,0,1,2.792-1.262,4.867,4.867,0,0,1,2.84,1.281,4.282,4.282,0,0,0,1.166.719c.377,0,.855-.362,1.6-.953.32-.254.664-.525,1.046-.8a1.344,1.344,0,1,1,1.56,2.19c-.342.244-.65.488-.937.716A5.24,5.24,0,0,1,20.571,13.845Z" style="fill:#fff"/></g><g style="opacity:0.38999998569488525;isolation:isolate"><path d="M20.571,18.845a4.783,4.783,0,0,1-2.777-1.257,4.066,4.066,0,0,0-1.228-.743,4.228,4.228,0,0,0-1.179.725,4.844,4.844,0,0,1-2.825,1.275c-1.078,0-2.284-.677-4.161-2.337a1.345,1.345,0,1,1,1.782-2.015c1.718,1.52,2.3,1.652,2.4,1.663a4.379,4.379,0,0,0,1.195-.739,4.8,4.8,0,0,1,2.792-1.262,4.867,4.867,0,0,1,2.84,1.281,4.257,4.257,0,0,0,1.166.719c.377,0,.855-.362,1.6-.953.32-.254.664-.525,1.046-.8A1.345,1.345,0,1,1,24.78,16.6c-.342.243-.65.487-.937.715A5.24,5.24,0,0,1,20.571,18.845Z" style="fill:#fff"/></g><g style="opacity:0.38999998569488525;isolation:isolate"><path d="M20.571,23.845a4.783,4.783,0,0,1-2.777-1.257,4.066,4.066,0,0,0-1.228-.743,4.228,4.228,0,0,0-1.179.725,4.844,4.844,0,0,1-2.825,1.275c-1.078,0-2.284-.677-4.161-2.337a1.345,1.345,0,1,1,1.782-2.016c1.718,1.521,2.3,1.653,2.4,1.664a4.371,4.371,0,0,0,1.195-.738,4.8,4.8,0,0,1,2.792-1.263,4.867,4.867,0,0,1,2.84,1.281,4.282,4.282,0,0,0,1.166.719c.377,0,.855-.362,1.6-.953.32-.254.664-.525,1.046-.8A1.345,1.345,0,1,1,24.78,21.6c-.342.243-.65.487-.937.715A5.24,5.24,0,0,1,20.571,23.845Z" style="fill:#fff"/></g></svg>