<svg id="Layer_5" data-name="Layer 5" xmlns="http://www.w3.org/2000/svg" viewBox="0 0 32 32"><title>Artboard 1</title><circle cx="12.18" cy="15.868" r="4.103" style="fill:#fff;opacity:0.39"/><polygon points="32 15.046 29.733 15.046 29.733 12.779 27.686 12.779 27.686 15.046 25.419 15.046 25.419 17.094 27.686 17.094 27.686 19.36 29.733 19.36 29.733 17.094 32 17.094 32 15.046" style="fill:#fff;opacity:0.39"/><rect x="10.641" y="5.912" width="3.077" height="4.616" rx="1.539" ry="1.539" style="fill:#fff;opacity:0.39"/><rect x="5.234" y="8.152" width="3.077" height="4.616" rx="1.539" ry="1.539" transform="translate(-5.413 7.852) rotate(-45)" style="fill:#fff;opacity:0.39"/><rect x="2.993" y="13.56" width="3.077" height="4.616" rx="1.539" ry="1.539" transform="translate(-11.336 20.4) rotate(-90)" style="fill:#fff;opacity:0.39"/><rect x="5.234" y="18.968" width="3.077" height="4.616" rx="1.539" ry="1.539" transform="translate(-3.483 41.108) rotate(-135)" style="fill:#fff;opacity:0.39"/><rect x="10.641" y="21.208" width="3.077" height="4.616" rx="1.539" ry="1.539" transform="translate(24.36 47.031) rotate(180)" style="fill:#fff;opacity:0.39"/><rect x="16.049" y="18.968" width="3.077" height="4.616" rx="1.539" ry="1.539" transform="translate(45.069 23.883) rotate(135)" style="fill:#fff;opacity:0.39"/><rect x="18.289" y="13.56" width="3.077" height="4.616" rx="1.539" ry="1.539" transform="translate(35.696 -3.96) rotate(90)" style="fill:#fff;opacity:0.39"/><rect x="16.049" y="8.152" width="3.077" height="4.616" rx="1.539" ry="1.539" transform="translate(12.548 -9.373) rotate(45)" style="fill:#fff;opacity:0.39"/></svg>