<svg id="Layer_12" data-name="Layer 12" xmlns="http://www.w3.org/2000/svg" viewBox="0 0 32 32"><title>Artboard 1</title><circle cx="16" cy="16" r="4.103" style="fill:#fff;opacity:0.39"/><rect x="14.461" y="6.044" width="3.077" height="4.616" rx="1.539" ry="1.539" style="fill:#fff;opacity:0.39"/><rect x="9.053" y="8.284" width="3.077" height="4.616" rx="1.539" ry="1.539" transform="translate(-4.387 10.592) rotate(-45)" style="fill:#fff;opacity:0.39"/><rect x="6.813" y="13.692" width="3.077" height="4.616" rx="1.539" ry="1.539" transform="translate(-7.648 24.352) rotate(-90)" style="fill:#fff;opacity:0.39"/><rect x="9.053" y="19.1" width="3.077" height="4.616" rx="1.539" ry="1.539" transform="translate(2.944 44.035) rotate(-135)" style="fill:#fff;opacity:0.39"/><rect x="14.461" y="21.34" width="3.077" height="4.616" rx="1.539" ry="1.539" transform="translate(32 47.296) rotate(-180)" style="fill:#fff;opacity:0.39"/><rect x="19.869" y="19.1" width="3.077" height="4.616" rx="1.539" ry="1.539" transform="translate(51.683 21.408) rotate(135)" style="fill:#fff;opacity:0.39"/><rect x="22.109" y="13.692" width="3.077" height="4.616" rx="1.539" ry="1.539" transform="translate(39.648 -7.648) rotate(90)" style="fill:#fff;opacity:0.39"/><rect x="19.869" y="8.284" width="3.077" height="4.616" rx="1.539" ry="1.539" transform="translate(13.76 -12.035) rotate(45)" style="fill:#fff;opacity:0.39"/></svg>