<svg width="32" height="32" viewBox="0 0 32 32" xmlns="http://www.w3.org/2000/svg">
    <g fill="#FFF" fill-rule="evenodd" opacity=".39">
        <path d="M28.811 7.535c1.528.82 2.204 2.298 2.028 4.43l-1.19 6.121c-.492 2.53-6.245 9.03-9.963 8.308-3.717-.722-7.766-8.678-7.19-11.642l1.19-6.12c.415-2.138 2.187-3.158 3.744-3.31 4.684-.105 7.39.504 11.381 2.213zm-3.075 10.917c-.727.582-3.424.902-5.124.572-1.7-.33-3.769-1.24-4.286-2.02-.25 1.839 2.476 4.498 4.163 4.826 1.25.243 3.82-1.114 4.624-2.127.281-.353.497-.773.623-1.251zM18.69 9.561c-1.705-.331-2.244 1.73-2.348 2.25.61-.215.976-.44 1.959-.25.982.191 1.313.255 1.859.992.118-.607.234-2.66-1.47-2.992zm7.149 1.39c-1.705-.332-2.244 1.73-2.348 2.25.61-.216.977-.441 1.959-.25.982.19 1.313.254 1.859.992.118-.608.235-2.661-1.47-2.992z"/>
        <path d="M2.958 7.771l.03-.014c3.978-1.968 6.931-2.818 9.52-2.388l.079.014-.255 1.477c-1.703-.3-3.71.091-6.26 1.135l-.2.083-.201.085c-.17.072-.341.147-.515.225l-.21.095c-.352.16-.713.33-1.085.511l-.193.095-.008.005c-.888.558-1.252 1.454-1.094 2.822l.008.065 1.2 4.879c.04.156.146.358.31.593l.047.068c.075.104.16.213.253.327l.064.077.067.078.034.04.07.08.074.08.075.083.039.041.079.084.04.043.083.085.042.043.086.086.088.088.09.088.092.088.094.09.096.09.097.09.05.045.1.09.102.091.052.046.104.091.106.092.053.045.108.092.055.045.11.091.111.091a22 22 0 0 0 .056.046l.113.09.115.091.115.09.116.09.059.044.118.089.118.088.12.087.12.087c1.035.74 2.043 1.32 2.868 1.641.413.16.767.25 1.042.269.205.014.334-.013.4-.056l.008-.007.892 1.199c-.56.427-1.307.466-2.209.218l-.099-.028a7.104 7.104 0 0 1-.565-.195c-.93-.361-2.011-.979-3.112-1.76l-.15-.106-.136-.099a24.287 24.287 0 0 1-.067-.05l-.135-.1-.134-.1-.133-.102a23.934 23.934 0 0 1-.066-.05l-.13-.103-.13-.103a23.378 23.378 0 0 1-.065-.051l-.127-.103a22.936 22.936 0 0 1-.064-.052l-.125-.104-.124-.104-.061-.052-.122-.104-.12-.104-.059-.052-.117-.105-.058-.052-.114-.104-.112-.105-.11-.104-.11-.104-.106-.104-.104-.103-.102-.103c-.908-.926-1.54-1.802-1.702-2.459l-1.22-4.96-.006-.04c-.263-1.985.33-3.502 1.775-4.407l.072-.044z" fill-rule="nonzero"/>
        <path d="M11.78 17.795c-1.065.23-2.877 1.086-3.156 1.602a2.129 2.129 0 0 1 .055-.877c.219-.785 1.771-2.354 2.555-2.523.082.787.051 1.194.546 1.798zM9.18 10.839c-.39.356-.593.642-1.389.813-.796.171-1.063.23-1.705-.147.103.492.664 2.065 2.045 1.768 1.382-.297 1.134-2.012 1.048-2.434z"/>
    </g>
</svg>
