<svg id="Layer_7" data-name="Layer 7" xmlns="http://www.w3.org/2000/svg" viewBox="0 0 32 32"><title>Artboard 1TIMELINE</title><ellipse cx="8.092" cy="4.875" rx="2.198" ry="2.187" transform="translate(-1.077 7.15) rotate(-45)" style="fill:#fff;opacity:0.39"/><path d="M5.428,7.7H4.88A2.116,2.116,0,0,0,2.764,9.811h0v7.165a1.048,1.048,0,0,0,.987,1.061A1.019,1.019,0,0,0,4.8,17.018V11.143h.627V28.094a1.207,1.207,0,0,0,1.139,1.224,1.174,1.174,0,0,0,1.211-1.174V18.037H8.4V28.094a1.207,1.207,0,0,0,1.139,1.224,1.175,1.175,0,0,0,1.212-1.174v-17h.626v5.833a1.048,1.048,0,0,0,.987,1.061,1.019,1.019,0,0,0,1.05-1.019V9.811h0A2.115,2.115,0,0,0,11.3,7.7H5.428Z" style="fill:#fff;opacity:0.39"/><ellipse cx="22.821" cy="4.875" rx="2.198" ry="2.187" transform="translate(3.237 17.564) rotate(-45)" style="fill:#fff;opacity:0.39"/><path d="M29.2,15.764,27.171,8.442a1.016,1.016,0,0,0-.9-.742v0H19.53v0a1.017,1.017,0,0,0-.9.742L16.6,15.764a1.047,1.047,0,0,0,.659,1.284,1.017,1.017,0,0,0,1.292-.7l1.441-5.207h.5L18.12,20.074h2.037v8.02A1.207,1.207,0,0,0,21.3,29.318a1.174,1.174,0,0,0,1.211-1.174v-8.07h.627v8.02a1.207,1.207,0,0,0,1.139,1.224,1.175,1.175,0,0,0,1.212-1.174v-8.07h2.037L25.26,11.143h.545l1.44,5.207a1.017,1.017,0,0,0,1.292.7A1.047,1.047,0,0,0,29.2,15.764Z" style="fill:#fff;opacity:0.39"/></svg>