<svg id="Layer_4" data-name="Layer 4" xmlns="http://www.w3.org/2000/svg" viewBox="0 0 32 32"><title>Artboard 1TIMELINE</title><g style="opacity:0.38999998569488525;isolation:isolate"><path d="M17.07,19.079a3.736,3.736,0,0,0-1.07.9,3.736,3.736,0,0,0-1.07-.9C10.272,16.362,8.409,25.1,2.055,24.1c0,0,3.807,3.415,7.859,3.009A8.249,8.249,0,0,0,16,23.48a8.249,8.249,0,0,0,6.086,3.625c4.052.406,7.859-3.009,7.859-3.009C23.591,25.1,21.728,16.362,17.07,19.079Z" style="fill:#fff"/><path d="M29.2,8.732h-.755A5.963,5.963,0,0,0,17.908,7.509H14.3A5.963,5.963,0,0,0,3.755,8.732H2.8A1.053,1.053,0,0,0,1.744,9.783v1.068A1.053,1.053,0,0,0,2.8,11.9h.677a5.965,5.965,0,0,0,11.832-1.077,3.616,3.616,0,0,0-.037-.553h1.657c-.017.185-.026.371-.026.553A5.965,5.965,0,0,0,28.731,11.9H29.2a1.053,1.053,0,0,0,1.052-1.052V9.783A1.053,1.053,0,0,0,29.2,8.732ZM9.668,14.83h0a4.017,4.017,0,0,1-.657-8.007c.108-.009.215-.013.322-.013a4.017,4.017,0,0,1,.335,8.02Zm13.525,0h0a4.017,4.017,0,0,1-.657-8.007c.108-.009.215-.013.323-.013a4.017,4.017,0,0,1,.334,8.02Z" style="fill:#fff"/></g></svg>