<svg xmlns="http://www.w3.org/2000/svg" viewBox="0 0 32 32"><title>Artboard 1TIMELINE</title><g id="Layer_5" data-name="Layer 5" style="opacity:0.39"><path d="M24.369,5.777a1.679,1.679,0,0,0-1.535,1.7v5.641a.36.36,0,0,1-.42.355h-.008a.36.36,0,0,1-.3-.355V4.929a1.679,1.679,0,0,0-1.535-1.7,1.636,1.636,0,0,0-1.737,1.633V12.61a.359.359,0,0,1-.392.357h-.007a.362.362,0,0,1-.329-.36V4.2a1.678,1.678,0,0,0-1.535-1.7,1.636,1.636,0,0,0-1.737,1.633v8.2a.36.36,0,0,1-.376.359h-.007a.362.362,0,0,1-.344-.361V6.384a1.678,1.678,0,0,0-1.535-1.7A1.636,1.636,0,0,0,10.836,6.32V19.536a.368.368,0,0,1-.656.228l-2.936-3.72a1.909,1.909,0,0,0-3,2.366l3.869,4.9-.007.007c.068.079.135.159.2.24L9.7,25.318a1.894,1.894,0,0,0,.208.22h0A10.263,10.263,0,0,0,18.653,29.5a7.663,7.663,0,0,0,7.453-7.453V7.41A1.636,1.636,0,0,0,24.369,5.777Z" style="fill:#fff"/></g></svg>