<svg xmlns="http://www.w3.org/2000/svg" viewBox="0 0 32 32"><title>Artboard 1</title><g id="Layer_4" data-name="Layer 4"><polygon points="32 15.083 29.733 15.083 29.733 12.816 27.686 12.816 27.686 15.083 25.419 15.083 25.419 17.131 27.686 17.131 27.686 19.397 29.733 19.397 29.733 17.131 32 17.131 32 15.083" style="fill:#fff;opacity:0.38999998569488525;isolation:isolate"/></g><g id="Layer_2" data-name="Layer 2"><g style="opacity:0.38999998569488525;isolation:isolate"><path d="M17.925,13.345a4.783,4.783,0,0,1-2.777-1.257,4.046,4.046,0,0,0-1.228-.743,4.2,4.2,0,0,0-1.179.725,4.847,4.847,0,0,1-2.825,1.275c-1.078,0-2.284-.677-4.161-2.338A1.345,1.345,0,1,1,7.537,8.993c1.718,1.52,2.3,1.652,2.4,1.663a4.4,4.4,0,0,0,1.2-.738A4.8,4.8,0,0,1,13.92,8.655a4.873,4.873,0,0,1,2.84,1.281,4.267,4.267,0,0,0,1.166.719c.377,0,.855-.362,1.6-.953.32-.254.664-.525,1.046-.8a1.344,1.344,0,1,1,1.56,2.19c-.343.244-.65.489-.937.716A5.24,5.24,0,0,1,17.925,13.345Z" style="fill:#fff"/></g><g style="opacity:0.38999998569488525;isolation:isolate"><path d="M17.925,18.345a4.783,4.783,0,0,1-2.777-1.257,4.066,4.066,0,0,0-1.228-.743,4.228,4.228,0,0,0-1.179.725,4.847,4.847,0,0,1-2.825,1.275c-1.078,0-2.284-.677-4.161-2.337a1.345,1.345,0,1,1,1.782-2.015c1.718,1.52,2.3,1.652,2.4,1.663a4.4,4.4,0,0,0,1.2-.738,4.8,4.8,0,0,1,2.792-1.263,4.873,4.873,0,0,1,2.84,1.281,4.242,4.242,0,0,0,1.166.719c.377,0,.855-.362,1.6-.953.32-.254.664-.525,1.046-.8a1.345,1.345,0,1,1,1.56,2.191c-.343.243-.65.487-.937.715A5.24,5.24,0,0,1,17.925,18.345Z" style="fill:#fff"/></g><g style="opacity:0.38999998569488525;isolation:isolate"><path d="M17.925,23.345a4.783,4.783,0,0,1-2.777-1.257,4.066,4.066,0,0,0-1.228-.743,4.228,4.228,0,0,0-1.179.725,4.847,4.847,0,0,1-2.825,1.275c-1.078,0-2.284-.677-4.161-2.337a1.345,1.345,0,0,1,1.782-2.016c1.718,1.521,2.3,1.653,2.4,1.664a4.371,4.371,0,0,0,1.2-.738,4.8,4.8,0,0,1,2.792-1.263,4.867,4.867,0,0,1,2.84,1.281,4.267,4.267,0,0,0,1.166.719c.377,0,.855-.362,1.6-.953.32-.254.664-.525,1.046-.8a1.345,1.345,0,1,1,1.56,2.192c-.343.243-.65.487-.937.715A5.24,5.24,0,0,1,17.925,23.345Z" style="fill:#fff"/></g></g></svg>