<svg id="Layer_3" data-name="Layer 3" xmlns="http://www.w3.org/2000/svg" viewBox="0 0 32 32"><title>Artboard 1TIMELINE</title><path d="M28.9,12.582h-.614V11.27A2.129,2.129,0,0,0,26.16,9.141H5.483A2.129,2.129,0,0,0,3.354,11.27v1.312H2.99a.793.793,0,0,0-.793.793v5.146a.793.793,0,0,0,.793.793h.364v2.559A2.129,2.129,0,0,0,5.483,24h5.152c2.593,0,2.693-5.186,4.688-5.186h1c2,0,2.095,5.186,4.688,5.186H26.16a2.129,2.129,0,0,0,2.128-2.129V19.314H28.9a.793.793,0,0,0,.793-.793V13.375A.793.793,0,0,0,28.9,12.582ZM9.787,18.716a2.843,2.843,0,1,1,2.843-2.843A2.842,2.842,0,0,1,9.787,18.716Zm12.068,0A2.843,2.843,0,1,1,24.7,15.873,2.843,2.843,0,0,1,21.855,18.716Z" style="fill:#fff;opacity:0.38999998569488525;isolation:isolate"/></svg>