<?xml version="1.0" encoding="utf-8"?>
<!-- Generator: Adobe Illustrator 23.1.1, SVG Export Plug-In . SVG Version: 6.00 Build 0)  -->
<svg version="1.1" id="Layer_3" xmlns="http://www.w3.org/2000/svg" xmlns:xlink="http://www.w3.org/1999/xlink" x="0px" y="0px"
	 viewBox="0 0 32 32" style="enable-background:new 0 0 32 32;" xml:space="preserve">
<style type="text/css">
	.st0{opacity:0.39;fill:#FFFFFF;}
</style>
<path class="st0" d="M25.9,7.1H6.1c-0.9,0-1.7,0.7-1.7,1.7v14.7c0,0.9,0.7,1.7,1.7,1.7h19.8c0.9,0,1.7-0.7,1.7-1.7V8.7
	C27.5,7.8,26.8,7.1,25.9,7.1z M6.4,9.1h19.1v8.1l-3.3-3.9c-0.1-0.2-0.4-0.1-0.5,0l-6,7.9L12,17.6c-0.1-0.1-0.4-0.1-0.5,0L7.6,23H6.4
	V9.1z"/>
<circle class="st0" cx="11" cy="12.7" r="2.2"/>
</svg>
