<svg xmlns="http://www.w3.org/2000/svg" viewBox="0 0 32 32">
  <path
    fill="#c5c41d"
    style="fill: var(--color1, #aaa)"
    d="M23.298 8.964c0.541 0 0.98 0.439 0.98 0.98v0 12.112c0 0.541-0.439 0.98-0.98 0.98v0h-14.596c-0.541 0-0.98-0.439-0.98-0.98v0-12.112c0-0.541 0.439-0.98 0.98-0.98v0h14.596zM23.298 7.94h-14.596c-1.106 0.001-2.003 0.898-2.004 2.004v12.113c0.001 1.106 0.898 2.003 2.004 2.004h14.596c1.106-0.001 2.003-0.898 2.004-2.004v-12.113c-0.001-1.106-0.898-2.003-2.004-2.004h-0z"></path>
  <path fill="#c5c41d" style="fill: var(--color1, #aaa)" d="M7.36 12.16h17.28v0.512h-17.28v-0.512z"></path>
  <path fill="#c5c41d" style="fill: var(--color1, #aaa)" d="M7.36 19.328h17.28v0.512h-17.28v-0.512z"></path>
  <path fill="#c5c41d" style="fill: var(--color1, #aaa)" d="M11.84 8.55h0.512v14.9h-0.512v-14.9z"></path>
  <path fill="#c5c41d" style="fill: var(--color1, #aaa)" d="M19.648 8.55h0.512v14.9h-0.512v-14.9z"></path>
</svg>
