# 3ds Max Wavefront OBJ Exporter v0.97b - (c)2007 guruware
# File Created: 10.06.2017 08:37:22

#
# object door
#

v  480.0269 0.0000 -25.2909
v  480.0269 0.0000 25.2909
v  -434.1333 0.0000 25.2909
v  -434.1333 0.0000 -25.2909
v  480.0269 2032.0000 -25.2909
v  -434.1333 2032.0000 -25.2909
v  -434.1333 2032.0000 25.2909
v  480.0269 2032.0000 25.2909
v  408.5325 915.0555 24.0253
v  408.5325 915.0555 40.7698
v  357.5325 915.0555 40.7698
v  357.5325 915.0555 24.0253
v  408.5325 1093.0555 24.0253
v  357.5325 1093.0555 24.0253
v  357.5325 1093.0555 40.7698
v  408.5325 1093.0555 40.7698
v  410.0643 1004.2803 65.9694
v  411.7992 994.4415 65.9694
v  411.7992 994.4415 54.5287
v  410.0643 1004.2803 54.5287
v  405.0690 1012.9324 65.9694
v  405.0690 1012.9324 54.5287
v  397.4158 1019.3542 65.9694
v  397.4158 1019.3542 54.5287
v  388.0278 1022.7711 65.9694
v  388.0278 1022.7712 54.5287
v  378.0372 1022.7711 65.9694
v  378.0372 1022.7711 54.5287
v  368.6492 1019.3542 65.9694
v  368.6492 1019.3542 54.5287
v  360.9960 1012.9324 65.9694
v  360.9960 1012.9324 54.5287
v  356.0007 1004.2803 65.9694
v  356.0007 1004.2803 54.5287
v  354.2658 994.4415 65.9694
v  354.2658 994.4415 54.5287
v  356.0007 984.6028 65.9694
v  356.0007 984.6028 54.5287
v  360.9960 975.9507 65.9694
v  360.9960 975.9507 54.5287
v  368.6492 969.5289 65.9694
v  368.6492 969.5289 54.5287
v  378.0372 966.1119 65.9694
v  378.0372 966.1119 54.5287
v  388.0278 966.1119 65.9694
v  388.0278 966.1119 54.5287
v  397.4158 969.5289 65.9694
v  397.4158 969.5289 54.5287
v  405.0690 975.9507 65.9694
v  405.0690 975.9507 54.5287
v  410.0643 984.6027 65.9694
v  410.0643 984.6027 54.5287
v  390.6169 997.2020 56.9829
v  391.1037 994.4415 56.9829
v  391.1037 994.4415 39.5659
v  390.6169 997.2020 39.5659
v  389.2154 999.6296 56.9829
v  389.2154 999.6296 39.5659
v  387.0681 1001.4314 56.9829
v  387.0681 1001.4314 39.5659
v  384.4341 1002.3901 56.9829
v  384.4341 1002.3901 39.5659
v  381.6310 1002.3901 56.9829
v  381.6310 1002.3901 39.5659
v  378.9969 1001.4314 56.9829
v  378.9969 1001.4314 39.5659
v  376.8496 999.6296 56.9829
v  376.8496 999.6296 39.5659
v  375.4481 997.2020 56.9829
v  375.4481 997.2020 39.5659
v  374.9613 994.4415 56.9829
v  374.9613 994.4415 39.5659
v  375.4481 991.6810 56.9829
v  375.4481 991.6810 39.5659
v  376.8496 989.2535 56.9829
v  376.8496 989.2535 39.5659
v  378.9969 987.4517 56.9829
v  378.9969 987.4517 39.5659
v  381.6310 986.4930 56.9829
v  381.6310 986.4930 39.5659
v  384.4341 986.4930 56.9829
v  384.4341 986.4930 39.5659
v  387.0681 987.4517 56.9829
v  387.0681 987.4517 39.5659
v  389.2154 989.2535 56.9829
v  389.2154 989.2535 39.5659
v  390.6169 991.6810 56.9829
v  390.6169 991.6810 39.5659
v  -434.4761 0.0000 -24.9877
v  -434.4761 0.0000 25.8123
v  -485.2761 0.0000 25.8123
v  -485.2761 0.0000 -24.9877
v  -434.6497 2032.4164 25.8123
v  -485.2588 2032.4164 25.8123
v  -434.6497 2032.4164 -24.9876
v  -485.2588 2032.4164 -24.9876
v  531.2250 0.0000 -24.9877
v  531.2250 0.0000 25.8123
v  480.4249 0.0000 25.8123
v  480.4249 0.0000 -24.9877
v  531.3447 2032.4164 25.8123
v  480.5309 2032.4164 25.8123
v  531.3447 2032.4164 -24.9876
v  480.5309 2032.4164 -24.9876
v  -485.2588 2083.2163 25.8123
v  -485.2588 2083.2163 -24.9876
v  531.3447 2083.2163 -24.9876
v  531.3447 2083.2163 25.8123
v  -434.6498 2083.2163 25.8123
v  480.5309 2083.2163 25.8123
v  -434.6497 2083.2163 -24.9876
v  480.5309 2083.2163 -24.9876
v  383.0325 994.4415 54.5287
v  383.0325 994.4416 65.9694
# 114 vertices

vn 0.0000 -1.0000 -0.0000
vn 0.0000 1.0000 -0.0000
vn 0.0000 0.0000 1.0000
vn 1.0000 0.0000 -0.0000
vn 0.0000 0.0000 -1.0000
vn -1.0000 0.0000 -0.0000
vn 0.9397 0.3420 -0.0000
vn 0.7660 0.6428 -0.0000
vn 0.5000 0.8660 -0.0000
vn 0.5000 0.8660 0.0000
vn 0.1736 0.9848 0.0000
vn -0.1736 0.9848 0.0000
vn -0.1737 0.9848 -0.0000
vn -0.5000 0.8660 -0.0000
vn -0.7660 0.6428 -0.0000
vn -0.9397 0.3420 -0.0000
vn -1.0000 -0.0000 -0.0000
vn -0.9397 -0.3420 -0.0000
vn -0.7660 -0.6428 -0.0000
vn -0.5000 -0.8660 -0.0000
vn -0.1736 -0.9848 -0.0000
vn 0.1737 -0.9848 -0.0000
vn 0.1736 -0.9848 -0.0000
vn 0.5000 -0.8660 -0.0000
vn 0.7660 -0.6428 -0.0000
vn 0.9397 -0.3420 -0.0000
vn 0.7661 0.6428 -0.0000
vn 0.1736 0.9848 -0.0000
vn -0.1736 0.9848 -0.0000
vn -0.7661 0.6428 -0.0000
vn 1.0000 0.0001 -0.0000
vn 1.0000 -0.0000 -0.0000
vn 1.0000 -0.0001 -0.0000
vn -1.0000 0.0001 -0.0000
vn -0.0000 0.0000 -1.0000
vn -0.0000 0.0000 1.0000
vn -0.0000 -0.0000 -1.0000
vn -0.0000 -0.0000 1.0000
vn 0.0000 -0.0000 -1.0000
vn 0.0000 -0.0000 1.0000
# 40 vertex normals

vt 0.9662 0.0805 0.0000
vt 0.9662 0.0612 0.0000
vt 0.5325 0.0612 0.0000
vt 0.5325 0.0805 0.0000
vt 0.0055 0.7513 0.0000
vt 0.2175 0.7513 0.0000
vt 0.2175 0.7619 0.0000
vt 0.0055 0.7619 0.0000
vt 0.4240 0.7581 0.0000
vt 0.2327 0.7581 0.0000
vt 0.2327 0.2797 0.0000
vt 0.4240 0.2797 0.0000
vt 0.9859 0.1051 0.0000
vt 0.9859 0.1171 0.0000
vt 0.5076 0.1171 0.0000
vt 0.5076 0.1051 0.0000
vt 0.6306 0.7110 0.0000
vt 0.4392 0.7110 0.0000
vt 0.4392 0.2327 0.0000
vt 0.6306 0.2327 0.0000
vt 0.5076 0.1330 0.0000
vt 0.5076 0.1210 0.0000
vt 0.9859 0.1210 0.0000
vt 0.9859 0.1330 0.0000
vt 0.1338 0.8758 0.0000
vt 0.1528 0.8758 0.0000
vt 0.1528 0.8003 0.0000
vt 0.1338 0.8003 0.0000
vt 0.1132 0.8037 0.0000
vt 0.1132 0.8800 0.0000
vt 0.0903 0.8800 0.0000
vt 0.0903 0.8037 0.0000
vt 0.4435 0.7829 0.0000
vt 0.4435 0.7227 0.0000
vt 0.5821 0.7227 0.0000
vt 0.5821 0.7829 0.0000
vt 0.0155 0.8034 0.0000
vt 0.0396 0.8034 0.0000
vt 0.0396 0.9897 0.0000
vt 0.0155 0.9897 0.0000
vt 0.0762 0.9877 0.0000
vt 0.0520 0.9877 0.0000
vt 0.0520 0.8014 0.0000
vt 0.0762 0.8014 0.0000
vt 0.9137 0.3464 0.0000
vt 0.9137 0.3172 0.0000
vt 0.9441 0.3172 0.0000
vt 0.9441 0.3464 0.0000
vt 0.9137 0.3770 0.0000
vt 0.9441 0.3770 0.0000
vt 0.9137 0.4062 0.0000
vt 0.9441 0.4062 0.0000
vt 0.9137 0.4367 0.0000
vt 0.9441 0.4367 0.0000
vt 0.9137 0.4659 0.0000
vt 0.9441 0.4659 0.0000
vt 0.9137 0.4965 0.0000
vt 0.9441 0.4965 0.0000
vt 0.9137 0.5257 0.0000
vt 0.9441 0.5257 0.0000
vt 0.9137 0.5562 0.0000
vt 0.9441 0.5562 0.0000
vt 0.9137 0.5854 0.0000
vt 0.9441 0.5854 0.0000
vt 0.9137 0.6159 0.0000
vt 0.9441 0.6159 0.0000
vt 0.9137 0.6452 0.0000
vt 0.9441 0.6452 0.0000
vt 0.9137 0.6757 0.0000
vt 0.9441 0.6757 0.0000
vt 0.9137 0.7049 0.0000
vt 0.9441 0.7049 0.0000
vt 0.9137 0.7354 0.0000
vt 0.9441 0.7354 0.0000
vt 0.9137 0.2269 0.0000
vt 0.9137 0.1977 0.0000
vt 0.9441 0.1977 0.0000
vt 0.9441 0.2269 0.0000
vt 0.9137 0.2575 0.0000
vt 0.9441 0.2575 0.0000
vt 0.9137 0.2867 0.0000
vt 0.9441 0.2867 0.0000
vt 0.2362 0.8390 0.1405
vt 0.2169 0.8390 0.1403
vt 0.2169 0.9783 0.1403
vt 0.2362 0.9783 0.1405
vt 0.2554 0.8390 0.1412
vt 0.2554 0.9783 0.1412
vt 0.2744 0.8390 0.1419
vt 0.2744 0.9783 0.1419
vt 0.2932 0.8390 0.1424
vt 0.2932 0.9783 0.1424
vt 0.3119 0.8390 0.1424
vt 0.3119 0.9783 0.1424
vt 0.3307 0.8390 0.1419
vt 0.3307 0.9783 0.1419
vt 0.3497 0.8390 0.1412
vt 0.3497 0.9783 0.1412
vt 0.3689 0.8390 0.1405
vt 0.3689 0.9783 0.1405
vt 0.3882 0.8390 0.1403
vt 0.3882 0.9783 0.1403
vt 0.4075 0.8390 0.1405
vt 0.4075 0.9783 0.1405
vt 0.4266 0.8390 0.1412
vt 0.4266 0.9783 0.1412
vt 0.4456 0.8390 0.1419
vt 0.4456 0.9783 0.1419
vt 0.4644 0.8390 0.1424
vt 0.4644 0.9783 0.1424
vt 0.4832 0.8390 0.1424
vt 0.4832 0.9783 0.1424
vt 0.5020 0.8390 0.1419
vt 0.5020 0.9783 0.1419
vt 0.5209 0.8390 0.1412
vt 0.5209 0.9783 0.1412
vt 0.5401 0.8390 0.1405
vt 0.5401 0.9783 0.1405
vt 0.5594 0.8390 0.1403
vt 0.5594 0.9783 0.1403
vt 0.5323 0.0804 0.0000
vt 0.5323 0.0610 0.0000
vt 0.5082 0.0610 0.0000
vt 0.5082 0.0804 0.0000
vt 0.0139 0.7111 0.0000
vt 0.0020 0.7111 0.0000
vt 0.0020 0.2327 0.0000
vt 0.0140 0.2327 0.0000
vt 0.7210 0.7164 0.0000
vt 0.7058 0.7164 0.0000
vt 0.7058 0.1897 0.0000
vt 0.7210 0.1897 0.0000
vt 0.4805 0.0020 0.0000
vt 0.4805 0.0139 0.0000
vt 0.0020 0.0140 0.0000
vt 0.0020 0.0020 0.0000
vt 0.6674 0.7078 0.0000
vt 0.6524 0.7078 0.0000
vt 0.6524 0.1915 0.0000
vt 0.6674 0.1915 0.0000
vt 0.9904 0.0804 0.0000
vt 0.9904 0.0610 0.0000
vt 0.9663 0.0610 0.0000
vt 0.9663 0.0804 0.0000
vt 0.2175 0.7111 0.0000
vt 0.2056 0.7111 0.0000
vt 0.2055 0.2327 0.0000
vt 0.2175 0.2327 0.0000
vt 0.6900 0.7069 0.0000
vt 0.6743 0.7069 0.0000
vt 0.6743 0.1911 0.0000
vt 0.6900 0.1911 0.0000
vt 0.4805 0.2055 0.0000
vt 0.4805 0.2175 0.0000
vt 0.0020 0.2175 0.0000
vt 0.0020 0.2056 0.0000
vt 0.7478 0.7164 0.0000
vt 0.7325 0.7164 0.0000
vt 0.7325 0.1897 0.0000
vt 0.7478 0.1897 0.0000
vt 0.6674 0.7208 0.0000
vt 0.6524 0.7208 0.0000
vt 0.6900 0.7198 0.0000
vt 0.6743 0.7198 0.0000
vt 0.0139 0.7231 0.0000
vt 0.2056 0.7231 0.0000
vt 0.0085 0.7787 0.0000
vt 0.0085 0.7689 0.0000
vt 0.2138 0.7689 0.0000
vt 0.2138 0.7787 0.0000
vt 0.4924 0.0139 0.0000
vt 0.4924 0.2055 0.0000
vt 0.0164 0.7478 0.0000
vt 0.0164 0.7363 0.0000
vt 0.2062 0.7363 0.0000
vt 0.2062 0.7478 0.0000
vt 0.2175 0.7231 0.0000
vt 0.0020 0.7231 0.0000
vt 0.4924 0.2175 0.0000
vt 0.4924 0.0020 0.0000
vt 0.2181 0.7363 0.0000
vt 0.2181 0.7478 0.0000
vt 0.0046 0.7478 0.0000
vt 0.0046 0.7363 0.0000
vt 0.8564 0.9830 0.0000
vt 0.8903 0.9889 0.0000
vt 0.8903 0.8913 0.0000
vt 0.6784 0.9889 0.0000
vt 0.6445 0.9830 0.0000
vt 0.6784 0.8913 0.0000
vt 0.8266 0.9661 0.0000
vt 0.6147 0.9661 0.0000
vt 0.8044 0.9401 0.0000
vt 0.5926 0.9401 0.0000
vt 0.7927 0.9082 0.0000
vt 0.5808 0.9082 0.0000
vt 0.7927 0.8743 0.0000
vt 0.5808 0.8743 0.0000
vt 0.8044 0.8424 0.0000
vt 0.5926 0.8424 0.0000
vt 0.8266 0.8165 0.0000
vt 0.6147 0.8165 0.0000
vt 0.8564 0.7995 0.0000
vt 0.6445 0.7995 0.0000
vt 0.8903 0.7936 0.0000
vt 0.6784 0.7936 0.0000
vt 0.9242 0.7995 0.0000
vt 0.7123 0.7995 0.0000
vt 0.9540 0.8165 0.0000
vt 0.7422 0.8165 0.0000
vt 0.9761 0.8424 0.0000
vt 0.7643 0.8424 0.0000
vt 0.9879 0.8743 0.0000
vt 0.7761 0.8743 0.0000
vt 0.9879 0.9082 0.0000
vt 0.7761 0.9082 0.0000
vt 0.9761 0.9401 0.0000
vt 0.7643 0.9401 0.0000
vt 0.9540 0.9661 0.0000
vt 0.7422 0.9661 0.0000
vt 0.9242 0.9830 0.0000
vt 0.7123 0.9830 0.0000
# 222 texture coords

g door
s 1
f 1/1/1 2/2/1 3/3/1 4/4/1 
f 5/5/2 6/6/2 7/7/2 8/8/2 
s 2
f 8/9/3 7/10/3 3/11/3 2/12/3 
s 4
f 5/13/4 8/14/4 2/15/4 1/16/4 
s 2
f 6/17/5 5/18/5 1/19/5 4/20/5 
s 4
f 7/21/6 6/22/6 4/23/6 3/24/6 
s 1
f 9/25/1 10/26/1 11/27/1 12/28/1 
f 13/29/2 14/30/2 15/31/2 16/32/2 
s 2
f 16/33/3 15/34/3 11/35/3 10/36/3 
s 4
f 13/37/4 16/38/4 10/39/4 9/40/4 
f 15/41/6 14/42/6 12/43/6 11/44/6 
s 1
f 17/45/7 18/46/4 19/47/4 20/48/7 
f 21/49/8 17/45/7 20/48/7 22/50/8 
f 23/51/9 21/49/8 22/50/8 24/52/10 
f 25/53/11 23/51/9 24/52/10 26/54/11 
f 27/55/12 25/53/11 26/54/11 28/56/13 
f 29/57/14 27/55/12 28/56/13 30/58/14 
f 31/59/15 29/57/14 30/58/14 32/60/15 
f 33/61/16 31/59/15 32/60/15 34/62/16 
f 35/63/17 33/61/16 34/62/16 36/64/6 
f 37/65/18 35/63/17 36/64/6 38/66/18 
f 39/67/19 37/65/18 38/66/18 40/68/19 
f 41/69/20 39/67/19 40/68/19 42/70/20 
f 43/71/21 41/69/20 42/70/20 44/72/21 
f 45/73/22 43/71/21 44/72/21 46/74/23 
f 47/75/24 45/76/22 46/77/23 48/78/24 
f 49/79/25 47/75/24 48/78/24 50/80/25 
f 51/81/26 49/79/25 50/80/25 52/82/26 
f 18/46/4 51/81/26 52/82/26 19/47/4 
f 53/83/7 54/84/4 55/85/4 56/86/7 
f 57/87/27 53/83/7 56/86/7 58/88/27 
f 59/89/9 57/87/27 58/88/27 60/90/9 
f 61/91/28 59/89/9 60/90/9 62/92/28 
f 63/93/29 61/91/28 62/92/28 64/94/29 
f 65/95/14 63/93/29 64/94/29 66/96/14 
f 67/97/30 65/95/14 66/96/14 68/98/30 
f 69/99/16 67/97/30 68/98/30 70/100/16 
f 71/101/6 69/99/16 70/100/16 72/102/6 
f 73/103/18 71/101/6 72/102/6 74/104/18 
f 75/105/19 73/103/18 74/104/18 76/106/19 
f 77/107/20 75/105/19 76/106/19 78/108/20 
f 79/109/21 77/107/20 78/108/20 80/110/21 
f 81/111/22 79/109/21 80/110/21 82/112/22 
f 83/113/24 81/111/22 82/112/22 84/114/24 
f 85/115/25 83/113/24 84/114/24 86/116/25 
f 87/117/26 85/115/25 86/116/25 88/118/26 
f 54/119/4 87/117/26 88/118/26 55/120/4 
f 89/121/1 90/122/1 91/123/1 92/124/1 
s 2
f 93/125/3 94/126/3 91/127/3 90/128/3 
s 4
f 95/129/31 93/130/31 90/131/31 89/132/31 
s 2
f 96/133/5 95/134/5 89/135/5 92/136/5 
s 4
f 94/137/6 96/138/6 92/139/6 91/140/6 
s 1
f 97/141/1 98/142/1 99/143/1 100/144/1 
s 2
f 101/145/3 102/146/3 99/147/3 98/148/3 
s 4
f 103/149/32 101/150/32 98/151/33 97/152/33 
s 2
f 104/153/5 103/154/5 97/155/5 100/156/5 
s 4
f 102/157/34 104/158/34 100/159/34 99/160/34 
f 96/138/6 94/137/6 105/161/6 106/162/6 
f 103/149/32 107/163/4 108/164/4 101/150/32 
s 2
f 109/165/3 93/125/3 102/146/3 110/166/3 
s 1
f 93/167/1 95/168/1 104/169/1 102/170/1 
s 2
f 95/134/5 111/171/5 112/172/5 104/153/5 
s 1
f 111/173/2 109/174/2 110/175/2 112/176/2 
s 2
f 110/166/3 102/146/3 101/145/3 108/177/3 
f 93/125/3 109/165/3 105/178/3 94/126/3 
f 104/153/5 112/172/5 107/179/5 103/154/5 
f 111/171/5 95/134/5 96/133/5 106/180/5 
s 1
f 112/176/2 110/175/2 108/181/2 107/182/2 
f 109/174/2 111/173/2 106/183/2 105/184/2 
s off
f 20/185/5 19/186/5 113/187/5 
f 18/188/3 17/189/3 114/190/3 
f 22/191/5 20/185/5 113/187/5 
f 17/189/3 21/192/3 114/190/3 
f 24/193/5 22/191/5 113/187/5 
f 21/192/3 23/194/3 114/190/3 
f 26/195/5 24/193/5 113/187/5 
f 23/194/3 25/196/3 114/190/3 
f 28/197/35 26/195/35 113/187/35 
f 25/196/3 27/198/3 114/190/3 
f 30/199/35 28/197/35 113/187/35 
f 27/198/36 29/200/36 114/190/36 
f 32/201/35 30/199/35 113/187/35 
f 29/200/36 31/202/36 114/190/36 
f 34/203/35 32/201/35 113/187/35 
f 31/202/36 33/204/36 114/190/36 
f 36/205/35 34/203/35 113/187/35 
f 33/204/36 35/206/36 114/190/36 
f 38/207/37 36/205/37 113/187/37 
f 35/206/38 37/208/38 114/190/38 
f 40/209/37 38/207/37 113/187/37 
f 37/208/38 39/210/38 114/190/38 
f 42/211/37 40/209/37 113/187/37 
f 39/210/38 41/212/38 114/190/38 
f 44/213/37 42/211/37 113/187/37 
f 41/212/38 43/214/38 114/190/38 
f 46/215/39 44/213/39 113/187/39 
f 43/214/40 45/216/40 114/190/40 
f 48/217/39 46/215/39 113/187/39 
f 45/216/40 47/218/40 114/190/40 
f 50/219/39 48/217/39 113/187/39 
f 47/218/40 49/220/40 114/190/40 
f 52/221/39 50/219/39 113/187/39 
f 49/220/40 51/222/40 114/190/40 
f 19/186/39 52/221/39 113/187/39 
f 51/222/40 18/188/40 114/190/40 
# 69 polygons - 36 triangles

