<svg id="Layer_8" data-name="Layer 8" xmlns="http://www.w3.org/2000/svg" viewBox="0 0 20.16 20.481"><title>button-loop1</title><path d="M12.295,15.947H7.646a1.182,1.182,0,0,1,0-2.365h4.649a3.345,3.345,0,0,0,3.341-3.342,1.182,1.182,0,0,1,2.365,0A5.713,5.713,0,0,1,12.295,15.947Z"/><path d="M3.122,11.423A1.182,1.182,0,0,1,1.94,10.24,5.713,5.713,0,0,1,7.646,4.534h4.649a1.182,1.182,0,1,1,0,2.365H7.646A3.345,3.345,0,0,0,4.3,10.24,1.182,1.182,0,0,1,3.122,11.423Z"/><polygon points="3.265 14.764 7.646 11.509 7.646 14.764 7.646 18.02 3.265 14.764"/><path d="M15.636,1.91A4.524,4.524,0,1,0,20.16,6.434,4.524,4.524,0,0,0,15.636,1.91Zm0.438,6.055h-0.66V5.491l-0.651.573-0.389-.449,1.058-.893h0.641V7.965Z"/></svg>