<!-- https://icomoon.io -->
<svg style="position: absolute; width: 0; height: 0; overflow: hidden;" version="1.1" xmlns="http://www.w3.org/2000/svg">
<defs>
<symbol id="icon-action" viewBox="0 0 32 32">
<title>action</title>
<path fill="#c5c41d" style="fill: var(--color1, #c5c41d)" d="M10.372 6.4h13.506l-5.853 8.205 5.853 0.713-12.156 12.842 2.251-7.491-5.853-1.070 2.251-13.199z"></path>
</symbol>
<symbol id="icon-add" viewBox="0 0 32 32">
<title>add</title>
<path fill="#aeaeb0" style="fill: var(--color2, #aeaeb0)" d="M7.488 6.4h15.999c0.884 0 1.6 0.716 1.6 1.6v14.463c0 0.884-0.716 1.6-1.6 1.6h-15.999c-0.884 0-1.6-0.716-1.6-1.6v-14.463c0-0.884 0.716-1.6 1.6-1.6z"></path>
<path fill="#c5c41d" style="fill: var(--color1, #c5c41d)" d="M23.488 6.912c0.601 0.001 1.088 0.488 1.088 1.088v14.464c-0.001 0.601-0.488 1.087-1.088 1.088h-16c-0.601-0.001-1.087-0.488-1.088-1.088v-14.464c0.001-0.601 0.488-1.087 1.088-1.088h16zM23.488 5.888h-16c-1.167 0-2.112 0.946-2.112 2.112v14.464c0 1.166 0.946 2.112 2.112 2.112h16c1.166-0 2.112-0.946 2.112-2.112v-14.464c-0-1.166-0.946-2.112-2.112-2.112z"></path>
<path fill="#c5c41d" style="fill: var(--color1, #c5c41d)" d="M6.144 19.456h18.688v4.352h-18.688v-4.352z"></path>
<path fill="#c5c41d" style="fill: var(--color1, #c5c41d)" d="M6.144 6.912h18.688v2.048h-18.688v-2.048z"></path>
<path fill="#c5c41d" style="fill: var(--color1, #c5c41d)" d="M27.136 22.016c0 2.262-1.834 4.096-4.096 4.096s-4.096-1.834-4.096-4.096c0-2.262 1.834-4.096 4.096-4.096s4.096 1.834 4.096 4.096z"></path>
<path fill="#aeaeb0" style="fill: var(--color2, #aeaeb0)" d="M23.808 24.832h-1.59v-5.452h1.59v5.452z"></path>
<path fill="#aeaeb0" style="fill: var(--color2, #aeaeb0)" d="M25.739 21.428v1.356h-5.452v-1.356h5.452z"></path>
</symbol>
<symbol id="icon-board" viewBox="0 0 32 32">
<title>board</title>
<path fill="#aeaeb0" style="fill: var(--color2, #aeaeb0)" d="M6.756 5.121h18.488c1.434 0 2.597 1.163 2.597 2.597v16.563c0 1.434-1.163 2.597-2.597 2.597h-18.488c-1.434 0-2.597-1.163-2.597-2.597v-16.563c0-1.434 1.163-2.597 2.597-2.597z"></path>
<path fill="#c5c41d" style="fill: var(--color1, #c5c41d)" d="M25.244 5.952c0.975 0.001 1.765 0.791 1.766 1.766v16.563c-0.001 0.975-0.791 1.765-1.766 1.766h-18.488c-0.975-0.001-1.765-0.791-1.766-1.766v-16.564c0.001-0.975 0.791-1.765 1.766-1.766h18.488zM25.244 4.29h-18.488c-1.893 0-3.428 1.535-3.428 3.428 0 0 0 0 0 0v16.563c0 1.893 1.535 3.428 3.428 3.428h18.488c1.893 0 3.428-1.535 3.428-3.428v-16.563c-0-1.893-1.535-3.428-3.428-3.428z"></path>
<path fill="#c5c41d" style="fill: var(--color1, #c5c41d)" d="M4.29 21.293h23.419v5.454h-23.419v-5.454z"></path>
<path fill="#c5c41d" style="fill: var(--color1, #c5c41d)" d="M4.29 5.574h23.419v2.566h-23.419v-2.566z"></path>
</symbol>
<symbol id="icon-boardfile" viewBox="0 0 32 32">
<title>boardfile</title>
<path fill="#c5c41d" style="fill: var(--color1, #c5c41d)" d="M16.081 17.787h9.648c0.321 0 0.581 0.26 0.581 0.581v4.696c0 0.321-0.26 0.581-0.581 0.581h-9.648c-0.321 0-0.581-0.26-0.581-0.581v-4.696c0-0.321 0.26-0.581 0.581-0.581z"></path>
<path fill="#c5c41d" style="fill: var(--color1, #c5c41d)" d="M19.829 24.208h2.15c0.321 0 0.581 0.26 0.581 0.581v1.024c0 0.321-0.26 0.581-0.581 0.581h-2.15c-0.321 0-0.581-0.26-0.581-0.581v-1.024c0-0.321 0.26-0.581 0.581-0.581z"></path>
<path fill="#c5c41d" style="fill: var(--color1, #c5c41d)" d="M16.081 24.208h2.15c0.321 0 0.581 0.26 0.581 0.581v1.024c0 0.321-0.26 0.581-0.581 0.581h-2.15c-0.321 0-0.581-0.26-0.581-0.581v-1.024c0-0.321 0.26-0.581 0.581-0.581z"></path>
<path fill="#c5c41d" style="fill: var(--color1, #c5c41d)" d="M23.578 24.208h2.15c0.321 0 0.581 0.26 0.581 0.581v1.024c0 0.321-0.26 0.581-0.581 0.581h-2.15c-0.321 0-0.581-0.26-0.581-0.581v-1.024c0-0.321 0.26-0.581 0.581-0.581z"></path>
<path fill="#c5c41d" style="fill: var(--color1, #c5c41d)" d="M26.677 30.464h-21.355c-2.090-0.002-3.784-1.696-3.787-3.786v-21.355c0.002-2.090 1.696-3.784 3.786-3.787h21.355c2.090 0.002 3.784 1.696 3.787 3.786v21.355c-0.002 2.090-1.696 3.784-3.786 3.787zM5.322 3.328c-1.101 0.001-1.993 0.893-1.994 1.994v21.355c0.001 1.101 0.893 1.993 1.994 1.994h21.355c1.101-0.001 1.993-0.893 1.994-1.994v-21.355c-0.001-1.101-0.893-1.993-1.994-1.994z"></path>
</symbol>
<symbol id="icon-brush" viewBox="0 0 32 32">
<title>brush</title>
<path fill="#c5c41d" style="fill: var(--color1, #c5c41d)" d="M17.131 19.752c-1.852 0-2.688-0.142-2.927-0.235l-6.058-14.29c-0.020-0.051-0.031-0.111-0.031-0.173 0-0.206 0.126-0.382 0.304-0.456l5.808-2.197c0.047-0.018 0.101-0.029 0.158-0.029 0 0 0 0 0 0 0.216 0.004 0.4 0.142 0.471 0.334l4.912 14.709c-0.192 0.392-1.283 1.468-2.295 2.335-0.088 0.001-0.205 0.002-0.342 0.002z"></path>
<path fill="#c5c41d" style="fill: var(--color1, #c5c41d)" d="M14.377 2.891l4.826 14.448c-0.596 0.688-1.224 1.309-1.898 1.88l-0.175 0.021c-0.114 0.003-0.247 0.005-0.382 0.005-0.766 0-1.519-0.058-2.254-0.169l-5.863-14.011 5.745-2.173zM14.384 1.86c-0.122 0-0.239 0.023-0.346 0.064l-5.798 2.194c-0.376 0.153-0.637 0.516-0.637 0.94 0 0.133 0.026 0.26 0.072 0.377l6.097 14.38c0.152 0.401 2.327 0.449 3.357 0.449 0.323 0 0.534-0.005 0.534-0.005s2.822-2.381 2.622-2.908l-4.951-14.823c-0.148-0.39-0.517-0.664-0.951-0.668z"></path>
<path fill="#aeaeb0" style="fill: var(--color2, #aeaeb0)" d="M23.491 29.454c-4.85-1.522-7.712-3.351-8.512-5.439-0.538-1.406-0.217-2.964 1.043-5.044l2.832-0.671c1.651 0.906 4.244 2.819 3.827 4.444-0.047 0.183-0.094 0.36-0.14 0.534-0.508 1.907-0.952 3.571 0.95 6.177z"></path>
<path fill="#c5c41d" style="fill: var(--color1, #c5c41d)" d="M18.78 18.843c2.51 1.412 3.616 2.953 3.405 3.773-0.046 0.181-0.093 0.357-0.139 0.529-0.44 1.651-0.861 3.23 0.256 5.374-3.877-1.37-6.176-2.945-6.844-4.687-0.461-1.205-0.187-2.574 0.893-4.413l2.429-0.576zM18.884 17.777c-0.032 0-0.063 0.004-0.092 0.011l-2.934 0.695c-0.1 0.023-0.183 0.081-0.236 0.161-2.34 3.83-3.008 8.095 8.317 11.482 0.029 0.009 0.062 0.014 0.097 0.014 0 0 0 0 0.001 0 0.239 0 0.454-0.245 0.315-0.415-2.458-2.989-1.771-4.521-1.173-6.856 0.608-2.374-3.449-4.681-4.15-5.060-0.040-0.021-0.088-0.034-0.139-0.034-0.002 0-0.003 0-0.005 0z"></path>
<path fill="#c5c41d" style="fill: var(--color1, #c5c41d)" d="M21.911 25.627c-2.797-1.482-3.377 1.904-5.99-0.317l4.508 3.086 2.236 0.558z"></path>
</symbol>
<symbol id="icon-brushsize" viewBox="0 0 32 32">
<title>brushsize</title>
<path fill="#c5c41d" style="fill: var(--color1, #c5c41d)" d="M22.552 4.651c4.532 2.617 5.273 9.819 1.654 16.087s-10.226 9.228-14.758 6.611c-4.532-2.617-5.273-9.819-1.654-16.087s10.226-9.228 14.758-6.611z"></path>
</symbol>
<symbol id="icon-caption" viewBox="0 0 32 32">
<title>caption</title>
<path fill="#aeaeb0" style="fill: var(--color2, #aeaeb0)" d="M8.702 8.452h14.596c0.824 0 1.492 0.668 1.492 1.492v12.113c0 0.824-0.668 1.492-1.492 1.492h-14.596c-0.824 0-1.492-0.668-1.492-1.492v-12.113c0-0.824 0.668-1.492 1.492-1.492z"></path>
<path fill="#c5c41d" style="fill: var(--color1, #c5c41d)" d="M23.298 8.964c0.541 0 0.98 0.439 0.98 0.98v12.112c0 0.541-0.439 0.98-0.98 0.98h-14.596c-0.541 0-0.98-0.439-0.98-0.98v-12.112c0-0.541 0.439-0.98 0.98-0.98h14.596zM23.298 7.94h-14.596c-1.106 0.001-2.003 0.898-2.004 2.004v12.113c0.001 1.106 0.898 2.003 2.004 2.004h14.596c1.106-0.001 2.003-0.898 2.004-2.004v-12.113c-0.001-1.106-0.898-2.003-2.004-2.004z"></path>
<path fill="#c5c41d" style="fill: var(--color1, #c5c41d)" d="M23.156 18.33v1.795c-0.001 0.348-0.283 0.629-0.63 0.631h-1.075l-0.872 0.597c-0.011 0.007-0.023 0.012-0.037 0.012-0.037 0-0.067-0.030-0.067-0.067 0-0.001 0-0.003 0-0.004l0.028-0.537h-0.812c-0.348-0.001-0.629-0.283-0.631-0.63v-1.796c0.001-0.348 0.283-0.629 0.63-0.631h2.835c0.348 0.001 0.629 0.283 0.631 0.63z"></path>
<path fill="#c5c41d" style="fill: var(--color1, #c5c41d)" d="M10.1 19.328h7.168v0.512h-7.168v-0.512z"></path>
</symbol>
<symbol id="icon-center" viewBox="0 0 32 32">
<title>center</title>
<path fill="#aeaeb0" style="fill: var(--color2, #aeaeb0)" d="M8.702 8.452h14.596c0.824 0 1.492 0.668 1.492 1.492v12.113c0 0.824-0.668 1.492-1.492 1.492h-14.596c-0.824 0-1.492-0.668-1.492-1.492v-12.113c0-0.824 0.668-1.492 1.492-1.492z"></path>
<path fill="#c5c41d" style="fill: var(--color1, #c5c41d)" d="M23.298 8.964c0.541 0 0.98 0.439 0.98 0.98v12.112c0 0.541-0.439 0.98-0.98 0.98h-14.596c-0.541 0-0.98-0.439-0.98-0.98v-12.112c0-0.541 0.439-0.98 0.98-0.98h14.596zM23.298 7.94h-14.596c-1.106 0.001-2.003 0.898-2.004 2.004v12.113c0.001 1.106 0.898 2.003 2.004 2.004h14.596c1.106-0.001 2.003-0.898 2.004-2.004v-12.113c-0.001-1.106-0.898-2.003-2.004-2.004z"></path>
<path fill="#c5c41d" style="fill: var(--color1, #c5c41d)" d="M7.36 15.744h17.28v0.512h-17.28v-0.512z"></path>
<path fill="#c5c41d" style="fill: var(--color1, #c5c41d)" d="M15.744 8.55h0.512v14.9h-0.512v-14.9z"></path>
</symbol>
<symbol id="icon-color" viewBox="0 0 32 32">
<title>color</title>
<path fill="#aeaeb0" style="fill: var(--color2, #aeaeb0)" d="M23.291 9.216h-14.592l0.768 2.56v9.792c0 0.672 0.544 1.216 1.216 1.216h10.624c0.672 0 1.216-0.544 1.216-1.216v-9.913z"></path>
<path fill="#4782ff" style="fill: var(--color3, #4782ff)" d="M9.979 14.080l2.488-0.512c2.798-0.512 4.261 0.768 6.747 0.768l2.798-0.256v7.612c0 0 0 0 0 0 0 0.32-0.26 0.58-0.58 0.58-0 0-0.001 0-0.001 0h-10.872c-0.32 0-0.58-0.26-0.58-0.58z"></path>
<path fill="#c5c41d" style="fill: var(--color1, #c5c41d)" d="M21.307 23.296h-10.624c-0.954-0.001-1.727-0.774-1.728-1.728v-9.717l-0.944-3.147h15.979l-0.954 3.030v9.834c-0.001 0.954-0.774 1.727-1.728 1.728zM9.387 9.728l0.592 1.973v9.867c0 0.389 0.315 0.704 0.704 0.704h10.624c0.389-0 0.704-0.315 0.704-0.704v-9.991l0.582-1.849z"></path>
</symbol>
<symbol id="icon-cycle" viewBox="0 0 32 32">
<title>cycle</title>
<path fill="#c5c41d" style="fill: var(--color1, #c5c41d)" d="M26.048 14.18c-0 0-0.001 0-0.001 0-0.968 0-1.752 0.785-1.752 1.752 0 0 0 0 0 0v0c-0.002 2.737-2.222 4.955-4.959 4.955-0 0-0 0-0.001 0h-6.885v-3.073l-6.495 4.826 6.495 4.827v-3.073h6.885c4.67-0.006 8.453-3.79 8.459-8.459 0-0.001 0-0.002 0-0.002 0-0.966-0.781-1.749-1.746-1.752z"></path>
<path fill="#c5c41d" style="fill: var(--color1, #c5c41d)" d="M7.495 15.933c0.005-2.734 2.221-4.948 4.954-4.951h6.885v3.072l6.495-4.829-6.495-4.826v3.073h-6.885c-4.67 0.005-8.455 3.789-8.461 8.459 0 0.969 0.785 1.754 1.754 1.754s1.754-0.785 1.754-1.754z"></path>
</symbol>
<symbol id="icon-delete" viewBox="0 0 32 32">
<title>delete</title>
<path fill="#aeaeb0" style="fill: var(--color2, #aeaeb0)" d="M7.488 6.4h15.999c0.884 0 1.6 0.716 1.6 1.6v14.463c0 0.884-0.716 1.6-1.6 1.6h-15.999c-0.884 0-1.6-0.716-1.6-1.6v-14.463c0-0.884 0.716-1.6 1.6-1.6z"></path>
<path fill="#c5c41d" style="fill: var(--color1, #c5c41d)" d="M23.488 6.912c0.601 0.001 1.088 0.488 1.088 1.088v14.464c-0.001 0.601-0.488 1.087-1.088 1.088h-16c-0.601-0.001-1.087-0.488-1.088-1.088v-14.464c0.001-0.601 0.488-1.087 1.088-1.088h16zM23.488 5.888h-16c-1.167 0-2.112 0.946-2.112 2.112v14.464c0 1.166 0.946 2.112 2.112 2.112h16c1.166-0 2.112-0.946 2.112-2.112v-14.464c-0-1.166-0.946-2.112-2.112-2.112z"></path>
<path fill="#c5c41d" style="fill: var(--color1, #c5c41d)" d="M6.144 19.456h18.688v4.352h-18.688v-4.352z"></path>
<path fill="#c5c41d" style="fill: var(--color1, #c5c41d)" d="M6.144 6.912h18.688v2.048h-18.688v-2.048z"></path>
<path fill="#aeaeb0" style="fill: var(--color2, #aeaeb0)" d="M21.193 23.062l0.242-0.314c0.326-0.421 0.653-0.795 1-1.149-0.473-0.227-1.020-0.405-1.594-0.505l-1.102-0.179 2.935-2.599 0.32 0.185c0.67 0.391 1.247 0.798 1.787 1.249 0.623-0.435 1.363-0.79 2.148-1.043l0.584-0.159 0.467 2.119-0.419 0.154c-0.432 0.18-0.801 0.379-1.147 0.61 0.531 0.581 0.971 1.258 1.318 1.988l0.231 0.551-1.99 0.726-0.225-0.325c-0.361-0.485-0.749-0.912-1.173-1.299-0.425 0.492-0.788 1.060-1.071 1.671l-0.37 0.818z"></path>
<path fill="#c5c41d" style="fill: var(--color1, #c5c41d)" d="M22.738 18.944c0.748 0.436 1.396 0.908 1.991 1.436 0.681-0.496 1.48-0.899 2.334-1.18l0.321 1.14c-0.651 0.272-1.212 0.6-1.723 0.991 0.65 0.662 1.186 1.438 1.598 2.286l-1.090 0.462c-0.486-0.654-1.028-1.224-1.63-1.722-0.62 0.623-1.125 1.36-1.501 2.17l-1.199-1.465c0.452-0.583 0.93-1.1 1.448-1.574-0.684-0.43-1.495-0.742-2.36-0.896l1.81-1.647zM22.612 17.688l-4.019 3.56 2.129 0.347c0.319 0.053 0.598 0.124 0.868 0.216q-0.309 0.298-0.56 0.624l-0.484 0.628 2.704 3.479 0.701-1.542c0.206-0.448 0.43-0.831 0.687-1.189 0.233 0.274 0.464 0.545 0.677 0.831l0.466 0.666 0.741-0.267 2.122-0.774-0.415-0.99c-0.304-0.655-0.648-1.219-1.047-1.739 0.163-0.062 0.34-0.149 0.523-0.224l0.871-0.32-0.192-0.873-0.256-1.158-0.23-1.050-1.036 0.28c-0.785 0.246-1.466 0.558-2.099 0.941-0.411-0.383-0.918-0.731-1.45-1.043l-0.702-0.403z"></path>
</symbol>
<symbol id="icon-dialogue" viewBox="0 0 32 32">
<title>dialogue</title>
<path fill="#c5c41d" style="fill: var(--color1, #c5c41d)" d="M28.16 9.376v10.661c-0.006 2.065-1.679 3.738-3.744 3.744h-6.391l-5.176 3.543c-0.062 0.043-0.14 0.069-0.223 0.069-0.218 0-0.395-0.177-0.395-0.395 0-0.008 0-0.016 0.001-0.024l0.167-3.193h-4.815c-2.065-0.006-3.738-1.679-3.744-3.744v-10.661c0.007-2.065 1.679-3.737 3.744-3.744h16.832c2.065 0.006 3.738 1.678 3.744 3.743z"></path>
<path fill="#aeaeb0" style="fill: var(--color2, #aeaeb0)" d="M22.715 11.439h-13.43c-0.005 0-0.011 0-0.017 0-0.601 0-1.089-0.488-1.089-1.089s0.488-1.089 1.089-1.089c0.006 0 0.012 0 0.018 0h13.429c0.005-0 0.011-0 0.017-0 0.601 0 1.089 0.488 1.089 1.089s-0.488 1.089-1.089 1.089c-0.006 0-0.012-0-0.018-0z"></path>
<path fill="#aeaeb0" style="fill: var(--color2, #aeaeb0)" d="M22.715 15.795h-13.43c-0.005 0-0.011 0-0.017 0-0.601 0-1.089-0.488-1.089-1.089s0.488-1.089 1.089-1.089c0.006 0 0.012 0 0.018 0h13.429c0.005-0 0.011-0 0.017-0 0.601 0 1.089 0.488 1.089 1.089s-0.488 1.089-1.089 1.089c-0.006 0-0.012-0-0.018-0z"></path>
<path fill="#aeaeb0" style="fill: var(--color2, #aeaeb0)" d="M22.715 20.151h-13.43c-0.005 0-0.011 0-0.017 0-0.601 0-1.089-0.488-1.089-1.089s0.488-1.089 1.089-1.089c0.006 0 0.012 0 0.018 0h13.429c0.005-0 0.011-0 0.017-0 0.601 0 1.089 0.488 1.089 1.089s-0.488 1.089-1.089 1.089c-0.006 0-0.012-0-0.018-0z"></path>
</symbol>
<symbol id="icon-duplicate" viewBox="0 0 32 32">
<title>duplicate</title>
<path fill="#aeaeb0" style="fill: var(--color2, #aeaeb0)" d="M11.712 7.249h11.391c0.884 0 1.6 0.716 1.6 1.6v10.205c0 0.884-0.716 1.6-1.6 1.6h-11.392c-0.884 0-1.6-0.716-1.6-1.6v-10.205c0-0.884 0.716-1.6 1.6-1.6z"></path>
<path fill="#c5c41d" style="fill: var(--color1, #c5c41d)" d="M23.104 7.761c0.601 0.001 1.088 0.488 1.088 1.088v10.206c-0.001 0.601-0.488 1.088-1.088 1.088h-11.392c-0.601-0.001-1.087-0.488-1.088-1.088v-10.206c0.001-0.601 0.488-1.088 1.088-1.088h11.392zM23.104 6.737h-11.392c-1.167 0-2.112 0.946-2.112 2.112v10.206c0 1.167 0.946 2.112 2.112 2.112h11.392c1.166-0 2.112-0.946 2.112-2.112v-10.206c0-1.167-0.946-2.112-2.112-2.112z"></path>
<path fill="#c5c41d" style="fill: var(--color1, #c5c41d)" d="M10.193 17.213h14.43v3.36h-14.43v-3.361z"></path>
<path fill="#c5c41d" style="fill: var(--color1, #c5c41d)" d="M10.193 7.528h14.43v1.581h-14.43v-1.581z"></path>
<path fill="#aeaeb0" style="fill: var(--color2, #aeaeb0)" d="M8.896 11.345h11.392c0.884 0 1.6 0.716 1.6 1.6v10.205c0 0.884-0.716 1.6-1.6 1.6h-11.392c-0.884 0-1.6-0.716-1.6-1.6v-10.205c0-0.884 0.716-1.6 1.6-1.6z"></path>
<path fill="#c5c41d" style="fill: var(--color1, #c5c41d)" d="M20.288 11.857c0.601 0.001 1.088 0.488 1.088 1.088v10.206c-0.001 0.601-0.488 1.088-1.088 1.088h-11.392c-0.601-0.001-1.087-0.488-1.088-1.088v-10.206c0.001-0.601 0.488-1.088 1.088-1.088h11.392zM20.288 10.833h-11.392c-1.167 0-2.112 0.946-2.112 2.112v10.206c0 1.167 0.946 2.112 2.112 2.112h11.392c1.166-0 2.112-0.946 2.112-2.112v-10.206c0-1.167-0.946-2.112-2.112-2.112z"></path>
<path fill="#c5c41d" style="fill: var(--color1, #c5c41d)" d="M7.377 21.309h14.43v3.361h-14.43v-3.361z"></path>
<path fill="#c5c41d" style="fill: var(--color1, #c5c41d)" d="M7.377 11.624h14.43v1.581h-14.43v-1.581z"></path>
</symbol>
<symbol id="icon-duration" viewBox="0 0 32 32">
<title>duration</title>
<path fill="#aeaeb0" style="fill: var(--color2, #aeaeb0)" d="M25.23 17.28c0 4.948-4.126 8.96-9.216 8.96s-9.216-4.012-9.216-8.96c0-4.948 4.126-8.96 9.216-8.96s9.216 4.012 9.216 8.96z"></path>
<path fill="#c5c41d" style="fill: var(--color1, #c5c41d)" d="M16 27.717c-5.946 0-10.766-4.82-10.766-10.766s4.82-10.766 10.766-10.766c5.946 0 10.766 4.82 10.766 10.766-0.007 5.943-4.823 10.76-10.765 10.766zM16 9.79c-3.955 0-7.161 3.206-7.161 7.161s3.206 7.161 7.161 7.161c3.955 0 7.161-3.206 7.161-7.161-0.004-3.953-3.208-7.157-7.16-7.161z"></path>
<path fill="#c5c41d" style="fill: var(--color1, #c5c41d)" d="M20.128 20.696l-5.029-3.255v-6.466h1.803v5.485l4.206 2.722-0.98 1.514z"></path>
<path fill="#c5c41d" style="fill: var(--color1, #c5c41d)" d="M14.197 6.086h3.605v1.901h-3.605v-1.901z"></path>
<path fill="#c5c41d" style="fill: var(--color1, #c5c41d)" d="M13.555 4.283h4.889v1.803h-4.889v-1.803z"></path>
</symbol>
<symbol id="icon-eraser" viewBox="0 0 32 32">
<title>eraser</title>
<path fill="#aeaeb0" style="fill: var(--color2, #aeaeb0)" d="M23.971 26.038c-0.045-0-0.090-0.002-0.134-0.007l-8.652-0.891c-1.051-0.108-1.917-0.799-2.277-1.741l-5.977-15.838c-0.048-0.124-0.076-0.267-0.076-0.417 0-0.65 0.525-1.177 1.174-1.181 0.046 0 0.090 0.002 0.134 0.007l9.611 0.991c0.453 0.046 0.826 0.344 0.981 0.749l6.314 16.73c0.048 0.124 0.076 0.267 0.076 0.417 0 0.65-0.525 1.177-1.174 1.181z"></path>
<path fill="#c5c41d" style="fill: var(--color1, #c5c41d)" d="M8.030 6.474c0 0 0 0 0 0 0.026 0 0.053 0.001 0.078 0.004l9.613 0.991c0.256 0.026 0.468 0.195 0.556 0.424l6.312 16.726c0.028 0.071 0.045 0.152 0.045 0.238 0 0.141-0.045 0.272-0.121 0.378-0.119 0.173-0.317 0.287-0.543 0.288-0 0-0.001 0-0.001 0-0.026 0-0.052-0.001-0.078-0.004l-8.654-0.892c-0.855-0.088-1.559-0.649-1.851-1.415l-5.976-15.836c-0.028-0.071-0.045-0.152-0.045-0.238 0-0.141 0.045-0.272 0.121-0.378 0.119-0.173 0.318-0.287 0.543-0.288zM8.030 5.45c-0.932 0.004-1.686 0.761-1.686 1.693 0 0.215 0.040 0.42 0.113 0.609l5.967 15.809c0.438 1.137 1.464 1.955 2.695 2.086l8.672 0.894c0.054 0.006 0.116 0.009 0.179 0.009 0.932-0.004 1.686-0.76 1.686-1.693 0-0.215-0.040-0.42-0.113-0.609l-6.307-16.71c-0.228-0.592-0.762-1.017-1.402-1.086l-9.624-0.992c-0.054-0.006-0.116-0.009-0.179-0.009z"></path>
<path fill="#c5c41d" style="fill: var(--color1, #c5c41d)" d="M7.757 5.972l10.472 0.601 3.824 10.131-10.131 3.824-5.043-13.361c-0.036-0.093-0.057-0.201-0.057-0.313 0-0.488 0.396-0.884 0.884-0.884 0.018 0 0.036 0.001 0.054 0.002z"></path>
</symbol>
<symbol id="icon-fill" viewBox="0 0 32 32">
<title>fill</title>
<path fill="#4782ff" style="fill: var(--color3, #4782ff)" d="M15.643 25.226c-0 0-0.001 0-0.001 0-0.091 0-0.176-0.024-0.249-0.067l-10.481-5.903c-0.157-0.090-0.261-0.256-0.261-0.446 0-0.092 0.024-0.179 0.067-0.254l6.532-11.596 13.099 7.378-3.546 2.263-4.71 8.364c-0.090 0.156-0.257 0.26-0.447 0.26-0.001 0-0.002 0-0.002 0z"></path>
<path fill="#4782ff" style="fill: var(--color3, #4782ff)" d="M25.557 23.663c-0.986 0-2.048-0.801-2.048-2.56 0-1.748 1.273-3.822 1.934-4.78 0.661 0.907 1.906 2.869 1.906 4.78 0 1.604-0.67 2.56-1.792 2.56z"></path>
<path fill="#c5c41d" style="fill: var(--color1, #c5c41d)" d="M25.452 17.24c0.624 0.969 1.385 2.443 1.385 3.863 0 0.616-0.125 2.048-1.28 2.048-0.765 0-1.536-0.633-1.536-2.048 0-1.24 0.758-2.774 1.431-3.863zM25.429 15.471s-2.432 3.072-2.432 5.632c0 1.979 1.217 3.072 2.56 3.072s2.304-1.093 2.304-3.072c0-2.816-2.432-5.632-2.432-5.632z"></path>
<path fill="#aeaeb0" style="fill: var(--color2, #aeaeb0)" d="M24.277 14.447l-1.28 0.256c-2.56-0.256-5.888 1.024-8.96-0.256v0c-1.28-0.512-3.328-0.768-6.4 0h-0.512l4.096-7.424z"></path>
<path fill="#c5c41d" style="fill: var(--color1, #c5c41d)" d="M11.443 7.657l11.91 6.707-2.934 1.873-0.125 0.223-4.648 8.254-10.483-5.905 6.281-11.153zM11.054 6.262l-6.784 12.045c-0.082 0.144-0.131 0.317-0.131 0.501 0 0.381 0.207 0.713 0.515 0.891l10.488 5.908c0.143 0.082 0.316 0.131 0.499 0.131 0 0 0 0 0.001 0s0.001 0 0.002 0c0.381 0 0.714-0.208 0.891-0.517l4.652-8.257 4.129-2.637c0.002-0.004 0.004-0.009 0.004-0.014 0-0.011-0.006-0.020-0.015-0.025l-14.25-8.025z"></path>
</symbol>
<symbol id="icon-fx" viewBox="0 0 32 32">
<title>fx</title>
<path fill="#c5c41d" style="fill: var(--color1, #c5c41d)" d="M12.742 8.299l1.181-2.676 0.322 2.908 2.676 1.181-2.908 0.322-1.181 2.676-0.322-2.908-2.676-1.181 2.908-0.322z"></path>
<path fill="#c5c41d" style="fill: var(--color1, #c5c41d)" d="M22.205 6.233l1.032-2.338 0.281 2.54 2.338 1.032-2.54 0.281-1.032 2.338-0.281-2.54-2.337-1.032 2.54-0.281z"></path>
<path fill="#c5c41d" style="fill: var(--color1, #c5c41d)" d="M22.267 16.883l0.786-1.78 0.214 1.934 1.78 0.786-1.934 0.214-0.786 1.78-0.214-1.934-1.78-0.786 1.934-0.214z"></path>
<path fill="#c5c41d" style="fill: var(--color1, #c5c41d)" d="M7.526 27.901l-1.055-0.867c-0.201-0.166-0.328-0.415-0.328-0.693 0-0.217 0.077-0.416 0.205-0.571l12.489-14.708c0.055-0.065 0.137-0.106 0.228-0.106 0.068 0 0.132 0.023 0.182 0.062l1.411 1.075c0.072 0.055 0.118 0.142 0.118 0.238 0 0.070-0.024 0.134-0.064 0.185l-11.924 15.261c-0.166 0.201-0.415 0.329-0.694 0.329-0.217 0-0.416-0.077-0.571-0.205z"></path>
</symbol>
<symbol id="icon-grid" viewBox="0 0 32 32">
<title>grid</title>
<path fill="#aeaeb0" style="fill: var(--color2, #aeaeb0)" d="M8.702 8.452h14.596c0.824 0 1.492 0.668 1.492 1.492v12.113c0 0.824-0.668 1.492-1.492 1.492h-14.596c-0.824 0-1.492-0.668-1.492-1.492v-12.113c0-0.824 0.668-1.492 1.492-1.492z"></path>
<path fill="#c5c41d" style="fill: var(--color1, #c5c41d)" d="M23.298 8.964c0.541 0 0.98 0.439 0.98 0.98v12.112c0 0.541-0.439 0.98-0.98 0.98h-14.596c-0.541 0-0.98-0.439-0.98-0.98v-12.112c0-0.541 0.439-0.98 0.98-0.98h14.596zM23.298 7.94h-14.596c-1.106 0.001-2.003 0.898-2.004 2.004v12.113c0.001 1.106 0.898 2.003 2.004 2.004h14.596c1.106-0.001 2.003-0.898 2.004-2.004v-12.113c-0.001-1.106-0.898-2.003-2.004-2.004z"></path>
<path fill="#c5c41d" style="fill: var(--color1, #c5c41d)" d="M7.36 10.752h17.28v0.256h-17.28v-0.256z"></path>
<path fill="#c5c41d" style="fill: var(--color1, #c5c41d)" d="M7.36 13.312h17.28v0.256h-17.28v-0.256z"></path>
<path fill="#c5c41d" style="fill: var(--color1, #c5c41d)" d="M7.36 15.872h17.28v0.256h-17.28v-0.256z"></path>
<path fill="#c5c41d" style="fill: var(--color1, #c5c41d)" d="M7.36 18.432h17.28v0.256h-17.28v-0.256z"></path>
<path fill="#c5c41d" style="fill: var(--color1, #c5c41d)" d="M7.36 20.992h17.28v0.256h-17.28v-0.256z"></path>
<path fill="#c5c41d" style="fill: var(--color1, #c5c41d)" d="M9.472 8.55h0.256v14.9h-0.256v-14.9z"></path>
<path fill="#c5c41d" style="fill: var(--color1, #c5c41d)" d="M12.032 8.55h0.256v14.9h-0.256v-14.9z"></path>
<path fill="#c5c41d" style="fill: var(--color1, #c5c41d)" d="M14.592 8.55h0.256v14.9h-0.256v-14.9z"></path>
<path fill="#c5c41d" style="fill: var(--color1, #c5c41d)" d="M17.152 8.55h0.256v14.9h-0.256v-14.9z"></path>
<path fill="#c5c41d" style="fill: var(--color1, #c5c41d)" d="M19.712 8.55h0.256v14.9h-0.256v-14.9z"></path>
<path fill="#c5c41d" style="fill: var(--color1, #c5c41d)" d="M22.272 8.55h0.256v14.9h-0.256v-14.9z"></path>
</symbol>
<symbol id="icon-help" viewBox="0 0 32 32">
<title>help</title>
<path fill="#c5c41d" style="fill: var(--color1, #c5c41d)" d="M24.576 10.967v7.518c-0.004 1.457-1.184 2.637-2.64 2.641h-4.507l-3.651 2.499c-0.044 0.030-0.098 0.049-0.157 0.049-0.154 0-0.279-0.125-0.279-0.279 0-0.006 0-0.011 0-0.017l0.118-2.252h-3.396c-1.457-0.005-2.636-1.184-2.641-2.64v-7.519c0.004-1.457 1.184-2.636 2.64-2.641h11.871c1.457 0.005 2.636 1.184 2.641 2.64z"></path>
<path fill="#aeaeb0" style="fill: var(--color2, #aeaeb0)" d="M12.141 11.229h2.397l-0.279 4.695h-1.816zM13.351 16.438c0.002 0 0.004 0 0.006 0 0.659 0 1.193 0.534 1.193 1.193s-0.534 1.193-1.193 1.193c-0.657 0-1.19-0.531-1.193-1.187 0.003-0.657 0.532-1.189 1.187-1.199z"></path>
<path fill="#aeaeb0" style="fill: var(--color2, #aeaeb0)" d="M17.227 13.705c0.202-0.135 0.347-0.235 0.347-0.358 0-0.135-0.090-0.235-0.437-0.235-0.386 0.032-0.727 0.207-0.974 0.469l-1.255-1.444c0.625-0.63 1.49-1.020 2.447-1.020 0.014 0 0.028 0 0.042 0 1.51-0 2.462 0.695 2.462 1.804 0 0.93-0.549 1.357-1.008 1.703-0.314 0.235-0.583 0.437-0.583 0.751-0 0.005-0 0.012-0 0.018 0 0.148 0.046 0.286 0.125 0.399l-1.771 0.401c-0.19-0.283-0.304-0.631-0.304-1.006 0-0.020 0-0.041 0.001-0.061-0-0.793 0.538-1.162 0.907-1.42zM17.462 16.438c0 0 0 0 0 0 0.662 0 1.199 0.537 1.199 1.199s-0.537 1.199-1.199 1.199c-0.662 0-1.199-0.537-1.199-1.199 0.009-0.658 0.54-1.19 1.198-1.199z"></path>
</symbol>
<symbol id="icon-import" viewBox="0 0 32 32">
<title>import</title>
<path fill="#aeaeb0" style="fill: var(--color2, #aeaeb0)" d="M8.371 21.295v-13.406h13.407c1.36 0.001 2.463 1.103 2.465 2.463v10.943z"></path>
<path fill="#c5c41d" style="fill: var(--color1, #c5c41d)" d="M21.778 8.401c1.078 0.001 1.952 0.874 1.953 1.952v10.431h-14.848v-12.382h12.895zM21.778 7.377h-13.556c-0.201 0.001-0.363 0.164-0.363 0.364 0 0 0 0 0 0v13.701c0 0.201 0.163 0.364 0.364 0.364h16.166c0 0 0.001 0 0.001 0 0.201 0 0.364-0.163 0.364-0.364 0 0 0 0 0 0v-11.090c0-0 0-0 0-0 0-1.643-1.332-2.976-2.976-2.976-0 0-0.001 0-0.001 0z"></path>
<path fill="#aeaeb0" style="fill: var(--color2, #aeaeb0)" d="M20.21 16.849h4.742c0.884 0 1.6 0.716 1.6 1.6v4.061c0 0.884-0.716 1.6-1.6 1.6h-4.742c-0.884 0-1.6-0.716-1.6-1.6v-4.061c0-0.884 0.716-1.6 1.6-1.6z"></path>
<path fill="#c5c41d" style="fill: var(--color1, #c5c41d)" d="M24.953 17.361c0.601 0.001 1.088 0.488 1.088 1.088v4.062c-0.001 0.601-0.488 1.088-1.088 1.088h-4.743c-0.6-0.001-1.086-0.488-1.087-1.088v-4.062c0.001-0.601 0.488-1.088 1.088-1.088h4.741zM24.953 16.337h-4.743c-1.166 0.001-2.111 0.946-2.111 2.112v4.062c0 1.167 0.946 2.112 2.112 2.112h4.741c1.167 0 2.112-0.946 2.112-2.112v-4.062c0-1.167-0.946-2.112-2.112-2.112z"></path>
<path fill="#c5c41d" style="fill: var(--color1, #c5c41d)" d="M18.438 22.353h8.286v0.252c0 0.926-0.751 1.677-1.677 1.677h-4.932c-0.926 0-1.677-0.751-1.677-1.677v-0.253cz"></path>
<path fill="#c5c41d" style="fill: var(--color1, #c5c41d)" d="M26.724 18.394h-8.286v-0.252c0-0.926 0.751-1.677 1.677-1.677h4.932c0.926 0 1.677 0.751 1.677 1.677v0.253cz"></path>
<path fill="#c5c41d" style="fill: var(--color1, #c5c41d)" d="M15.908 17.536l-2.227-4.041c-0.014-0.025-0.041-0.042-0.071-0.042-0.033 0-0.061 0.019-0.074 0.047l-0.341 0.749-5.115-2.327c-1.035-0.471-0.514-0.898-0.333-1.010 0.182-0.107 0.4-0.171 0.634-0.171 0.076 0 0.151 0.007 0.224 0.020l-0.008-0.003c-0.515-0.24-2.692-0.606-3.546 1.27-0.519 1.144-0.31 2.369 0.454 2.782v0l0.007 0.004 6.149 2.799-0.41 0.898c-0.005 0.010-0.007 0.022-0.007 0.034 0 0.045 0.036 0.081 0.081 0.081 0.006 0 0.012-0.001 0.018-0.002l4.512-0.967c0.037-0.008 0.065-0.040 0.065-0.080 0-0.015-0.004-0.029-0.011-0.041z"></path>
<path fill="#c5c41d" style="fill: var(--color1, #c5c41d)" d="M23.986 11.311h-3.072v-3.328h1.024v2.304h2.048v1.024z"></path>
</symbol>
<symbol id="icon-lightbox" viewBox="0 0 32 32">
<title>lightbox</title>
<path fill="#c5c41d" style="fill: var(--color1, #c5c41d)" d="M25.047 15.788c0 5.009-4.061 9.070-9.070 9.070s-9.070-4.061-9.070-9.070c0-5.009 4.061-9.070 9.070-9.070s9.070 4.061 9.070 9.070z"></path>
<path fill="#aeaeb0" style="fill: var(--color2, #aeaeb0)" d="M9.326 10.995h13.303v9.586h-13.303v-9.586z"></path>
<path fill="#c5c41d" style="fill: var(--color1, #c5c41d)" d="M6.099 8.643h19.757v1.9h-19.757v-1.9z"></path>
<path fill="#c5c41d" style="fill: var(--color1, #c5c41d)" d="M6.099 21.032h19.757v1.9h-19.757v-1.9z"></path>
</symbol>
<symbol id="icon-lightpencil" viewBox="0 0 32 32">
<title>lightpencil</title>
<path fill="#aeaeb0" style="fill: var(--color2, #aeaeb0)" d="M21.538 29.115c-2.074-1.351-4.173-2.812-4.48-3.186l-7.823-20.806c-0.034-0.063-0.054-0.138-0.054-0.217 0-0.161 0.082-0.303 0.206-0.386l5.085-1.912c0.024-0.009 0.052-0.015 0.081-0.015 0 0 0.001 0 0.001 0 0.206 0.028 0.373 0.173 0.431 0.365l7.824 20.81c0.016 0.484-0.601 2.966-1.272 5.349z"></path>
<path fill="#c5c41d" style="fill: var(--color1, #c5c41d)" d="M14.507 3.14v0l7.785 20.706c-0.048 0.572-0.526 2.512-1.060 4.454-1.681-1.11-3.32-2.254-3.732-2.653l-7.785-20.707 4.793-1.802zM14.554 2.078c-0 0-0.001 0-0.001 0-0.094 0-0.183 0.017-0.266 0.049l-5.078 1.911c-0.447 0.168-0.651 0.737-0.453 1.264l7.838 20.847c0.198 0.527 5.247 3.771 5.247 3.771s1.66-5.766 1.463-6.293l-7.838-20.847c-0.133-0.392-0.486-0.674-0.908-0.7z"></path>
<path fill="#c5c41d" style="fill: var(--color1, #c5c41d)" d="M22.542 23.64l-0.606-0.593-0.666 1.345-1.772-0.701-0.891 1.703-1.367-0.58-0.065 0.845-8.419-20.355 6.71-2.523 7.077 20.86z"></path>
<path fill="#c5c41d" style="fill: var(--color1, #c5c41d)" d="M21.901 26.069l-2.846 1.070 2.414 2.101 0.432-3.171z"></path>
</symbol>
<symbol id="icon-linemileage" viewBox="0 0 32 32">
<title>linemileage</title>
<path fill="#c5c41d" style="fill: var(--color1, #c5c41d)" d="M3.829 12.936l9.106-9.106c1.692-1.692 4.436-1.692 6.129 0l9.106 9.106c1.692 1.692 1.692 4.436 0 6.129l-9.106 9.106c-1.692 1.692-4.436 1.692-6.129 0l-9.106-9.106c-1.692-1.692-1.692-4.436 0-6.129z"></path>
<path fill="#aeaeb0" style="fill: var(--color2, #aeaeb0)" d="M15.154 22.207c-1.688-0.002-3.056-1.37-3.057-3.058v-4.606c0-0.006 0-0.012 0-0.019 0-0.754-0.611-1.365-1.365-1.365s-1.365 0.611-1.365 1.365c0 0.007 0 0.013 0 0.020v3.039h-1.693v-3.040c0-1.689 1.369-3.057 3.057-3.057s3.057 1.369 3.057 3.057v4.605c0 0.754 0.611 1.365 1.365 1.365s1.365-0.611 1.365-1.365v-4.605c0-1.689 1.369-3.057 3.057-3.057s3.057 1.369 3.057 3.057v2.672h-1.692v-2.672c0-0.754-0.611-1.365-1.365-1.365s-1.365 0.611-1.365 1.365v4.605c-0.001 1.688-1.37 3.057-3.058 3.058z"></path>
<path fill="#aeaeb0" style="fill: var(--color2, #aeaeb0)" d="M19.254 16.474l2.532 4.385 2.532-4.385h-5.064z"></path>
</symbol>
<symbol id="icon-mergedown" viewBox="0 0 32 32">
<title>mergedown</title>
<path fill="#c5c41d" style="fill: var(--color1, #c5c41d)" d="M25.101 16.78l-3.727-0.003c-0.022-1.958-0.931-3.912-2.739-5.424-3.721-3.113-8.968-1.797-11.962-0.208 3.137-0.151 5.187 0.602 6.602 1.874 1.203 1.083 1.875 2.399 1.89 3.753l-3.652-0.003c-0 0-0 0-0 0-0.111 0-0.2 0.090-0.2 0.2 0 0.045 0.015 0.087 0.040 0.12l6.788 6.893c0.037 0.049 0.095 0.081 0.161 0.081s0.124-0.032 0.161-0.080l6.802-6.883c0.025-0.033 0.041-0.075 0.041-0.121 0-0.111-0.090-0.2-0.2-0.2-0 0-0.001 0-0.001 0z"></path>
</symbol>
<symbol id="icon-mergeup" viewBox="0 0 32 32">
<title>mergeup</title>
<path fill="#c5c41d" style="fill: var(--color1, #c5c41d)" d="M24.914 15.211l-3.613 0.003c-0.021 1.898-0.902 3.793-2.655 5.259-3.608 3.018-8.695 1.742-11.597 0.201 3.041 0.146 5.029-0.584 6.4-1.818 1.167-1.050 1.818-2.326 1.832-3.639l-3.541 0.003c-0 0-0 0-0 0-0.107 0-0.194-0.087-0.194-0.194 0-0.044 0.014-0.084 0.039-0.116l6.58-6.682c0.036-0.048 0.092-0.079 0.156-0.079s0.12 0.031 0.156 0.078l6.594 6.674c0.024 0.032 0.038 0.072 0.038 0.116 0 0.107-0.087 0.194-0.194 0.194z"></path>
</symbol>
<symbol id="icon-move" viewBox="0 0 32 32">
<title>move</title>
<path fill="#c5c41d" style="fill: var(--color1, #c5c41d)" d="M5.678 5.146l-0.077 19.968 6.81-6.758 8.064 0.031-14.797-13.241z"></path>
<path fill="#c5c41d" style="fill: var(--color1, #c5c41d)" d="M23.702 17.42l-2.293 2.276 4.569 0.018-2.276-2.293z"></path>
<path fill="#c5c41d" style="fill: var(--color1, #c5c41d)" d="M22.976 19.535l1.436 0.006-0.014 3.59-1.436-0.006 0.014-3.59z"></path>
<path fill="#c5c41d" style="fill: var(--color1, #c5c41d)" d="M25.953 26.236l-4.569-0.018 2.276 2.293 2.294-2.276z"></path>
<path fill="#c5c41d" style="fill: var(--color1, #c5c41d)" d="M24.385 26.397l-1.436-0.006 0.014-3.59 1.436 0.006-0.014 3.59z"></path>
<path fill="#c5c41d" style="fill: var(--color1, #c5c41d)" d="M26.951 20.694l-0.018 4.569 2.293-2.276-2.276-2.293z"></path>
<path fill="#c5c41d" style="fill: var(--color1, #c5c41d)" d="M27.111 22.261l-0.006 1.436-3.59-0.014 0.006-1.436 3.59 0.014z"></path>
<path fill="#c5c41d" style="fill: var(--color1, #c5c41d)" d="M20.428 20.669l-2.293 2.276 2.276 2.293 0.018-4.569z"></path>
<path fill="#c5c41d" style="fill: var(--color1, #c5c41d)" d="M20.25 23.671l0.006-1.436 3.59 0.014-0.006 1.436-3.59-0.014z"></path>
</symbol>
<symbol id="icon-notes" viewBox="0 0 32 32">
<title>notes</title>
<path fill="#c5c41d" style="fill: var(--color1, #c5c41d)" d="M5.888 5.519h20.224c0.566 0 1.024 0.458 1.024 1.024v18.914c0 0.566-0.458 1.024-1.024 1.024h-20.224c-0.566 0-1.024-0.458-1.024-1.024v-18.914c0-0.566 0.458-1.024 1.024-1.024z"></path>
<path fill="#aeaeb0" style="fill: var(--color2, #aeaeb0)" d="M21.895 12.725h-12.119c-0.543 0-0.983-0.44-0.983-0.983s0.44-0.983 0.983-0.983h12.119c0.543 0 0.983 0.44 0.983 0.983s-0.44 0.983-0.983 0.983z"></path>
<path fill="#aeaeb0" style="fill: var(--color2, #aeaeb0)" d="M21.895 16.983h-12.119c-0.543 0-0.983-0.44-0.983-0.983s0.44-0.983 0.983-0.983h12.119c0.543 0 0.983 0.44 0.983 0.983s-0.44 0.983-0.983 0.983z"></path>
<path fill="#aeaeb0" style="fill: var(--color2, #aeaeb0)" d="M21.895 21.241h-12.119c-0.543 0-0.983-0.44-0.983-0.983s0.44-0.983 0.983-0.983h12.119c0.543 0 0.983 0.44 0.983 0.983s-0.44 0.983-0.983 0.983z"></path>
</symbol>
<symbol id="icon-onion" viewBox="0 0 32 32">
<title>onion</title>
<path fill="#aeaeb0" style="fill: var(--color2, #aeaeb0)" d="M15.581 23.074c-0.022 0-0.048 0.001-0.074 0.001-0.445 0-0.875-0.070-1.277-0.2l-7.187-2.575c-0.051-0.018-0.094-0.036-0.131-0.053 0.036-0.016 0.080-0.034 0.131-0.052l8.055-2.884c0.396-0.122 0.85-0.192 1.321-0.192s0.926 0.070 1.354 0.2l7.183 2.575c0.051 0.018 0.094 0.036 0.131 0.053-0.036 0.016-0.080 0.034-0.131 0.052l-8.055 2.884c-0.373 0.122-0.802 0.192-1.247 0.192-0.026 0-0.052-0-0.078-0.001z"></path>
<path fill="#c5c41d" style="fill: var(--color1, #c5c41d)" d="M16.419 17.63c0.023-0 0.049-0.001 0.076-0.001 0.383 0 0.752 0.059 1.098 0.169l5.99 2.147-6.855 2.454c-0.344 0.103-0.739 0.162-1.148 0.162s-0.804-0.059-1.178-0.169l-5.987-2.146 6.855-2.454c0.321-0.103 0.69-0.162 1.073-0.162 0.027 0 0.053 0 0.080 0.001zM16.419 16.606c-0.023-0-0.050-0.001-0.077-0.001-0.506 0-0.993 0.081-1.449 0.231l-8.022 2.875c-0.825 0.295-0.825 0.774 0 1.069l7.216 2.583c0.447 0.14 0.961 0.221 1.494 0.221s1.047-0.081 1.53-0.231l8.019-2.874c0.825-0.295 0.825-0.774 0-1.069l-7.216-2.583c-0.423-0.141-0.91-0.222-1.417-0.222-0.027 0-0.054 0-0.081 0.001z"></path>
<path fill="#aeaeb0" style="fill: var(--color2, #aeaeb0)" d="M15.581 18.978c-0.022 0-0.048 0.001-0.074 0.001-0.445 0-0.875-0.070-1.277-0.2l-7.187-2.575c-0.051-0.018-0.094-0.036-0.131-0.053 0.036-0.016 0.080-0.034 0.131-0.052l8.055-2.884c0.396-0.122 0.85-0.191 1.321-0.191s0.926 0.070 1.354 0.2l7.183 2.575c0.051 0.018 0.094 0.036 0.131 0.053-0.036 0.016-0.080 0.034-0.131 0.052l-8.055 2.884c-0.373 0.122-0.802 0.192-1.247 0.192-0.026 0-0.052-0-0.078-0.001z"></path>
<path fill="#c5c41d" style="fill: var(--color1, #c5c41d)" d="M16.419 13.534c0.023-0.001 0.049-0.001 0.076-0.001 0.383 0 0.752 0.059 1.098 0.169l5.99 2.147-6.855 2.454c-0.344 0.103-0.739 0.162-1.148 0.162s-0.804-0.059-1.178-0.169l-5.987-2.146 6.855-2.454c0.321-0.103 0.69-0.162 1.073-0.162 0.027 0 0.053 0 0.080 0.001zM16.419 12.51c-0.023-0-0.050-0.001-0.077-0.001-0.506 0-0.993 0.081-1.449 0.231l-8.022 2.875c-0.825 0.295-0.825 0.774 0 1.069l7.216 2.583c0.447 0.14 0.961 0.221 1.494 0.221s1.047-0.081 1.53-0.231l8.019-2.874c0.825-0.295 0.825-0.774 0-1.069l-7.216-2.583c-0.423-0.141-0.91-0.222-1.417-0.222-0.027 0-0.054 0-0.081 0.001z"></path>
<path fill="#aeaeb0" style="fill: var(--color2, #aeaeb0)" d="M15.581 14.882c-0.022 0-0.048 0.001-0.074 0.001-0.445 0-0.875-0.070-1.277-0.2l-7.187-2.575c-0.051-0.018-0.094-0.036-0.131-0.053 0.036-0.016 0.080-0.034 0.131-0.052l8.055-2.884c0.396-0.122 0.85-0.191 1.321-0.191s0.926 0.070 1.354 0.2l7.183 2.575c0.051 0.018 0.094 0.036 0.131 0.053-0.036 0.016-0.080 0.034-0.131 0.052l-8.055 2.884c-0.373 0.122-0.802 0.192-1.247 0.192-0.026 0-0.052-0-0.078-0.001z"></path>
<path fill="#c5c41d" style="fill: var(--color1, #c5c41d)" d="M16.419 9.438c0.023-0.001 0.049-0.001 0.076-0.001 0.383 0 0.752 0.059 1.098 0.169l5.99 2.147-6.855 2.454c-0.344 0.103-0.739 0.162-1.148 0.162s-0.804-0.059-1.178-0.169l-5.987-2.146 6.855-2.454c0.321-0.103 0.69-0.162 1.073-0.162 0.027 0 0.053 0 0.080 0.001zM16.419 8.414c-0.023-0-0.050-0.001-0.077-0.001-0.506 0-0.993 0.081-1.449 0.231l-8.022 2.875c-0.825 0.295-0.825 0.774 0 1.069l7.216 2.583c0.447 0.14 0.961 0.221 1.494 0.221s1.047-0.081 1.53-0.231l8.019-2.874c0.825-0.295 0.825-0.774 0-1.069l-7.216-2.583c-0.423-0.141-0.91-0.222-1.417-0.222-0.027 0-0.054 0-0.081 0.001z"></path>
</symbol>
<symbol id="icon-pen" viewBox="0 0 32 32">
<title>pen</title>
<path fill="#aeaeb0" style="fill: var(--color2, #aeaeb0)" d="M21.927 29.649c-2.974-2.082-6.016-4.308-6.475-4.808l-0.691-3.228-6.298-16.546c-0.020-0.051-0.031-0.111-0.031-0.173 0-0.078 0.018-0.152 0.050-0.218 0.061-0.128 0.169-0.229 0.302-0.28l6.168-2.346c0.059-0.023 0.128-0.037 0.2-0.037 0.002-0 0.005-0 0.008-0 0.216 0 0.401 0.132 0.48 0.319l6.299 16.549 1.629 2.871c-0.012 0.679-0.803 4.364-1.641 7.896z"></path>
<path fill="#c5c41d" style="fill: var(--color1, #c5c41d)" d="M15.152 2.525c0 0 0 0 0.001 0 0.005 0 0.010 0.001 0.015 0.003l6.306 16.572 1.573 2.77c-0.083 0.852-0.732 3.88-1.444 6.925-2.556-1.8-5.054-3.63-5.682-4.213l-0.667-3.115-0.028-0.073-6.279-16.499c0.006-0.010 0.015-0.017 0.025-0.021l6.162-2.345c0.005-0.002 0.012-0.003 0.018-0.004zM15.152 1.501c-0.137 0-0.268 0.026-0.389 0.073l-6.156 2.342c-0.402 0.151-0.683 0.532-0.683 0.979 0 0.126 0.022 0.247 0.064 0.36l6.28 16.503 0.705 3.293c0.2 0.526 7.278 5.448 7.278 5.448s2.014-8.38 1.813-8.908l-1.661-2.928-6.283-16.509c-0.155-0.385-0.525-0.652-0.958-0.652-0.004 0-0.007 0-0.011 0z"></path>
<path fill="#c5c41d" style="fill: var(--color1, #c5c41d)" d="M17.288 1.983c0.33-0.126 0.7 0.040 0.826 0.371l3.369 8.853c0.126 0.33-0.040 0.7-0.37 0.826s-0.7-0.040-0.826-0.37l-3.369-8.853c-0.126-0.33 0.040-0.7 0.37-0.826z"></path>
<path fill="#c5c41d" style="fill: var(--color1, #c5c41d)" d="M16.040 4.102l1.914-0.728 0.728 1.914-1.914 0.728-0.728-1.914z"></path>
<path fill="#c5c41d" style="fill: var(--color1, #c5c41d)" d="M8.373 4.828l7.178-2.732 6.374 16.748-7.178 2.732-6.374-16.748z"></path>
<path fill="#c5c41d" style="fill: var(--color1, #c5c41d)" d="M20.807 23.105c0.251 0.661-0.080 1.4-0.741 1.652s-1.4-0.080-1.652-0.741c-0.251-0.661 0.080-1.4 0.741-1.652s1.4 0.080 1.652 0.741z"></path>
<path fill="#c5c41d" style="fill: var(--color1, #c5c41d)" d="M19.553 24.13l0.479-0.182 1.912 5.024-0.479 0.182-1.912-5.024z"></path>
</symbol>
<symbol id="icon-pencil" viewBox="0 0 32 32">
<title>pencil</title>
<path fill="#aeaeb0" style="fill: var(--color2, #aeaeb0)" d="M22.547 29.773c-2.944-1.439-6.005-3.040-6.459-3.449l-8.638-20.453c-0.015-0.043-0.024-0.094-0.024-0.146 0-0.083 0.023-0.161 0.062-0.228 0.097-0.171 0.247-0.305 0.428-0.38l7.152-3.020c0.107-0.046 0.231-0.074 0.362-0.075 0.015-0.001 0.032-0.002 0.050-0.002 0.195 0 0.366 0.106 0.458 0.263l8.64 20.457c-0.023 0.61-1.009 3.919-2.031 7.033z"></path>
<path fill="#c5c41d" style="fill: var(--color1, #c5c41d)" d="M15.43 2.534c0.001 0 0.002 0 0.003 0 0.021 0 0.041 0.002 0.060 0.007l8.561 20.275c-0.111 0.766-0.947 3.568-1.811 6.239-2.518-1.242-5.109-2.597-5.734-3.052l-8.563-20.275c0.043-0.063 0.103-0.112 0.174-0.14l7.149-3.019c0.048-0.021 0.104-0.034 0.163-0.035zM15.431 1.51c-0.203 0.001-0.396 0.043-0.571 0.119l-7.138 3.014c-0.629 0.266-0.964 0.908-0.745 1.426l8.664 20.517c0.219 0.519 7.207 3.904 7.207 3.904s2.446-7.369 2.227-7.888l-8.666-20.517c-0.17-0.344-0.519-0.577-0.922-0.577-0.020 0-0.040 0.001-0.060 0.002z"></path>
<path fill="#c5c41d" style="fill: var(--color1, #c5c41d)" d="M24.033 22.765l-0.771-0.508-1.045 1.553-2.356-0.395-1.389 1.976-1.813-0.346-0.173 0.907-9.509-19.883 9.433-3.984 7.623 20.68z"></path>
<path fill="#c5c41d" style="fill: var(--color1, #c5c41d)" d="M23.313 26.404l-4.002 1.69 3.097 1.749 0.905-3.439z"></path>
</symbol>
<symbol id="icon-perspective" viewBox="0 0 32 32">
<title>perspective</title>
<path fill="#aeaeb0" style="fill: var(--color2, #aeaeb0)" d="M8.702 8.452h14.596c0.824 0 1.492 0.668 1.492 1.492v12.113c0 0.824-0.668 1.492-1.492 1.492h-14.596c-0.824 0-1.492-0.668-1.492-1.492v-12.113c0-0.824 0.668-1.492 1.492-1.492z"></path>
<path fill="#c5c41d" style="fill: var(--color1, #c5c41d)" d="M23.298 8.964c0.541 0 0.98 0.439 0.98 0.98v12.112c0 0.541-0.439 0.98-0.98 0.98h-14.596c-0.541 0-0.98-0.439-0.98-0.98v-12.112c0-0.541 0.439-0.98 0.98-0.98h14.596zM23.298 7.94h-14.596c-1.106 0.001-2.003 0.898-2.004 2.004v12.113c0.001 1.106 0.898 2.003 2.004 2.004h14.596c1.106-0.001 2.003-0.898 2.004-2.004v-12.113c-0.001-1.106-0.898-2.003-2.004-2.004z"></path>
<path fill="#c5c41d" style="fill: var(--color1, #c5c41d)" d="M7.643 9.284l0.33-0.391 16.384 13.824-0.33 0.391-16.384-13.824z"></path>
<path fill="#c5c41d" style="fill: var(--color1, #c5c41d)" d="M7.133 23.233l17.402-14.855 0.332 0.389-17.402 14.855-0.332-0.389z"></path>
</symbol>
<symbol id="icon-photoshop" viewBox="0 0 32 32">
<title>photoshop</title>
<path fill="#aeaeb0" style="fill: var(--color2, #aeaeb0)" d="M7.552 7.552h16.896v16.896h-16.896v-16.896z"></path>
<path fill="#c5c41d" style="fill: var(--color1, #c5c41d)" d="M25.216 25.216h-18.432v-18.432h18.432zM8.32 23.68h15.36v-15.36h-15.36z"></path>
<path fill="#c5c41d" style="fill: var(--color1, #c5c41d)" d="M10.953 12.586h3.137c1.459 0 2.253 0.986 2.253 2.162 0 1.167-0.805 2.142-2.253 2.142h-1.709v2.403h-1.428zM13.899 13.813h-1.518v1.85h1.518c0.018 0.001 0.039 0.002 0.060 0.002 0.512 0 0.927-0.415 0.927-0.927s-0.415-0.927-0.927-0.927c-0.021 0-0.042 0.001-0.062 0.002z"></path>
<path fill="#c5c41d" style="fill: var(--color1, #c5c41d)" d="M17.327 17.765c0.451 0.387 1.034 0.633 1.673 0.663 0.559 0 0.821-0.191 0.821-0.493 0-0.342-0.422-0.463-0.975-0.573-0.835-0.161-1.911-0.362-1.911-1.518 0-0.815 0.714-1.528 1.991-1.528 0.013-0 0.028-0 0.043-0 0.727 0 1.396 0.25 1.924 0.669l-0.518 0.87c-0.367-0.349-0.864-0.563-1.411-0.563-0.009 0-0.019 0-0.028 0-0.461 0-0.763 0.171-0.763 0.453 0 0.302 0.382 0.412 0.925 0.523 0.835 0.161 1.951 0.382 1.951 1.589 0 0.885-0.754 1.559-2.102 1.559-0.024 0.001-0.053 0.001-0.082 0.001-0.797 0-1.527-0.285-2.095-0.759z"></path>
</symbol>
<symbol id="icon-present" viewBox="0 0 32 32">
<title>present</title>
<path fill="#aeaeb0" style="fill: var(--color2, #aeaeb0)" d="M8 6.689h15.999c0.884 0 1.6 0.716 1.6 1.6v10.111c0 0.884-0.716 1.6-1.6 1.6h-15.999c-0.884 0-1.6-0.716-1.6-1.6v-10.111c0-0.884 0.716-1.6 1.6-1.6z"></path>
<path fill="#c5c41d" style="fill: var(--color1, #c5c41d)" d="M24 7.201c0.601 0.001 1.088 0.488 1.088 1.088v10.112c-0.001 0.601-0.488 1.088-1.088 1.088h-16c-0.601-0.001-1.087-0.488-1.088-1.088v-10.112c0.001-0.601 0.488-1.088 1.088-1.088h16zM24 6.176h-16c-1.167 0-2.112 0.946-2.112 2.112 0 0 0 0 0 0v10.112c0 1.167 0.946 2.112 2.112 2.112h16c1.166-0 2.112-0.946 2.112-2.112 0-0 0-0 0-0v-10.112c0-1.167-0.946-2.112-2.112-2.112z"></path>
<path fill="#c5c41d" style="fill: var(--color1, #c5c41d)" d="M6.656 7.201h18.688v1.024h-18.688v-1.024z"></path>
<path fill="#c5c41d" style="fill: var(--color1, #c5c41d)" d="M10.246 25.823l-0.502-0.893 5.616-3.159v-2.027h1.024v2.626l-6.138 3.453z"></path>
<path fill="#c5c41d" style="fill: var(--color1, #c5c41d)" d="M21.498 25.823l-6.138-3.453v-2.626h1.024v2.027l5.616 3.159-0.502 0.893z"></path>
<path fill="#c5c41d" style="fill: var(--color1, #c5c41d)" d="M14.19 11.041l4.864 2.808-4.864 2.808v-5.616z"></path>
</symbol>
<symbol id="icon-print" viewBox="0 0 32 32">
<title>print</title>
<path fill="#c5c41d" style="fill: var(--color1, #c5c41d)" d="M8 14.255h15.999c0.884 0 1.6 0.716 1.6 1.6v6.015c0 0.884-0.716 1.6-1.6 1.6h-15.999c-0.884 0-1.6-0.716-1.6-1.6v-6.015c0-0.884 0.716-1.6 1.6-1.6z"></path>
<path fill="#c5c41d" style="fill: var(--color1, #c5c41d)" d="M24 14.767c0.601 0.001 1.087 0.487 1.088 1.088v6.016c-0.001 0.601-0.488 1.088-1.088 1.088h-16c-0.601-0.001-1.087-0.488-1.088-1.088v-6.016c0.001-0.601 0.488-1.088 1.088-1.088h16zM24 13.743h-16c-1.167 0-2.112 0.946-2.112 2.112 0 0 0 0 0 0v6.016c0 1.167 0.946 2.112 2.112 2.112h16c1.166-0 2.112-0.946 2.112-2.112 0-0 0-0 0-0v-6.016c0-1.167-0.946-2.112-2.112-2.112z"></path>
<path fill="#aeaeb0" style="fill: var(--color2, #aeaeb0)" d="M9.169 23.936v-15.872h10.943c1.36 0.002 2.462 1.104 2.463 2.463v13.409z"></path>
<path fill="#c5c41d" style="fill: var(--color1, #c5c41d)" d="M20.111 8.576c1.077 0.001 1.95 0.874 1.951 1.951v12.897h-12.382v-14.848h10.43zM20.111 7.552h-11.090c-0.201 0-0.364 0.163-0.364 0.364v16.167c0 0.201 0.163 0.364 0.364 0.364h13.701c0.201 0 0.364-0.163 0.364-0.364v-13.556c0-1.643-1.332-2.976-2.976-2.976z"></path>
<path fill="#c5c41d" style="fill: var(--color1, #c5c41d)" d="M22.481 11.392h-3.328v-3.072h1.024v2.048h2.304v1.024z"></path>
<path fill="#c5c41d" style="fill: var(--color1, #c5c41d)" d="M6.912 14.511h18.688v7.424h-18.688v-7.424z"></path>
<path fill="#aeaeb0" style="fill: var(--color2, #aeaeb0)" d="M22.912 16.559c0.495 0 0.896 0.401 0.896 0.896s-0.401 0.896-0.896 0.896c-0.495 0-0.896-0.401-0.896-0.896s0.401-0.896 0.896-0.896z"></path>
</symbol>
<symbol id="icon-redo" viewBox="0 0 32 32">
<title>redo</title>
<path fill="#c5c41d" style="fill: var(--color1, #c5c41d)" d="M25.74 13.298l-3.067 1.435c-1.446-2.97-4.441-4.98-7.906-4.98-4.841 0-8.765 3.924-8.765 8.765 0 0.325 0.018 0.646 0.052 0.962 0.153-3.257 2.8-5.807 6.043-5.807 2.398 0 4.469 1.394 5.45 3.416l-2.989 1.442c-0.062 0.030-0.105 0.092-0.105 0.165 0 0.069 0.038 0.129 0.095 0.16l9.113 4.908c0.025 0.014 0.055 0.022 0.086 0.022 0.088 0 0.161-0.062 0.178-0.145l2.071-10.141c0.002-0.011 0.004-0.024 0.004-0.037 0-0.101-0.082-0.182-0.182-0.182-0.028 0-0.055 0.006-0.079 0.018z"></path>
</symbol>
<symbol id="icon-scale" viewBox="0 0 32 32">
<title>scale</title>
<path fill="#c5c41d" style="fill: var(--color1, #c5c41d)" d="M5.678 5.003l-0.077 19.968 6.81-6.758 8.064 0.031-14.797-13.241z"></path>
<path fill="#aeaeb0" style="fill: var(--color2, #aeaeb0)" d="M23.002 26.586l-0.006 1.524-6.144-0.024 0.019-4.864 1.821 0.007z"></path>
<path fill="#c5c41d" style="fill: var(--color1, #c5c41d)" d="M23.506 28.624l-7.168-0.028 0.023-5.888 2.333 0.009-0.004 1.024-1.309-0.005-0.015 3.84 5.12 0.020 0.004-1.012 1.024 0.004-0.008 2.036z"></path>
<path fill="#aeaeb0" style="fill: var(--color2, #aeaeb0)" d="M18.932 19.902l7.936 0.031-0.025 6.4-7.936-0.031 0.025-6.4z"></path>
<path fill="#c5c41d" style="fill: var(--color1, #c5c41d)" d="M27.353 26.847l-8.96-0.035 0.029-7.424 8.96 0.035zM19.421 25.792l6.912 0.026 0.021-5.376-6.912-0.026z"></path>
<path fill="#c5c41d" style="fill: var(--color1, #c5c41d)" d="M25.831 23.257l0.009-2.304-2.304-0.009 2.295 2.313z"></path>
<path fill="#c5c41d" style="fill: var(--color1, #c5c41d)" d="M24.407 21.653l0.721 0.727-1.454 1.443-0.721-0.727 1.454-1.443z"></path>
</symbol>
<symbol id="icon-scriptfile" viewBox="0 0 32 32">
<title>scriptfile</title>
<path fill="#c5c41d" style="fill: var(--color1, #c5c41d)" d="M16.081 17.787h9.648c0.321 0 0.581 0.26 0.581 0.581v4.696c0 0.321-0.26 0.581-0.581 0.581h-9.648c-0.321 0-0.581-0.26-0.581-0.581v-4.696c0-0.321 0.26-0.581 0.581-0.581z"></path>
<path fill="#c5c41d" style="fill: var(--color1, #c5c41d)" d="M19.829 24.208h2.15c0.321 0 0.581 0.26 0.581 0.581v1.024c0 0.321-0.26 0.581-0.581 0.581h-2.15c-0.321 0-0.581-0.26-0.581-0.581v-1.024c0-0.321 0.26-0.581 0.581-0.581z"></path>
<path fill="#c5c41d" style="fill: var(--color1, #c5c41d)" d="M16.081 24.208h2.15c0.321 0 0.581 0.26 0.581 0.581v1.024c0 0.321-0.26 0.581-0.581 0.581h-2.15c-0.321 0-0.581-0.26-0.581-0.581v-1.024c0-0.321 0.26-0.581 0.581-0.581z"></path>
<path fill="#c5c41d" style="fill: var(--color1, #c5c41d)" d="M23.578 24.208h2.15c0.321 0 0.581 0.26 0.581 0.581v1.024c0 0.321-0.26 0.581-0.581 0.581h-2.15c-0.321 0-0.581-0.26-0.581-0.581v-1.024c0-0.321 0.26-0.581 0.581-0.581z"></path>
<path fill="#c5c41d" style="fill: var(--color1, #c5c41d)" d="M26.677 30.464h-21.355c-2.090-0.002-3.784-1.696-3.787-3.786v-21.355c0.002-2.090 1.696-3.784 3.786-3.787h21.355c2.090 0.002 3.784 1.696 3.787 3.786v21.355c-0.002 2.090-1.696 3.784-3.786 3.787zM5.322 3.328c-1.101 0.001-1.993 0.893-1.994 1.994v21.355c0.001 1.101 0.893 1.993 1.994 1.994h21.355c1.101-0.001 1.993-0.893 1.994-1.994v-21.355c-0.001-1.101-0.893-1.993-1.994-1.994z"></path>
<path fill="#c5c41d" style="fill: var(--color1, #c5c41d)" d="M8.576 2.56h0.768v26.88h-0.768v-26.88z"></path>
<path fill="#c5c41d" style="fill: var(--color1, #c5c41d)" d="M2.304 8.32h6.784v0.768h-6.784v-0.768z"></path>
<path fill="#c5c41d" style="fill: var(--color1, #c5c41d)" d="M2.304 15.744h6.784v0.768h-6.784v-0.768z"></path>
<path fill="#c5c41d" style="fill: var(--color1, #c5c41d)" d="M2.304 23.168h6.784v0.768h-6.784v-0.768z"></path>
</symbol>
<symbol id="icon-showfile" viewBox="0 0 32 32">
<title>showfile</title>
<path fill="#c5c41d" style="fill: var(--color1, #c5c41d)" d="M8.32 9.193h7.311c0.565 0.002 1.022 0.459 1.024 1.024v0.612h7.025c0.565 0.002 1.022 0.459 1.024 1.024v9.933c-0.002 0.565-0.459 1.022-1.024 1.024h-15.36c-0.565-0.002-1.022-0.459-1.024-1.024v-11.569c0.002-0.565 0.459-1.022 1.024-1.024z"></path>
<path fill="#c5c41d" style="fill: var(--color1, #c5c41d)" d="M15.542 19.078c-1.528 0-2.767-1.239-2.767-2.767s1.239-2.767 2.767-2.767c1.528 0 2.767 1.239 2.767 2.767-0.002 1.527-1.239 2.765-2.767 2.767z"></path>
<path fill="#aeaeb0" style="fill: var(--color2, #aeaeb0)" d="M15.542 14.057c1.245 0 2.254 1.010 2.254 2.255s-1.009 2.255-2.255 2.255-2.255-1.009-2.255-2.255c0-1.245 1.009-2.255 2.255-2.255zM15.541 13.033c-1.81 0.001-3.278 1.468-3.278 3.279s1.468 3.279 3.279 3.279 3.279-1.468 3.279-3.279c-0.002-1.81-1.469-3.277-3.279-3.279z"></path>
<path fill="#aeaeb0" style="fill: var(--color2, #aeaeb0)" d="M16.747 18.891l0.837-0.591 1.804 2.555-0.837 0.591-1.804-2.555z"></path>
</symbol>
<symbol id="icon-storyboarderlogo" viewBox="0 0 32 32">
<title>storyboarderlogo</title>
<path fill="#c5c41d" style="fill: var(--color1, #c5c41d)" d="M6.88 1.792h18.24c2.81 0 5.088 2.278 5.088 5.088v18.24c0 2.81-2.278 5.088-5.088 5.088h-18.24c-2.81 0-5.088-2.278-5.088-5.088v-18.24c0-2.81 2.278-5.088 5.088-5.088z"></path>
<path fill="#aeaeb0" style="fill: var(--color2, #aeaeb0)" d="M6.825 16.77h10.556c0.321 0 0.581 0.26 0.581 0.581v5.187c0 0.321-0.26 0.581-0.581 0.581h-10.556c-0.321 0-0.581-0.26-0.581-0.581v-5.187c0-0.321 0.26-0.581 0.581-0.581z"></path>
<path fill="#aeaeb0" style="fill: var(--color2, #aeaeb0)" d="M10.889 23.73h2.428c0.321 0 0.581 0.26 0.581 0.581v1.208c0 0.321-0.26 0.581-0.581 0.581h-2.428c-0.321 0-0.581-0.26-0.581-0.581v-1.208c0-0.321 0.26-0.581 0.581-0.581z"></path>
<path fill="#aeaeb0" style="fill: var(--color2, #aeaeb0)" d="M6.825 23.73h2.428c0.321 0 0.581 0.26 0.581 0.581v1.208c0 0.321-0.26 0.581-0.581 0.581h-2.428c-0.321 0-0.581-0.26-0.581-0.581v-1.208c0-0.321 0.26-0.581 0.581-0.581z"></path>
<path fill="#aeaeb0" style="fill: var(--color2, #aeaeb0)" d="M14.953 23.73h2.428c0.321 0 0.581 0.26 0.581 0.581v1.208c0 0.321-0.26 0.581-0.581 0.581h-2.428c-0.321 0-0.581-0.26-0.581-0.581v-1.208c0-0.321 0.26-0.581 0.581-0.581z"></path>
<path fill="#aeaeb0" style="fill: var(--color2, #aeaeb0)" d="M25.234 16h-2.977c-0 0-0.001 0-0.001 0-0.288 0-0.521 0.233-0.521 0.521 0 0 0 0 0 0v7.893l1.745 2.209c0.063 0.079 0.158 0.129 0.266 0.129s0.203-0.050 0.265-0.128l1.745-2.211v-7.892c0-0.288-0.233-0.521-0.521-0.521z"></path>
</symbol>
<symbol id="icon-thirds" viewBox="0 0 32 32">
<title>thirds</title>
<path fill="#aeaeb0" style="fill: var(--color2, #aeaeb0)" d="M8.702 8.452h14.596c0.824 0 1.492 0.668 1.492 1.492v12.113c0 0.824-0.668 1.492-1.492 1.492h-14.596c-0.824 0-1.492-0.668-1.492-1.492v-12.113c0-0.824 0.668-1.492 1.492-1.492z"></path>
<path fill="#c5c41d" style="fill: var(--color1, #c5c41d)" d="M23.298 8.964c0.541 0 0.98 0.439 0.98 0.98v12.112c0 0.541-0.439 0.98-0.98 0.98h-14.596c-0.541 0-0.98-0.439-0.98-0.98v-12.112c0-0.541 0.439-0.98 0.98-0.98h14.596zM23.298 7.94h-14.596c-1.106 0.001-2.003 0.898-2.004 2.004v12.113c0.001 1.106 0.898 2.003 2.004 2.004h14.596c1.106-0.001 2.003-0.898 2.004-2.004v-12.113c-0.001-1.106-0.898-2.003-2.004-2.004z"></path>
<path fill="#c5c41d" style="fill: var(--color1, #c5c41d)" d="M7.36 12.16h17.28v0.512h-17.28v-0.512z"></path>
<path fill="#c5c41d" style="fill: var(--color1, #c5c41d)" d="M7.36 19.328h17.28v0.512h-17.28v-0.512z"></path>
<path fill="#c5c41d" style="fill: var(--color1, #c5c41d)" d="M11.84 8.55h0.512v14.9h-0.512v-14.9z"></path>
<path fill="#c5c41d" style="fill: var(--color1, #c5c41d)" d="M19.648 8.55h0.512v14.9h-0.512v-14.9z"></path>
</symbol>
<symbol id="icon-trash" viewBox="0 0 32 32">
<title>trash</title>
<path fill="#c5c41d" style="fill: var(--color1, #c5c41d)" d="M10.88 10.752h10.24c0.283 0 0.512 0.229 0.512 0.512v12.544c0 0.283-0.229 0.512-0.512 0.512h-10.24c-0.283 0-0.512-0.229-0.512-0.512v-12.544c0-0.283 0.229-0.512 0.512-0.512z"></path>
<path fill="#c5c41d" style="fill: var(--color1, #c5c41d)" d="M21.12 11.264v12.544h-10.24v-12.544h10.24zM21.12 10.24h-10.24c-0.565 0.002-1.022 0.459-1.024 1.024v12.544c0.002 0.565 0.459 1.022 1.024 1.024h10.24c0.565-0.002 1.022-0.459 1.024-1.024v-12.544c-0.002-0.565-0.459-1.022-1.024-1.024z"></path>
<path fill="#aeaeb0" style="fill: var(--color2, #aeaeb0)" d="M12.416 12.080h1.024v10.704h-1.024v-10.704z"></path>
<path fill="#aeaeb0" style="fill: var(--color2, #aeaeb0)" d="M15.488 12.080h1.024v10.704h-1.024v-10.704z"></path>
<path fill="#aeaeb0" style="fill: var(--color2, #aeaeb0)" d="M18.56 12.080h1.024v10.704h-1.024v-10.704z"></path>
<path fill="#c5c41d" style="fill: var(--color1, #c5c41d)" d="M8.32 10.112h15.36v1.792h-15.36v-1.792z"></path>
<path fill="#c5c41d" style="fill: var(--color1, #c5c41d)" d="M19.84 11.52h-7.68v-2.56c0.001-0.989 0.803-1.791 1.792-1.792h4.096c0.989 0.001 1.791 0.803 1.792 1.792zM13.696 9.984h4.608v-1.024c-0.002-0.141-0.115-0.254-0.256-0.256h-4.096c-0.141 0.002-0.254 0.115-0.256 0.256z"></path>
</symbol>
<symbol id="icon-undo" viewBox="0 0 32 32">
<title>undo</title>
<path fill="#c5c41d" style="fill: var(--color1, #c5c41d)" d="M25.549 15.437c-1.283-3.349-4.471-5.683-8.205-5.683-3.465 0-6.46 2.010-7.882 4.928l-3.418-1.537 2.193 10.735 9.647-5.197-3.333-1.559c0.996-2.058 3.068-3.453 5.466-3.453 2.579 0 4.782 1.613 5.653 3.886 0.242 0.648 0.379-0.8-0.119-2.122z"></path>
</symbol>
<symbol id="icon-wonderunitlogo" viewBox="0 0 32 32">
<title>wonderunitlogo</title>
<path fill="#c5c41d" style="fill: var(--color1, #c5c41d)" d="M17.509 17.866h6.903c0 0 0 0 0 0 0.577 0 1.046-0.468 1.046-1.046 0-0.192-0.052-0.373-0.143-0.528l-6.611-11.451c-0.55-0.94-1.554-1.561-2.703-1.561s-2.153 0.621-2.695 1.546l-1.661 2.878c-0.088 0.15-0.14 0.33-0.14 0.523s0.052 0.373 0.143 0.528l4.958 8.587c0.184 0.315 0.52 0.523 0.905 0.523 0 0 0 0 0 0z"></path>
<path fill="#c5c41d" style="fill: var(--color1, #c5c41d)" d="M27.276 20.736h-9.767c0 0-0 0-0 0-0.385 0-0.721 0.208-0.903 0.518l-3.404 5.897c-0.088 0.15-0.14 0.33-0.14 0.523 0 0.577 0.468 1.046 1.046 1.046 0 0 0 0 0 0h12.974c1.724-0 3.121-1.398 3.121-3.121 0-0.575-0.155-1.113-0.426-1.575l-1.596-2.763c-0.184-0.315-0.52-0.523-0.905-0.524z"></path>
<path fill="#c5c41d" style="fill: var(--color1, #c5c41d)" d="M8.779 12.667l-6.564 11.369c-0.263 0.448-0.418 0.986-0.418 1.561 0 1.724 1.397 3.121 3.121 3.121h3.461c0 0 0 0 0 0 0.385 0 0.721-0.208 0.903-0.518l4.836-8.376c0.088-0.15 0.14-0.33 0.14-0.523s-0.052-0.373-0.143-0.528l-3.526-6.107c-0.184-0.315-0.52-0.523-0.905-0.523s-0.721 0.208-0.903 0.518z"></path>
</symbol>
<symbol id="icon-x" viewBox="0 0 32 32">
<title>x</title>
<path fill="#c5c41d" style="fill: var(--color1, #c5c41d)" d="M9.057 6.108l16.835 16.835-2.95 2.95-16.835-16.835 2.95-2.95z"></path>
<path fill="#c5c41d" style="fill: var(--color1, #c5c41d)" d="M25.892 9.057l-16.835 16.835-2.95-2.95 16.835-16.835 2.95 2.95z"></path>
</symbol>
</defs>
</svg>
