<svg id="Layer_1" data-name="Layer 1" xmlns="http://www.w3.org/2000/svg" viewBox="0 0 200 200"><title>Artboard 1</title><path d="M170.624,9.4H28.376A26.376,26.376,0,0,0,2,35.781V163.219A26.376,26.376,0,0,0,28.376,189.6H170.624A26.376,26.376,0,0,0,197,163.219V35.781A26.376,26.376,0,0,0,170.624,9.4Zm13.589,153.814a13.6,13.6,0,0,1-13.589,13.589H28.376a13.6,13.6,0,0,1-13.589-13.589V35.781A13.6,13.6,0,0,1,28.376,22.192H170.624a13.6,13.6,0,0,1,13.589,13.589Z" style="fill:#e8e8e8"/><rect x="9.405" y="140.228" width="180.19" height="38.772" style="fill:#e8e8e8"/><rect x="9.405" y="19.278" width="180.19" height="19.747" style="fill:#e8e8e8"/></svg>