{
    "accessors" : [
        {
            "bufferView" : 0,
            "componentType" : 5126,
            "count" : 24,
            "max" : [
                0.8999999761581421,
                0.8999999761581421,
                0.8999999761581421
            ],
            "min" : [
                -0.8999999761581421,
                -0.8999999761581421,
                -0.8999999761581421
            ],
            "type" : "VEC3"
        },
        {
            "bufferView" : 1,
            "componentType" : 5126,
            "count" : 24,
            "type" : "VEC3"
        },
        {
            "bufferView" : 2,
            "componentType" : 5126,
            "count" : 24,
            "type" : "VEC2"
        },
        {
            "bufferView" : 3,
            "componentType" : 5121,
            "count" : 36,
            "type" : "SCALAR"
        },
        {
            "bufferView" : 4,
            "componentType" : 5126,
            "count" : 137,
            "max" : [
                0.5,
                21.440563201904297,
                0.8430979251861572
            ],
            "min" : [
                -1.7408872842788696,
                -0.5,
                -0.8207395076751709
            ],
            "type" : "VEC3"
        },
        {
            "bufferView" : 5,
            "componentType" : 5126,
            "count" : 137,
            "type" : "VEC3"
        },
        {
            "bufferView" : 6,
            "componentType" : 5126,
            "count" : 137,
            "type" : "VEC2"
        },
        {
            "bufferView" : 7,
            "componentType" : 5121,
            "count" : 240,
            "type" : "SCALAR"
        },
        {
            "bufferView" : 8,
            "componentType" : 5126,
            "count" : 63,
            "max" : [
                0.5,
                0.5,
                0.5
            ],
            "min" : [
                -0.5,
                -0.7108629941940308,
                -0.5
            ],
            "type" : "VEC3"
        },
        {
            "bufferView" : 9,
            "componentType" : 5126,
            "count" : 63,
            "type" : "VEC3"
        },
        {
            "bufferView" : 10,
            "componentType" : 5126,
            "count" : 63,
            "type" : "VEC2"
        },
        {
            "bufferView" : 11,
            "componentType" : 5121,
            "count" : 93,
            "type" : "SCALAR"
        },
        {
            "bufferView" : 12,
            "componentType" : 5126,
            "count" : 4,
            "max" : [
                1,
                0,
                1
            ],
            "min" : [
                -1,
                0,
                -1
            ],
            "type" : "VEC3"
        },
        {
            "bufferView" : 13,
            "componentType" : 5126,
            "count" : 4,
            "type" : "VEC3"
        },
        {
            "bufferView" : 14,
            "componentType" : 5126,
            "count" : 4,
            "type" : "VEC2"
        },
        {
            "bufferView" : 15,
            "componentType" : 5121,
            "count" : 6,
            "type" : "SCALAR"
        },
        {
            "bufferView" : 16,
            "componentType" : 5126,
            "count" : 354,
            "max" : [
                113.3817367553711,
                151.18646240234375,
                100
            ],
            "min" : [
                -100,
                0,
                -114.17431640625
            ],
            "type" : "VEC3"
        },
        {
            "bufferView" : 17,
            "componentType" : 5126,
            "count" : 354,
            "type" : "VEC3"
        },
        {
            "bufferView" : 18,
            "componentType" : 5126,
            "count" : 354,
            "type" : "VEC2"
        },
        {
            "bufferView" : 19,
            "componentType" : 5123,
            "count" : 648,
            "type" : "SCALAR"
        }
    ],
    "asset" : {
        "generator" : "Khronos Blender glTF 2.0 I/O",
        "version" : "2.0"
    },
    "bufferViews" : [
        {
            "buffer" : 0,
            "byteLength" : 288,
            "byteOffset" : 0
        },
        {
            "buffer" : 0,
            "byteLength" : 288,
            "byteOffset" : 288
        },
        {
            "buffer" : 0,
            "byteLength" : 192,
            "byteOffset" : 576
        },
        {
            "buffer" : 0,
            "byteLength" : 36,
            "byteOffset" : 768
        },
        {
            "buffer" : 0,
            "byteLength" : 1644,
            "byteOffset" : 804
        },
        {
            "buffer" : 0,
            "byteLength" : 1644,
            "byteOffset" : 2448
        },
        {
            "buffer" : 0,
            "byteLength" : 1096,
            "byteOffset" : 4092
        },
        {
            "buffer" : 0,
            "byteLength" : 240,
            "byteOffset" : 5188
        },
        {
            "buffer" : 0,
            "byteLength" : 756,
            "byteOffset" : 5428
        },
        {
            "buffer" : 0,
            "byteLength" : 756,
            "byteOffset" : 6184
        },
        {
            "buffer" : 0,
            "byteLength" : 504,
            "byteOffset" : 6940
        },
        {
            "buffer" : 0,
            "byteLength" : 93,
            "byteOffset" : 7444
        },
        {
            "buffer" : 0,
            "byteLength" : 48,
            "byteOffset" : 7540
        },
        {
            "buffer" : 0,
            "byteLength" : 48,
            "byteOffset" : 7588
        },
        {
            "buffer" : 0,
            "byteLength" : 32,
            "byteOffset" : 7636
        },
        {
            "buffer" : 0,
            "byteLength" : 6,
            "byteOffset" : 7668
        },
        {
            "buffer" : 0,
            "byteLength" : 4248,
            "byteOffset" : 7676
        },
        {
            "buffer" : 0,
            "byteLength" : 4248,
            "byteOffset" : 11924
        },
        {
            "buffer" : 0,
            "byteLength" : 2832,
            "byteOffset" : 16172
        },
        {
            "buffer" : 0,
            "byteLength" : 1296,
            "byteOffset" : 19004
        }
    ],
    "buffers" : [
        {
            "byteLength" : 20300,
            "uri" : "data:application/octet-stream;base64,"
        }
    ],
    "extensions" : {},
    "meshes" : [
        {
            "name" : "Cube.001",
            "primitives" : [
                {
                    "attributes" : {
                        "NORMAL" : 1,
                        "POSITION" : 0,
                        "TEXCOORD_0" : 2
                    },
                    "indices" : 3
                }
            ]
        },
        {
            "name" : "Cube.003",
            "primitives" : [
                {
                    "attributes" : {
                        "NORMAL" : 5,
                        "POSITION" : 4,
                        "TEXCOORD_0" : 6
                    },
                    "indices" : 7
                }
            ]
        },
        {
            "name" : "Cube.004",
            "primitives" : [
                {
                    "attributes" : {
                        "NORMAL" : 9,
                        "POSITION" : 8,
                        "TEXCOORD_0" : 10
                    },
                    "indices" : 11
                }
            ]
        },
        {
            "name" : "Plane",
            "primitives" : [
                {
                    "attributes" : {
                        "NORMAL" : 13,
                        "POSITION" : 12,
                        "TEXCOORD_0" : 14
                    },
                    "indices" : 15
                }
            ]
        },
        {
            "name" : "Grid",
            "primitives" : [
                {
                    "attributes" : {
                        "NORMAL" : 17,
                        "POSITION" : 16,
                        "TEXCOORD_0" : 18
                    },
                    "indices" : 19
                }
            ]
        }
    ],
    "nodes" : [
        {
            "name" : "Light",
            "rotation" : [
                0.16907575726509094,
                0.7558802962303162,
                -0.27217137813568115,
                0.570947527885437
            ],
            "translation" : [
                4.076245307922363,
                5.903861999511719,
                -1.0054539442062378
            ]
        },
        {
            "name" : "Camera",
            "rotation" : [
                0.483536034822464,
                0.33687159419059753,
                -0.20870360732078552,
                0.7804827094078064
            ],
            "translation" : [
                7.358891487121582,
                4.958309173583984,
                6.925790786743164
            ]
        },
        {
            "mesh" : 0,
            "name" : "Cube",
            "rotation" : [
                0,
                0,
                -1,
                0
            ],
            "scale" : [
                -0.3626769483089447,
                -1,
                -0.39528441429138184
            ],
            "translation" : [
                -37.728782653808594,
                0.8999999761581421,
                0
            ]
        },
        {
            "mesh" : 1,
            "name" : "Cube.001",
            "rotation" : [
                0,
                1,
                0,
                0
            ],
            "scale" : [
                45.17274475097656,
                1,
                38.79935836791992
            ],
            "translation" : [
                0,
                0.5,
                0
            ]
        },
        {
            "name" : "Point",
            "translation" : [
                -67.12242126464844,
                84.67146301269531,
                -74.91482543945312
            ]
        },
        {
            "mesh" : 2,
            "name" : "Cube.002",
            "scale" : [
                -60.14179992675781,
                -35.706817626953125,
                -54.16621780395508
            ],
            "translation" : [
                61.56559753417969,
                37.667510986328125,
                -0.7361323833465576
            ]
        },
        {
            "mesh" : 3,
            "name" : "Plane"
        },
        {
            "mesh" : 4,
            "name" : "Grid"
        }
    ],
    "scene" : 0,
    "scenes" : [
        {
            "name" : "Scene",
            "nodes" : [
                0,
                1,
                2,
                3,
                4,
                5,
                6,
                7
            ]
        }
    ]
}
